<svg xmlns="http://www.w3.org/2000/svg" xmlns:xlink="http://www.w3.org/1999/xlink" version="1.1"><metadata>Created by FontForge 20200427 at Sun Nov 20 17:57:46 2011 By www Copyright (c) 2011 by Brian J. Bonislawsky DBA Astigmatic (AOETI) (astigma@astigmatic.com), with Reserved Font Name &quot;Righteous&quot;</metadata><defs><font id="Righteous-Regular" horiz-adv-x="1380"><font-face x-height="1069" ascent="1638" bbox="-303 -526 2238 2017" cap-height="1434" descent="-410" font-family="Righteous" font-stretch="normal" font-weight="400" panose-1="2 1 5 6 0 0 0 2 0 0" underline-position="-272" underline-thickness="41" unicode-range="U+0020-FB02" units-per-em="2048"/><glyph glyph-name=".notdef" horiz-adv-x="573"/><glyph glyph-name=".null" horiz-adv-x="0"/><glyph glyph-name="nonmarkingreturn" horiz-adv-x="573"/><glyph glyph-name="space" horiz-adv-x="573"/><glyph d="M977 860v-272h-840v272h840z" glyph-name="minus" horiz-adv-x="1114" unicode="−"/><glyph d="M348 983h-207l-41 451h289zM696 983h-207l-40 451h288z" glyph-name="quotedbl" horiz-adv-x="838" unicode="&quot;"/><glyph d="M348 983h-207l-41 451h289z" glyph-name="quotesingle" horiz-adv-x="489" unicode="'"/><glyph d="M690 -205h-309q-86 119 -154 268q-29 63 -56.5 138.5t-49 162t-34.5 182t-13 199.5q0 111 13 208t34.5 180.5t49 153.5t56.5 126q68 131 154 225h309q-92 -112 -164 -251q-31 -59 -60.5 -130.5t-52.5 -152.5t-37 -171.5t-14 -187.5q0 -91 14 -180t37 -173t52.5 -161 t60.5 -143q72 -156 164 -293z" glyph-name="parenleft" horiz-adv-x="719" unicode="("/><glyph d="M645 745q0 -104 -13 -199.5t-35 -182t-49.5 -162t-56.5 -138.5q-68 -149 -153 -268h-309q91 137 163 293q31 66 60.5 143t52.5 161t37 173t14 180q0 97 -14 187.5t-37 171.5t-52.5 152.5t-60.5 130.5q-72 139 -163 251h309q85 -94 153 -225q29 -56 56.5 -126t49.5 -153.5 t35 -180.5t13 -208z" glyph-name="parenright" horiz-adv-x="719" unicode=")"/><glyph d="M635 315h-273v273h-284v272h284v295h273v-295h283v-272h-283v-273z" glyph-name="plus" horiz-adv-x="995" unicode="+"/><glyph d="M961 860v-272h-840v272h840z" glyph-name="hyphen" horiz-adv-x="1083" unicode="-"/><glyph d="M352 0h-295l594 1434h295z" glyph-name="slash" horiz-adv-x="1004" unicode="/"/><glyph d="M977 573v287q0 59 -22.5 111.5t-61.5 91.5t-91.5 61.5t-111.5 22.5t-111.5 -22.5t-91.5 -61.5t-61.5 -91.5t-22.5 -111.5v-287h574zM1264 0h-287v287h-574v-287h-286v860q0 119 45 223.5t122.5 182.5t182 123t223.5 45t223.5 -45t182.5 -123t123 -182.5t45 -223.5v-860z" glyph-name="A" unicode="A"/><glyph d="M1280 430q0 -89 -34 -167t-92.5 -136.5t-136.5 -92.5t-167 -34h-717v1434h717q89 0 167 -34t136.5 -92.5t92.5 -136.5t34 -167q0 -40 -11 -82t-31 -81t-48 -71t-62 -53q35 -19 63 -51.5t48 -71.5t30.5 -81.5t10.5 -82.5zM420 287h430q30 0 56 11t45.5 30.5t30.5 45.5 t11 56t-11 56t-30.5 45.5t-45.5 30.5t-56 11h-430v-286zM420 860h430q30 0 56 11t45.5 30.5t30.5 46t11 56.5t-11 56t-30.5 45.5t-45.5 30.5t-56 11h-430v-287z" glyph-name="B" horiz-adv-x="1364" unicode="B"/><glyph d="M1278 147q-100 -86 -224 -132t-257 -46q-102 0 -196.5 26.5t-177 75t-150.5 116.5t-116.5 150.5t-75 177t-26.5 196.5t26.5 197t75 177.5t116.5 150.5t150.5 116.5t177 75t196.5 26.5q133 0 257 -45.5t224 -132.5l-152 -250q-63 68 -149 104.5t-180 36.5q-95 0 -178 -36 t-145 -97.5t-98 -145t-36 -177.5t36 -176.5t98 -144.5t145 -98t178 -36q94 0 180 36.5t149 104.5z" glyph-name="C" horiz-adv-x="1311" unicode="C"/><glyph d="M1282 717q0 -99 -25.5 -190.5t-72.5 -171t-112 -145t-145 -112.5t-171.5 -72.5t-190.5 -25.5h-432v1434h432q99 0 190.5 -25.5t171.5 -72.5t145 -112.5t112 -145t72.5 -171t25.5 -190.5zM995 717q0 89 -33.5 167t-92 136.5t-137 92.5t-167.5 34h-143v-860h143 q89 0 167.5 33.5t137 92t92 137t33.5 167.5z" glyph-name="D" horiz-adv-x="1339" unicode="D"/><glyph d="M1116 0h-983v1434h983v-287h-696v-287h471v-287h-471v-286h696v-287z" glyph-name="E" horiz-adv-x="1184" unicode="E"/><glyph d="M420 0h-287v1434h1004v-287h-717v-287h430v-287h-430v-573z" glyph-name="F" horiz-adv-x="1151" unicode="F"/><glyph d="M1274 145q-100 -85 -223 -130.5t-256 -45.5q-102 0 -196.5 26.5t-176.5 75t-150 116t-116 150t-74.5 177.5t-26.5 197t26.5 196t74.5 176.5t116 150t150 115.5t176.5 74.5t196.5 26.5q133 0 256 -45.5t223 -130.5l-150 -250q-65 66 -150 103.5t-179 37.5t-176.5 -36 t-144.5 -97.5t-98 -144t-36 -176.5q0 -95 36 -178t98 -145t144.5 -98t176.5 -36q54 0 105 13t97 36v408h277v-566z" glyph-name="G" horiz-adv-x="1362" unicode="G"/><glyph d="M420 0h-287v1434h287v-574h573v574h287v-1434h-287v573h-573v-573z" glyph-name="H" horiz-adv-x="1413" unicode="H"/><glyph d="M420 0h-287v1434h287v-1434z" glyph-name="I" horiz-adv-x="553" unicode="I"/><glyph d="M737 573q0 -119 -45 -223.5t-122.5 -182t-182 -122.5t-223.5 -45q-72 0 -144 18v308q32 -19 69 -29t75 -10q59 0 111.5 22.5t91.5 61.5t61.5 91t22.5 111v861h286v-861z" glyph-name="J" horiz-adv-x="854" unicode="J"/><glyph d="M420 0h-287v1434h287v-717l534 717h326l-453 -605l453 -829h-326l-315 580l-219 -293v-287z" glyph-name="K" horiz-adv-x="1280" unicode="K"/><glyph d="M1137 0h-1004v1434h287v-1147h717v-287z" glyph-name="L" horiz-adv-x="1153" unicode="L"/><glyph d="M1556 0h-286v1024q0 30 -11.5 56t-31 45.5t-45.5 30.5t-56 11t-56 -11t-45.5 -30.5t-30.5 -45.5t-11 -56v-1024h-287v1024q0 30 -11 56t-30.5 45.5t-45.5 30.5t-56 11t-56 -11t-45.5 -30.5t-30.5 -45.5t-11 -56v-1024h-287v1024q0 89 33.5 167.5t92 137t137 92 t167.5 33.5q80 0 154 -28.5t133 -82.5q59 54 132.5 82.5t153.5 28.5q89 0 167.5 -33.5t137 -92t92 -137t33.5 -167.5v-1024z" glyph-name="M" horiz-adv-x="1679" unicode="M"/><glyph d="M1280 0h-307l-553 944v-944h-287v1434h307l553 -945v945h287v-1434z" glyph-name="N" horiz-adv-x="1413" unicode="N"/><glyph d="M1538 711q0 -102 -26.5 -196.5t-74.5 -177t-116 -150.5t-150 -116.5t-177 -75t-197 -26.5t-196.5 26.5t-177 75t-150.5 116.5t-116.5 150.5t-75 177t-26.5 196.5t26.5 197t75 177t116.5 150t150.5 116t177 74.5t196.5 26.5t197 -26.5t177 -74.5t150 -116t116 -150 t74.5 -177t26.5 -197zM1253 711q0 94 -36 177.5t-97.5 145t-145 97.5t-177.5 36q-95 0 -178 -36t-145 -97.5t-98 -145t-36 -177.5t36 -176.5t98 -144.5t145 -98t178 -36q94 0 177.5 36t145 98t97.5 144.5t36 176.5z" glyph-name="O" horiz-adv-x="1593" unicode="O"/><glyph d="M420 1147v-574h287q59 0 111 22.5t91 61.5t61.5 91.5t22.5 111.5t-22.5 111.5t-61.5 91.5t-91 61.5t-111 22.5h-287zM420 0h-287v1434h574q79 0 152 -20.5t136.5 -58t116 -90t90 -116.5t58 -137t20.5 -152q0 -118 -45 -222.5t-123 -182.5t-182.5 -123t-222.5 -45h-287 v-287z" glyph-name="P" horiz-adv-x="1315" unicode="P"/><glyph d="M1346 -287h-326l-172 258q-14 -2 -26.5 -2h-24.5q-102 0 -196.5 26.5t-177 75t-150.5 116.5t-116.5 150.5t-75 177t-26.5 196.5t26.5 197t75 177t116.5 150t150.5 116t177 74.5t196.5 26.5t197 -26.5t177 -74.5t150 -116t116 -150t74.5 -177t26.5 -197q0 -106 -29.5 -206 t-83.5 -186.5t-130.5 -156.5t-170.5 -117zM1253 711q0 94 -36 177.5t-97.5 145t-145 97.5t-177.5 36q-95 0 -178 -36t-145 -97.5t-98 -145t-36 -177.5t36 -176.5t98 -144.5t145 -98t178 -36q94 0 177.5 36t145 98t97.5 144.5t36 176.5z" glyph-name="Q" horiz-adv-x="1593" unicode="Q"/><glyph d="M420 1147v-574h287q59 0 111 22.5t91 61.5t61.5 91.5t22.5 111.5t-22.5 111.5t-61.5 91.5t-91 61.5t-111 22.5h-287zM420 0h-287v1434h574q79 0 152 -20.5t136.5 -58t116 -90t90 -116.5t58 -137t20.5 -152q0 -74 -18.5 -144t-53 -133t-84.5 -116t-112 -92l159 -375h-305 l-125 289l-321 -2v-287z" glyph-name="R" horiz-adv-x="1335" unicode="R"/><glyph d="M49 1004q0 89 34 167t92.5 136.5t136.5 92.5t167 34h658v-287h-658q-30 0 -56 -11t-45.5 -30.5t-30.5 -45.5t-11 -56t11 -56.5t30.5 -46t45.5 -30.5t56 -11h287q89 0 167.5 -33.5t137 -92t92 -137t33.5 -167.5t-33.5 -167t-92 -136.5t-137 -92.5t-167.5 -34h-637v287h637 q30 0 56 11t45.5 30.5t30.5 45.5t11 56t-11 56t-30.5 45.5t-45.5 30.5t-56 11h-287q-89 0 -167 34t-136.5 92.5t-92.5 137t-34 167.5z" glyph-name="S" horiz-adv-x="1251" unicode="S"/><glyph d="M735 0h-286v1147h-431v287h1147v-287h-430v-1147z" glyph-name="T" horiz-adv-x="1184" unicode="T"/><glyph d="M1264 573q0 -119 -45 -223.5t-123 -182t-182.5 -122.5t-223.5 -45t-223.5 45t-182 122.5t-122.5 182t-45 223.5v861h286v-861q0 -59 22.5 -111t61.5 -91t91.5 -61.5t111.5 -22.5t111.5 22.5t91.5 61.5t61.5 91t22.5 111v861h287v-861z" glyph-name="U" unicode="U"/><glyph d="M1229 1434l-471 -1434h-287l-469 1434h326l286 -957l287 957h328z" glyph-name="V" horiz-adv-x="1233" unicode="V"/><glyph d="M1556 410q0 -89 -33.5 -167.5t-92 -137t-137 -92t-167.5 -33.5q-80 0 -153.5 28t-132.5 82q-59 -54 -133 -82t-154 -28q-89 0 -167.5 33.5t-137 92t-92 137t-33.5 167.5v1024h287v-1024q0 -30 11 -56.5t30.5 -46t45.5 -30.5t56 -11t56 11t45.5 30.5t30.5 46t11 56.5v1024 h287v-1024q0 -30 11 -56.5t30.5 -46t45.5 -30.5t56 -11t56 11t45.5 30.5t31 46t11.5 56.5v1024h286v-1024z" glyph-name="W" horiz-adv-x="1679" unicode="W"/><glyph d="M1247 0h-348l-276 463l-277 -463h-346l440 717l-440 717h346l277 -463l276 463h348l-440 -717z" glyph-name="X" horiz-adv-x="1247" unicode="X"/><glyph d="M778 0h-286v449q-95 24 -174.5 77t-136.5 126.5t-88.5 163t-31.5 188.5v430h287v-430q0 -59 22.5 -111.5t61.5 -91.5t91.5 -61.5t111.5 -22.5t111.5 22.5t91.5 61.5t61.5 91.5t22.5 111.5v430h286v-430q0 -99 -31.5 -188.5t-88.5 -163t-136 -126.5t-174 -77v-449z" glyph-name="Y" horiz-adv-x="1270" unicode="Y"/><glyph d="M1157 0h-1110l612 1147h-612v287h1110l-610 -1147h610v-287z" glyph-name="Z" horiz-adv-x="1202" unicode="Z"/><glyph d="M418 82h287v-287h-576v1843h576v-286h-287v-1270z" glyph-name="bracketleft" horiz-adv-x="780" unicode="["/><glyph d="M946 0h-295l-594 1434h295z" glyph-name="backslash" horiz-adv-x="1004" unicode="\"/><glyph d="M651 -205h-575v287h286v1270h-286v286h575v-1843z" glyph-name="bracketright" horiz-adv-x="780" unicode="]"/><glyph d="M1141 0h-66l-106 147q-39 -35 -82.5 -65.5t-91.5 -53t-98.5 -35.5t-102.5 -13q-113 0 -212.5 38t-174 110.5t-117.5 177.5t-43 239q0 125 43 229.5t117.5 179.5t174 116.5t212.5 41.5q52 0 103 -13t99 -36t91.5 -54t81.5 -67l106 127h66v-1069zM866 545q0 56 -21.5 108.5 t-58.5 93t-86.5 65t-105.5 24.5t-105.5 -19t-86 -56t-57.5 -91.5t-21 -124.5t21 -124.5t57.5 -91.5t86 -56t105.5 -19t105.5 24.5t86.5 65t58.5 93t21.5 108.5z" glyph-name="a" horiz-adv-x="1245" unicode="a"/><glyph d="M1176 545q0 -126 -43 -230t-117 -178.5t-173.5 -115.5t-213.5 -41q-113 0 -212.5 42t-174 117t-117.5 178.5t-43 227.5v952h274v-500q22 28 53.5 50t68 36t75.5 21.5t76 7.5q114 0 213.5 -42.5t173.5 -118.5t117 -179.5t43 -226.5zM901 545q0 62 -21.5 115.5t-58.5 92.5 t-86.5 61t-105.5 22t-105.5 -24.5t-86.5 -65t-58 -93t-21 -108.5q0 -62 21 -115t58 -92t86.5 -61.5t105.5 -22.5t105.5 22.5t86.5 61.5t58.5 92t21.5 115z" glyph-name="b" horiz-adv-x="1223" unicode="b"/><glyph d="M1040 858l-200 -201q-15 42 -41 75.5t-58.5 56.5t-70.5 35t-78 12q-56 0 -105.5 -23t-86 -64.5t-57.5 -98.5t-21 -126q0 -56 21 -105t57.5 -86t86 -58t105.5 -21q40 0 77 11t69.5 31.5t58 50t41.5 65.5l200 -201q-38 -54 -87.5 -97t-107 -73t-121 -45.5t-130.5 -15.5 q-113 0 -212.5 42.5t-174 116.5t-117.5 173t-43 212q0 123 43 230t117.5 186.5t174 125.5t212.5 46q67 0 131.5 -17t123 -49.5t108 -79.5t85.5 -108z" glyph-name="c" horiz-adv-x="1069" unicode="c"/><glyph d="M1139 0h-66l-106 147q-39 -35 -82.5 -65.5t-91.5 -53t-98.5 -35.5t-102.5 -13q-113 0 -212.5 42.5t-174 118t-117.5 179t-43 225.5q0 121 43 225t117.5 180t174 119t212.5 43q36 0 74.5 -6t75 -19.5t68.5 -35.5t54 -54v500h275v-1497zM864 545q0 56 -21.5 108.5t-58.5 93 t-86.5 65t-105.5 24.5t-105.5 -20t-86 -57.5t-57.5 -91.5t-21 -122q0 -59 21 -112t57.5 -93t86 -63t105.5 -23t105.5 24.5t86.5 65t58.5 93t21.5 108.5z" glyph-name="d" horiz-adv-x="1243" unicode="d"/><glyph d="M530 262q16 -5 32 -6.5t32 -1.5q40 0 77 11t69.5 31.5t58 50t41.5 65.5l200 -201q-38 -54 -87.5 -97t-107 -73t-121 -45.5t-130.5 -15.5q-113 0 -212.5 42t-174 117t-117.5 178.5t-43 227.5q0 127 43 232t117.5 179t174 115t212.5 41q67 0 131 -16t121.5 -46t107.5 -73.5 t88 -97.5zM670 825q-19 7 -37.5 9t-38.5 2q-56 0 -105.5 -20.5t-86 -58.5t-57.5 -91.5t-21 -120.5q0 -15 1.5 -34t5 -38.5t8.5 -37.5t13 -32z" glyph-name="e" horiz-adv-x="1075" unicode="e"/><glyph d="M451 0h-273v799h-133v272h133v51q0 99 37.5 186t103 151.5t152.5 102t186 37.5h205v-272h-205q-44 0 -81.5 -15.5t-65 -43t-43.5 -65t-16 -81.5v-51h335v-272h-335v-799z" glyph-name="f" horiz-adv-x="811" unicode="f"/><glyph d="M866 545q0 56 -21.5 108.5t-58.5 93t-86.5 65t-105.5 24.5t-105.5 -19t-86 -56t-57.5 -91.5t-21 -124.5q0 -67 21 -120.5t57.5 -91.5t86 -58.5t105.5 -20.5t105.5 24.5t86.5 65t58.5 93t21.5 108.5zM1141 135q0 -113 -43 -212t-117.5 -173t-174 -117t-212.5 -43l-137 2 v273l135 -2q64 0 109 16.5t76 45t49.5 65.5t29.5 78q-16 -26 -46 -42.5t-66.5 -27t-76 -14.5t-73.5 -4q-113 0 -212.5 39t-174 111.5t-117.5 177.5t-43 237q0 121 43 225t117.5 180t174 119t212.5 43q52 0 103 -13t99 -36t91.5 -54t81.5 -67l106 127h66v-934z" glyph-name="g" horiz-adv-x="1245" unicode="g"/><glyph d="M377 0h-273v1497h273v-473q49 37 101 52.5t106 15.5q99 0 186 -37.5t151.5 -103t102 -153t37.5 -186.5v-612h-275v612h2q0 42 -16 79.5t-44 65.5t-65 44t-79 16q-43 0 -81 -16t-66 -44t-44 -65.5t-16 -79.5v-612z" glyph-name="h" horiz-adv-x="1151" unicode="h"/><glyph d="M426 1362q0 -38 -14.5 -71t-39.5 -57.5t-58.5 -39t-71.5 -14.5t-71.5 14.5t-58 39t-39 57.5t-14.5 71q0 37 14.5 70.5t39 58t58 39t71.5 14.5t71.5 -14.5t58.5 -39t39.5 -58t14.5 -70.5zM379 0h-275v1071h275v-1071z" glyph-name="i" horiz-adv-x="483" unicode="i"/><glyph d="M430 1362q0 -38 -14.5 -71t-39 -57.5t-58 -39t-70.5 -14.5q-39 0 -72.5 14.5t-58.5 39t-39.5 57.5t-14.5 71q0 37 14.5 70.5t39.5 58t58.5 39t72.5 14.5q37 0 70.5 -14.5t58 -39t39 -58t14.5 -70.5zM-303 -408v275l151 -2q55 0 102 22.5t81.5 60t54.5 86.5t20 103v934 h279v-934h-2q-1 -75 -20.5 -145t-55.5 -130.5t-86 -110t-110.5 -85t-130 -55t-144.5 -19.5h-139z" glyph-name="j" horiz-adv-x="487" unicode="j"/><glyph d="M379 0h-275v1497h275v-944l407 516h314l-355 -446l355 -623h-314l-217 389l-190 -252v-137z" glyph-name="k" horiz-adv-x="1104" unicode="k"/><glyph d="M379 0h-275v1497h275v-1497z" glyph-name="l" horiz-adv-x="483" unicode="l"/><glyph d="M1466 0h-272v680q0 28 -10.5 53t-29.5 44t-44 29.5t-53 10.5t-52.5 -10.5t-43 -29.5t-29 -44t-10.5 -53v-680h-273v680q0 28 -10.5 53t-29.5 44t-44 29.5t-53 10.5t-52.5 -10.5t-43 -29.5t-29 -44t-10.5 -53v-680h-273v1071h66l74 -82q57 48 125.5 74.5t142.5 26.5 q75 0 146.5 -28t125.5 -97q25 34 57 58t67.5 39t73.5 21.5t75 6.5q85 0 159.5 -32t130 -87.5t87.5 -130.5t32 -160v-680z" glyph-name="m" horiz-adv-x="1561" unicode="m"/><glyph d="M377 0h-273v1071h66l90 -104q66 60 149.5 92.5t174.5 32.5q98 0 185 -37.5t152 -103t102.5 -153t37.5 -186.5v-612h-273v612q0 42 -16 79.5t-44 65.5t-65 44t-79 16q-43 0 -81 -16t-66 -44t-44 -65.5t-16 -79.5v-612z" glyph-name="n" horiz-adv-x="1151" unicode="n"/><glyph d="M1139 545q0 -120 -43 -223.5t-117 -179t-173.5 -119t-213.5 -43.5q-113 0 -212.5 43.5t-174 119t-117.5 179t-43 223.5q0 122 43 226t117.5 179.5t174 118.5t212.5 43q114 0 213.5 -40.5t173.5 -115t117 -179t43 -232.5zM864 545q0 66 -21.5 119.5t-58.5 92t-86.5 59 t-105.5 20.5t-105.5 -20.5t-86 -59t-57.5 -92t-21 -119.5q0 -62 21 -115t57.5 -92t86 -61.5t105.5 -22.5t105.5 21t86.5 59t58.5 92t21.5 119z" glyph-name="o" horiz-adv-x="1186" unicode="o"/><glyph d="M379 -408h-275v1479h66l109 -129q37 35 81 66t91.5 53.5t98.5 35.5t103 13q113 0 212.5 -40.5t174 -114.5t117.5 -178.5t43 -231.5q0 -132 -43 -237.5t-117.5 -179t-174 -112.5t-212.5 -39q-36 0 -71.5 8t-70 21.5t-68 30.5t-64.5 35v-480zM926 545q0 68 -21.5 122 t-58.5 91.5t-87 57.5t-106 20t-105.5 -20t-86.5 -57.5t-58.5 -91.5t-21.5 -122q0 -65 21.5 -119t58.5 -92t86.5 -59t105.5 -21t106 21t87 59t58.5 92t21.5 119z" glyph-name="p" horiz-adv-x="1247" unicode="p"/><glyph d="M1141 -408h-275v480q-31 -18 -63.5 -35t-67 -30.5t-70 -21.5t-71.5 -8q-113 0 -212.5 41.5t-174 116.5t-117.5 179.5t-43 230.5q0 127 43 231.5t117.5 178.5t174 114.5t212.5 40.5q52 0 102.5 -13t98.5 -35.5t91.5 -53.5t82.5 -66l106 127h66v-1477zM866 545 q0 56 -21.5 108.5t-58.5 93t-86.5 65t-105.5 24.5t-105.5 -20.5t-86 -58.5t-57.5 -91.5t-21 -120.5q0 -69 21 -123.5t57.5 -91.5t86 -56.5t105.5 -19.5t105.5 24.5t86.5 65t58.5 93t21.5 108.5z" glyph-name="q" horiz-adv-x="1245" unicode="q"/><glyph d="M377 0h-273v1071h66l90 -127q66 60 150 92.5t174 32.5h241v-272h-241q-43 0 -81 -16t-66 -44t-44 -66t-16 -81v-590z" glyph-name="r" horiz-adv-x="848" unicode="r"/><glyph d="M692 0h-624v272h624q28 0 48 20t20 48q0 29 -20 38t-48 9h-284q-71 0 -133 27t-108 73.5t-72.5 108.5t-26.5 133t26.5 133t72.5 108t108 72.5t133 26.5h553v-272h-553q-28 0 -48 -20t-20 -48q0 -29 20 -49.5t48 -20.5h284q70 0 132 -23.5t108 -65.5t73 -101t27 -129 q0 -71 -27 -132.5t-73 -108t-108 -73t-132 -26.5z" glyph-name="s" horiz-adv-x="1073" unicode="s"/><glyph d="M641 0q-99 0 -186 37.5t-152.5 103t-103 152.5t-37.5 186v318h-133v272h133v428h272v-428h414v-272h-414v-318q0 -43 16 -80.5t44 -65.5t66 -44.5t81 -16.5h207v-272h-207z" glyph-name="t" horiz-adv-x="897" unicode="t"/><glyph d="M891 125q-33 -30 -70.5 -56.5t-78.5 -46t-84.5 -31t-88.5 -11.5q-99 0 -186 35t-152.5 99.5t-103 157t-37.5 207.5v592h272v-592q0 -54 16.5 -96.5t44.5 -71.5t65.5 -44t80.5 -15q42 0 79.5 19.5t65.5 51.5t44 72.5t16 83.5v592h273v-1071h-66z" glyph-name="u" horiz-adv-x="1151" unicode="u"/><glyph d="M408 0l-408 1071h311l234 -668l233 668h312l-408 -1071h-274z" glyph-name="v" horiz-adv-x="1090" unicode="v"/><glyph d="M1456 387q0 -84 -32 -158.5t-87.5 -129.5t-130 -87t-159.5 -32q-76 0 -146 26.5t-127 77.5q-56 -51 -125.5 -77.5t-146.5 -26.5q-85 0 -159 32t-129.5 87t-87.5 129.5t-32 158.5v682h273v-682q0 -28 10.5 -52.5t29 -43t43 -29t52.5 -10.5t53 10.5t44 29t29.5 43 t10.5 52.5v682h272v-682q0 -28 11 -52.5t29.5 -43t43 -29t52.5 -10.5t53 10.5t43.5 29t29.5 43t11 52.5v682h272v-682z" glyph-name="w" horiz-adv-x="1550" unicode="w"/><glyph d="M1090 0h-334l-213 328l-215 -328h-334l391 549l-391 528h334l215 -307l213 307h334l-392 -528z" glyph-name="x" horiz-adv-x="1083" unicode="x"/><glyph d="M362 -408v275l152 -2q40 0 77 13t68.5 36t55.5 54.5t39 68.5q-45 -19 -91.5 -38t-93.5 -19q-99 0 -186 35t-152.5 99.5t-103 157t-37.5 207.5v592h272v-592q0 -57 16.5 -99.5t44.5 -71t65.5 -42.5t80.5 -14q42 0 79.5 19.5t65.5 51.5t44 72.5t16 83.5v592h275v-936 q-1 -113 -44 -212t-117.5 -173t-173.5 -117t-212 -43z" glyph-name="y" horiz-adv-x="1153" unicode="y"/><glyph d="M940 0h-893l451 797h-451v272h893l-451 -797h451v-272z" glyph-name="z" horiz-adv-x="987" unicode="z"/><glyph d="M418 -205h-289v1843h289v-1843z" glyph-name="bar" horiz-adv-x="547" unicode="|"/><glyph d="M823 997h-233v-1202h-289v1202h-235v273h235v368h289v-368h233v-273z" glyph-name="dagger" horiz-adv-x="889" unicode="†"/><glyph d="M842 178h-234v-383h-289v383h-235v273h235v546h-235v273h235v368h289v-368h234v-273h-234v-546h234v-273z" glyph-name="daggerdbl" horiz-adv-x="926" unicode="‡"/><glyph d="M440 102q0 -36 -13 -67.5t-36 -54.5t-54 -36.5t-67 -13.5q-35 0 -66.5 13.5t-55 36.5t-37 54.5t-13.5 67.5q0 35 13.5 66t37 54t55 36.5t66.5 13.5q36 0 67 -13.5t54 -36.5t36 -54t13 -66z" glyph-name="period" horiz-adv-x="539" unicode="."/><glyph d="M440 102q0 -44 -8.5 -94.5t-27 -100t-48 -94t-71.5 -75.5l-109 76q28 32 42 60.5t22 57.5q-30 6 -56 21t-45 37.5t-30 51t-11 60.5q0 35 13.5 66t37 54t54 36.5t65.5 13.5q36 0 67.5 -13.5t55 -36.5t36.5 -54t13 -66z" glyph-name="comma" horiz-adv-x="541" unicode=","/><glyph d="M455 676q0 -36 -13.5 -67.5t-36.5 -54.5t-54 -36.5t-66 -13.5q-36 0 -67 13.5t-54.5 36.5t-37 54.5t-13.5 67.5q0 34 13.5 65t37 54.5t54.5 37t67 13.5q35 0 66 -13.5t54 -37t36.5 -54.5t13.5 -65zM455 102q0 -36 -13.5 -67.5t-36.5 -54.5t-54 -36.5t-66 -13.5 q-36 0 -67 13.5t-54.5 36.5t-37 54.5t-13.5 67.5q0 35 13.5 66t37 54t54.5 36.5t67 13.5q35 0 66 -13.5t54 -36.5t36.5 -54t13.5 -66z" glyph-name="colon" horiz-adv-x="567" unicode=":"/><glyph d="M455 676q0 -36 -13.5 -67.5t-36.5 -54.5t-54 -36.5t-66 -13.5q-36 0 -67 13.5t-54.5 36.5t-37 54.5t-13.5 67.5q0 34 13.5 65t37 54.5t54.5 37t67 13.5q35 0 66 -13.5t54 -37t36.5 -54.5t13.5 -65zM455 102q0 -44 -8.5 -94.5t-27 -100t-48.5 -94t-72 -75.5l-109 76 q28 32 42 60.5t22 57.5q-30 6 -56 21t-44.5 37.5t-29.5 51t-11 60.5q0 35 13.5 66t36.5 54t54 36.5t66 13.5q36 0 67.5 -13.5t54.5 -36.5t36.5 -54t13.5 -66z" glyph-name="semicolon" horiz-adv-x="567" unicode=";"/><glyph d="M1032 532q0 79 -30 149t-82 122t-121.5 82t-147.5 30q-79 0 -148.5 -30t-121 -82t-81.5 -122t-30 -149q0 -78 30 -147t81.5 -121t121 -82t148.5 -30q23 0 49.5 3.5t63.5 14.5l45 -186q-48 -13 -85.5 -18t-72.5 -5q-116 0 -220 46t-182.5 124.5t-124.5 182t-46 218.5 q0 124 43.5 229.5t120 182t181.5 119.5t228 43q122 0 227 -43.5t181.5 -120.5t120 -182t43.5 -228q0 -66 -15.5 -124t-50.5 -127h-442v16q-23 -12 -45 -16.5t-37 -4.5q-57 0 -103.5 18.5t-79.5 52.5t-51 80.5t-18 102.5q0 57 17.5 104t50.5 81t79.5 52.5t104.5 18.5 q15 0 37 -4.5t45 -15.5v45h186v-367h121q6 23 8 44t2 44zM565 530q0 -34 20.5 -53.5t55.5 -19.5q34 0 54 19.5t20 53.5q0 36 -20 56t-54 20q-35 0 -55.5 -20t-20.5 -56z" glyph-name="at" horiz-adv-x="1290" unicode="@"/><glyph d="M440 102q0 -44 -8.5 -94.5t-27 -100t-48 -94t-71.5 -75.5l-109 76q28 32 42 60.5t22 57.5q-30 6 -56 21t-45 37.5t-30 51t-11 60.5q0 35 13.5 66t37 54t54 36.5t65.5 13.5q36 0 67.5 -13.5t55 -36.5t36.5 -54t13 -66z" glyph-name="quotesinglbase" horiz-adv-x="541" unicode="‚"/><glyph d="M440 102q0 -44 -8.5 -94.5t-27 -100t-48 -94t-71.5 -75.5l-109 76q28 32 42 60.5t22 57.5q-30 6 -56 21t-45 37.5t-30 51t-11 60.5q0 35 13.5 66t37 54t54 36.5t65.5 13.5q36 0 67.5 -13.5t55 -36.5t36.5 -54t13 -66zM850 102q0 -44 -8.5 -94.5t-27 -100t-48.5 -94 t-72 -75.5l-108 76q28 32 41.5 60.5t21.5 57.5q-30 6 -56 21t-44.5 37.5t-29.5 51t-11 60.5q0 35 13.5 66t37 54t54 36.5t65.5 13.5q36 0 67.5 -13.5t54.5 -36.5t36.5 -54t13.5 -66z" glyph-name="quotedblbase" horiz-adv-x="950" unicode="„"/><glyph d="M438 717q0 -36 -13.5 -67.5t-36.5 -54.5t-54 -36.5t-66 -13.5t-66.5 13.5t-55 36.5t-37 54.5t-13.5 67.5q0 34 13.5 65t37 54.5t55 37t66.5 13.5t66 -13.5t54 -37t36.5 -54.5t13.5 -65z" glyph-name="periodcentered" horiz-adv-x="535" unicode="·"/><glyph d="M578 741q0 -44 -17 -83.5t-46 -68.5t-68 -46t-82 -17q-45 0 -84 17t-68 46t-46 68.5t-17 83.5t17 82.5t46 67.5t68 46t84 17q43 0 82 -17t68 -46t46 -67.5t17 -82.5z" glyph-name="bullet" horiz-adv-x="727" unicode="•"/><glyph d="M737 860v-272h-614v272h614z" glyph-name="endash" horiz-adv-x="858" unicode="–"/><glyph d="M1352 860v-272h-1229v272h1229z" glyph-name="emdash" horiz-adv-x="1473" unicode="—"/><glyph d="M418 1266q0 -44 -8.5 -94.5t-27 -100t-48.5 -94.5t-72 -76l-108 76q27 32 41 61t22 58q-30 5 -56 20t-44.5 37.5t-29.5 51.5t-11 61q0 34 13.5 65t37 54.5t54 37t65.5 13.5q36 0 67.5 -13.5t54.5 -37t36.5 -54.5t13.5 -65z" glyph-name="quoteright" horiz-adv-x="502" unicode="’"/><glyph d="M418 1266q0 -44 -8.5 -94.5t-27 -100t-48.5 -94.5t-72 -76l-108 76q27 32 41 61t22 58q-30 5 -56 20t-44.5 37.5t-29.5 51.5t-11 61q0 34 13.5 65t37 54.5t54 37t65.5 13.5q36 0 67.5 -13.5t54.5 -37t36.5 -54.5t13.5 -65zM827 1266q0 -44 -8.5 -94.5t-27 -100t-48 -94.5 t-71.5 -76l-109 76q28 32 42 61t22 58q-30 5 -56 20t-45 37.5t-30 51.5t-11 61q0 34 13.5 65t37 54.5t54 37t65.5 13.5q36 0 67.5 -13.5t55 -37t36.5 -54.5t13 -65z" glyph-name="quotedblright" horiz-adv-x="911" unicode="”"/><glyph d="M496 1071q0 44 8.5 94.5t27 100t48 94t71.5 76.5l109 -76q-28 -32 -42 -61t-22 -58q30 -5 56 -20.5t45 -38t30 -51t11 -60.5q0 -35 -13.5 -65.5t-37 -54t-54.5 -37t-65 -13.5q-36 0 -67.5 13.5t-55 37t-36.5 54t-13 65.5zM86 1071q0 44 8.5 94.5t27 100t48.5 94t72 76.5 l108 -76q-28 -32 -41.5 -61t-21.5 -58q30 -5 56 -20.5t44.5 -38t29.5 -51t11 -60.5q0 -35 -13.5 -65.5t-37 -54t-54.5 -37t-65 -13.5q-36 0 -67.5 13.5t-54.5 37t-36.5 54t-13.5 65.5z" glyph-name="quotedblleft" horiz-adv-x="913" unicode="“"/><glyph d="M86 1071q0 44 8.5 94.5t27 100t48.5 94t72 76.5l108 -76q-28 -32 -41.5 -61t-21.5 -58q30 -5 56 -20.5t44.5 -38t29.5 -51t11 -60.5q0 -35 -13.5 -65.5t-37 -54t-54.5 -37t-65 -13.5q-36 0 -67.5 13.5t-54.5 37t-36.5 54t-13.5 65.5z" glyph-name="quoteleft" horiz-adv-x="504" unicode="‘"/><glyph d="M203 0h-217l788 1434h217z" glyph-name="fraction" horiz-adv-x="977" unicode="⁄"/><glyph d="M379 0h-275v1071h275v-1071z" glyph-name="dotlessi" horiz-adv-x="483" unicode="ı"/><glyph d="M295 340l-193 192l193 193l-201 201l193 192l200 -200l209 208l193 -194l-209 -207l201 -201l-193 -192l-201 200z" glyph-name="multiply" horiz-adv-x="981" unicode="×"/><glyph d="M971 1065v-272h-840v272h840zM971 655v-272h-840v272h840z" glyph-name="equal" horiz-adv-x="1104" unicode="="/><glyph d="M430 1389q11 -25 16 -44t5 -45q0 -51 -17.5 -88t-47.5 -61.5t-70 -36.5t-85 -12q-47 0 -89 14.5t-73.5 42.5t-50 67.5t-18.5 90.5q0 20 3.5 36.5t14.5 35.5h172q-5 -14 -7.5 -29t-2.5 -29q0 -23 12.5 -39t36.5 -16q23 0 36.5 18t13.5 39q0 16 -4 28t-9 28h164z" glyph-name="breve" horiz-adv-x="451" unicode="˘"/><glyph d="M256 1227q0 -27 -10 -50.5t-27.5 -41t-40.5 -27.5t-49 -10t-49.5 10t-41 27.5t-28 41t-10.5 50.5q0 26 10.5 49.5t28 41t41 28t49.5 10.5t49 -10.5t40.5 -28t27.5 -41t10 -49.5z" glyph-name="dotaccent" horiz-adv-x="256" unicode="˙"/><glyph d="M395 1249q0 -41 -15.5 -76.5t-42.5 -62t-63 -42t-77 -15.5q-40 0 -76 15.5t-63 42t-42.5 62t-15.5 76.5t15.5 77t42.5 63t63 43t76 16q41 0 77 -16t63 -43t42.5 -63t15.5 -77zM262 1249q0 28 -19 48t-46 20q-28 0 -46 -20t-18 -48q0 -26 18 -44.5t46 -18.5q27 0 46 18.5 t19 44.5z" glyph-name="ring" horiz-adv-x="395" unicode="˚"/><glyph d="M131 1083l-131 127l248 328l196 -182zM477 1038l-133 127l248 324l196 -182z" glyph-name="hungarumlaut" horiz-adv-x="788" unicode="˝"/><glyph d="M199 -365q-29 0 -64 12t-65 35t-50 58t-20 80q0 39 17.5 73t44.5 64t59.5 56t62.5 48h133q-14 -13 -36 -38t-42 -54t-34.5 -57.5t-14.5 -46.5q0 -16 10 -28.5t27 -12.5q22 0 41 14.5t27 34.5l141 -131q-48 -48 -108 -77.5t-129 -29.5z" glyph-name="ogonek" horiz-adv-x="436" unicode="˛"/><glyph d="M281 1049l-281 254l113 143l161 -146l150 140l123 -135z" glyph-name="caron" horiz-adv-x="547" unicode="ˇ"/><glyph d="M184 -461q-36 2 -69 15t-59 28q-30 18 -56 39l55 150q23 -17 46 -29q20 -11 41 -20t38 -9q22 0 36.5 14t14.5 37q0 28 -21 40t-46 12q-32 0 -58 -17l93 258h123l-48 -135q31 -4 59 -18t48.5 -36.5t32.5 -53t12 -66.5q0 -50 -16.5 -89t-46.5 -65.5t-71.5 -40.5t-90.5 -14 h-17z" glyph-name="cedilla" horiz-adv-x="426" unicode="¸"/><glyph d="M113 1006l-113 149l297 277l164 -209z" glyph-name="acute" horiz-adv-x="461" unicode="´"/><glyph d="M616 1210q0 -26 -9.5 -49t-26 -40.5t-39 -27.5t-47.5 -10q-26 0 -49.5 10t-40.5 27.5t-27 40.5t-10 49q0 25 10 48t27 40t40.5 27t49.5 10q25 0 47.5 -10t39 -27t26 -40t9.5 -48zM256 1212q0 -27 -10 -50.5t-27.5 -41t-40.5 -27.5t-49 -10t-49.5 10t-41 27.5t-28 41 t-10.5 50.5q0 26 10.5 49t28 40.5t41 27.5t49.5 10t49 -10t40.5 -27.5t27.5 -40.5t10 -49z" glyph-name="dieresis" horiz-adv-x="616" unicode="¨"/><glyph d="M637 1417q6 -18 11 -39q4 -18 7.5 -41t3.5 -49q0 -50 -15 -89.5t-40.5 -67t-61 -42t-75.5 -14.5q-45 0 -77 19.5t-56.5 43t-46 43t-45.5 19.5q-19 0 -31 -17t-12 -34q0 -20 6.5 -38.5t17.5 -35.5l-188 -8q-10 18 -18 42q-7 20 -12 48.5t-5 63.5q0 89 54 139.5t147 50.5 q39 0 66.5 -9.5t48 -23.5t35.5 -30.5t27.5 -30.5t25 -23.5t28.5 -9.5q17 0 26 15t9 38q0 27 -16 54z" glyph-name="tilde" horiz-adv-x="659" unicode="˜"/><glyph d="M0 1096v211h506v-211h-506z" glyph-name="macron" horiz-adv-x="506" unicode="¯"/><glyph d="M709 1083q0 -65 -25 -123t-68.5 -101t-101.5 -68t-123 -25q-66 0 -124 25t-100.5 68t-67.5 101t-25 123q0 66 25 124t67.5 101t100.5 68t124 25q65 0 123 -25t101.5 -68t68.5 -101t25 -124zM494 1083q0 22 -8.5 41t-22.5 33t-33.5 22.5t-40.5 8.5t-40 -8.5t-33.5 -22.5 t-22.5 -33t-8 -41q0 -21 8 -40t22.5 -33.5t33.5 -22.5t40 -8t40.5 8t33.5 22.5t22.5 33.5t8.5 40z" glyph-name="degree" horiz-adv-x="782" unicode="°"/><glyph d="M350 1006l-350 217l166 209l295 -277z" glyph-name="grave" horiz-adv-x="461" unicode="`"/><glyph d="M0 1171l270 254l277 -254l-113 -143l-160 146l-151 -142z" glyph-name="circumflex" horiz-adv-x="547" unicode="ˆ"/><glyph d="M1321 717q0 -99 -25.5 -190.5t-72.5 -171t-112.5 -145t-145 -112.5t-171 -72.5t-190.5 -25.5h-432v588h-164v272h164v574h432q99 0 190.5 -25.5t171 -72.5t145 -112.5t112.5 -145t72.5 -171t25.5 -190.5zM627 860v-272h-166v-301h143q89 0 167.5 33.5t137 92t92 137 t33.5 167.5t-33.5 167t-92 136.5t-137 92.5t-167.5 34h-143v-287h166z" glyph-name="Eth" horiz-adv-x="1378" unicode="Ð"/><glyph d="M469 780l408 -370l-199 -222l-617 580l603 627l215 -203z" glyph-name="less" horiz-adv-x="979" unicode="&lt;"/><glyph d="M100 1192l215 203l603 -627l-617 -580l-199 222l408 370z" glyph-name="greater" horiz-adv-x="979" unicode="&gt;"/><glyph d="M809 1081l240 -256l-224 -198l-217 284l-225 -284l-215 198l219 254l-315 181l133 239l254 -133v336h286v-336l275 133l115 -250z" glyph-name="asterisk" horiz-adv-x="1208" unicode="*"/><glyph d="M180 782v652h287v-498l164 88v-272l-164 -88v-377h717v-287h-1004v510l-164 -86v272z" glyph-name="Lslash" horiz-adv-x="1200" unicode="Ł"/><glyph d="M184 782v715h275v-567l176 94v-272l-176 -95v-657h-275v510l-164 -86v272z" glyph-name="lslash" horiz-adv-x="655" unicode="ł"/><glyph d="M961 860l-3 -473h-272v201h-565v272h840z" glyph-name="logicalnot" horiz-adv-x="1085" unicode="¬"/><glyph d="M397 520l346 -315l-170 -189l-524 494l512 532l184 -172z" glyph-name="guilsinglleft" horiz-adv-x="827" unicode="‹"/><glyph d="M82 870l182 172l512 -532l-524 -494l-168 189l346 315z" glyph-name="guilsinglright" horiz-adv-x="825" unicode="›"/><glyph d="M397 520l346 -315l-170 -189l-524 494l512 532l184 -172zM1012 520l346 -315l-170 -189l-524 494l512 532l184 -172z" glyph-name="guillemotleft" horiz-adv-x="1442" unicode="«"/><glyph d="M82 870l182 172l512 -532l-524 -494l-168 189l346 315zM696 870l183 172l512 -532l-525 -494l-168 189l346 315z" glyph-name="guillemotright" horiz-adv-x="1440" unicode="»"/><glyph d="M926 860v-272h-840v272h840zM653 383q0 -30 -11 -56.5t-30.5 -46t-45.5 -31t-56 -11.5q-31 0 -58 11.5t-47 31t-31.5 46t-11.5 56.5t11.5 56.5t31.5 46t47 31t58 11.5q30 0 56 -11.5t45.5 -31t30.5 -46t11 -56.5zM653 1079q0 -30 -11 -56.5t-30.5 -46t-45.5 -31 t-56 -11.5q-31 0 -58 11.5t-47 31t-31.5 46t-11.5 56.5t11.5 56.5t31.5 46.5t47 31.5t58 11.5q30 0 56 -11.5t45.5 -31.5t30.5 -46.5t11 -56.5z" glyph-name="divide" horiz-adv-x="1012" unicode="÷"/><glyph d="M803 946q7 -20 12 -43q5 -20 8.5 -45t3.5 -53q0 -56 -16 -99.5t-44.5 -74t-67 -46.5t-83.5 -16q-50 0 -85 22t-62 48t-50 48t-50 22q-22 0 -34.5 -19.5t-12.5 -38.5q0 -21 7 -41.5t19 -40.5l-207 -8q-11 21 -20 47q-8 23 -13.5 54t-5.5 69q0 48 15.5 87t44.5 66t70 41.5 t92 14.5q42 0 72.5 -10.5t53 -25.5t39 -33.5t30.5 -33.5t27.5 -25.5t31.5 -10.5t28 16t10 41q0 16 -5 31t-13 29z" glyph-name="asciitilde" horiz-adv-x="924" unicode="~"/><glyph d="M0 1155l297 281l305 -281l-125 -158l-176 160l-166 -156z" glyph-name="asciicircum" horiz-adv-x="602" unicode="^"/><glyph d="M825 1130q7 -20 12 -43q5 -20 9 -45t4 -53q0 -55 -16 -98.5t-44.5 -74t-67 -46.5t-83.5 -16q-50 0 -85 21.5t-62 48t-50.5 48t-50.5 21.5q-22 0 -34.5 -19.5t-12.5 -37.5q0 -41 27 -82l-207 -9q-11 21 -20 47q-8 23 -13.5 54t-5.5 69q0 48 15.5 87t44.5 66t69.5 41.5 t91.5 14.5q42 0 72.5 -10.5t53 -25.5t39 -33.5t30.5 -33.5t28 -25.5t31 -10.5q19 0 29 16.5t10 40.5q0 16 -5 31t-13 29zM825 690q7 -20 12 -43q5 -20 9 -45t4 -53q0 -56 -16 -99.5t-44.5 -74t-67 -46.5t-83.5 -16q-50 0 -85 22t-62 48t-50.5 48t-50.5 22q-22 0 -34.5 -19.5 t-12.5 -38.5q0 -21 7 -41.5t20 -40.5l-207 -8q-11 21 -20 47q-8 23 -13.5 54t-5.5 69q0 48 15.5 87t44.5 66t69.5 41.5t91.5 14.5q42 0 72.5 -10.5t53 -25.5t39 -33.5t30.5 -33.5t28 -25.5t31 -10.5q19 0 29 16t10 41q0 16 -5 31t-13 29z" glyph-name="approxequal" horiz-adv-x="975" unicode="≈"/><glyph d="M379 655l53 138h-330v272h433l100 266h254l-101 -266h154v-272h-256l-53 -138h309v-272h-412l-112 -301h-254l112 301h-174v272h277z" glyph-name="notequal" horiz-adv-x="1049" unicode="≠"/><glyph d="M1315 1239q51 -50 92.5 -109.5t70.5 -126.5t44.5 -140.5t15.5 -151.5q0 -102 -26.5 -196.5t-74.5 -177t-116 -150.5t-150 -116.5t-177 -75t-197 -26.5q-94 0 -181 22t-165 64l-39 -55h-275l135 186q-100 103 -158.5 236.5t-58.5 288.5q0 102 26.5 197t75 177t116.5 150 t150.5 116t177 74.5t196.5 26.5q91 0 176.5 -22t161.5 -60l47 64h274zM1253 711q0 85 -28.5 160t-79.5 135l-522 -715q81 -35 174 -35q94 0 177.5 36t145 98t97.5 144.5t36 176.5zM340 711q0 -84 27.5 -157t76.5 -132l521 713q-41 15 -82 23.5t-86 8.5q-95 0 -178 -36 t-145 -97.5t-98 -145t-36 -177.5z" glyph-name="Oslash" horiz-adv-x="1593" unicode="Ø"/><glyph d="M1014 915q59 -72 92 -165t33 -205q0 -120 -43 -223.5t-117 -179t-173.5 -119t-213.5 -43.5q-65 0 -124.5 14t-113.5 39l-24 -33h-275l125 168q-63 75 -99 170t-36 207q0 122 43 226t117.5 179.5t174 118.5t212.5 43q68 0 131 -15.5t119 -43.5l24 32h275zM322 545 q0 -40 8.5 -76.5t23.5 -67.5l316 422q-19 6 -38.5 9.5t-39.5 3.5q-56 0 -105.5 -20.5t-86 -59t-57.5 -92t-21 -119.5zM864 545q0 72 -28 133l-310 -416q16 -5 32.5 -6.5t33.5 -1.5q56 0 105.5 21t86.5 59t58.5 92t21.5 119z" glyph-name="oslash" horiz-adv-x="1186" unicode="ø"/><glyph d="M1032 -205v-272h-839v272h839z" glyph-name="underscore" horiz-adv-x="1225" unicode="_"/><glyph d="M377 920h-103v413h-155v103h413v-103h-155v-413zM1112 920h-104v368q0 22 -14.5 36.5t-37.5 14.5q-21 0 -36 -14.5t-15 -36.5v-368h-102v368q0 22 -15 36.5t-38 14.5q-20 0 -36 -14.5t-16 -36.5v-368h-102v368q0 32 12 60.5t33 49.5t49 33.5t60 12.5q29 0 55.5 -10.5 t48.5 -30.5q22 20 48.5 30.5t53.5 10.5q32 0 60.5 -12.5t49.5 -33.5t33.5 -49.5t12.5 -60.5v-368z" glyph-name="trademark" horiz-adv-x="1243" unicode="™"/><glyph d="M381 1206v-178h88q37 0 63.5 26.5t26.5 63.5q0 18 -7 34t-19.5 28t-29 19t-34.5 7h-88zM381 854h-88v438h176q36 0 68 -13.5t56 -37.5t38 -55.5t14 -67.5q0 -46 -22 -86t-60 -63l47 -115h-90l-41 88l-98 -2v-86zM823 1073q0 -77 -29 -145t-79.5 -118.5t-118.5 -80 t-145 -29.5t-145 29.5t-118.5 80t-80 118.5t-29.5 145q0 78 29.5 146t80 118.5t118.5 79.5t145 29t145 -29t118.5 -79.5t79.5 -118.5t29 -146zM731 1071q0 58 -22 109.5t-60.5 89.5t-89.5 60t-108 22q-58 0 -109 -22t-89.5 -60t-60.5 -89.5t-22 -109.5q0 -57 22 -107.5 t60.5 -88.5t89.5 -60t109 -22q57 0 108 22t89.5 60t60.5 88.5t22 107.5z" glyph-name="registered" horiz-adv-x="901" unicode="®"/><glyph d="M905 440q-48 -42 -107 -64t-122 -22q-74 0 -139 28.5t-113.5 77t-76.5 113.5t-28 138t28 138t76.5 113.5t113.5 76.5t139 28q63 0 122 -22t107 -62l-71 -121q-31 32 -72 50t-86 18q-46 0 -86.5 -17.5t-70.5 -47t-47 -69.5t-17 -85t17 -85t47 -70t70.5 -47t86.5 -17 q45 0 86 17.5t72 49.5zM1253 717q0 -120 -45.5 -226t-124.5 -185t-185 -125t-226 -46t-226 46t-185 125t-125 185t-46 226t46 226t125 185t185 124.5t226 45.5t226 -45.5t185 -124.5t124.5 -185t45.5 -226zM1110 715q0 90 -34.5 170t-94 139.5t-139.5 94t-170 34.5 q-91 0 -171 -34.5t-139.5 -94t-94 -139.5t-34.5 -170t34.5 -169.5t94 -138.5t139.5 -93.5t171 -34.5q90 0 170 34.5t139.5 93.5t94 138.5t34.5 169.5z" glyph-name="copyright" horiz-adv-x="1343" unicode="©"/><glyph d="M772 793h-39l-63 88q-47 -42 -105 -71.5t-121 -29.5q-68 0 -127.5 23t-103.5 66.5t-70 106.5t-26 144q0 75 26 137.5t70 107.5t103.5 70t127.5 25q63 0 122 -29.5t104 -72.5l63 76h39v-641zM608 1120q0 33 -13 64.5t-35 55.5t-52 39t-64 15t-63.5 -11.5t-51 -33.5 t-34 -54.5t-12.5 -74.5t12.5 -75t34 -55.5t51 -34t63.5 -11.5t64 15t52 39.5t35 56t13 65.5zM774 645v-160h-657v160h657z" glyph-name="ordfeminine" horiz-adv-x="924" unicode="ª"/><glyph d="M770 1120q0 -72 -25.5 -134t-70 -108t-104 -72t-128.5 -26q-68 0 -127.5 26t-103.5 72t-70 108t-26 134q0 73 26 135.5t70 108t103.5 71t127.5 25.5q69 0 128.5 -24.5t104 -69t70 -107t25.5 -139.5zM606 1120q0 39 -13 71.5t-35.5 55t-52 35t-63.5 12.5t-63.5 -12.5 t-51 -35t-34 -55t-12.5 -71.5q0 -37 12.5 -69t34 -56t51 -37.5t63.5 -13.5t63.5 13t52 36t35.5 55.5t13 71.5zM772 645v-160h-657v160h657z" glyph-name="ordmasculine" horiz-adv-x="885" unicode="º"/><glyph d="M1958 0h-983v287h-572v-287h-286v860q0 119 45 223.5t122.5 182.5t182 123t223.5 45h1268v-287h-696l2 -287h469v-287h-469v-286h694v-287zM975 573v574h-285q-59 0 -111.5 -22.5t-91.5 -61.5t-61.5 -91.5t-22.5 -111.5v-287h572z" glyph-name="AE" horiz-adv-x="2025" unicode="Æ"/><glyph d="M1454 262q16 -5 32 -6.5t32 -1.5q40 0 77 11t69 31.5t57.5 50t41.5 65.5l201 -201q-38 -54 -87.5 -97t-107 -73t-121 -45.5t-130.5 -15.5q-112 0 -207.5 39t-169.5 110v-129h-66l-106 147q-39 -35 -82.5 -65.5t-91.5 -53t-98.5 -35.5t-102.5 -13q-113 0 -212.5 38 t-174 110.5t-117.5 177.5t-43 239q0 125 43 229.5t117.5 179.5t174 116.5t212.5 41.5q52 0 103 -13t99 -36t91.5 -54t81.5 -67l106 127h66v-104q74 71 169.5 109t207.5 38q67 0 131 -16t121.5 -46t107.5 -73.5t88 -97.5zM866 545q0 56 -21.5 108.5t-58.5 93t-86.5 65 t-105.5 24.5t-105.5 -19t-86 -56t-57.5 -91.5t-21 -124.5t21 -124.5t57.5 -91.5t86 -56t105.5 -19t105.5 24.5t86.5 65t58.5 93t21.5 108.5zM1593 825q-18 7 -36.5 9t-38.5 2q-56 0 -105.5 -20.5t-86.5 -58.5t-58 -91.5t-21 -120.5q0 -15 1.5 -34t5 -38.5t9 -37.5t13.5 -32z" glyph-name="ae" horiz-adv-x="1999" unicode="æ"/><glyph d="M1350 262q15 -5 31.5 -6.5t31.5 -1.5q40 0 77.5 11t69.5 31.5t57.5 50t41.5 65.5l201 -201q-39 -54 -88.5 -97t-107 -73t-121 -45.5t-130.5 -15.5q-124 0 -230 49t-182 137q-75 -87 -180 -136.5t-229 -49.5q-113 0 -212.5 43.5t-174 119t-117.5 179t-43 223.5 q0 122 43 226t117.5 179.5t174 118.5t212.5 43q124 0 230 -48t182 -134q75 86 180 134t229 48q67 0 131 -16t121.5 -46t107.5 -73.5t89 -97.5zM864 545q0 66 -21.5 119.5t-58.5 92t-86.5 59t-105.5 20.5t-105.5 -20.5t-86 -59t-57.5 -92t-21 -119.5q0 -62 21 -115t57.5 -92 t86 -61.5t105.5 -22.5t105.5 21t86.5 59t58.5 92t21.5 119zM1489 825q-19 7 -37.5 9t-38.5 2q-56 0 -105 -20.5t-86 -58.5t-58 -91.5t-21 -120.5q0 -15 1.5 -34t5 -38.5t8.5 -37.5t13 -32z" glyph-name="oe" horiz-adv-x="1894" unicode="œ"/><glyph d="M2238 0h-983v127q-96 -74 -212 -116t-246 -42q-102 0 -196.5 26.5t-177 75t-150.5 116.5t-116.5 150.5t-75 177t-26.5 196.5t26.5 197t75 177t116.5 150t150.5 116t177 74.5t196.5 26.5q130 0 246 -42t212 -118v142h983v-287h-696v-287h471v-287h-471v-286h696v-287z M1253 711q0 94 -36 177.5t-97.5 145t-145 97.5t-177.5 36q-95 0 -178 -36t-145 -97.5t-98 -145t-36 -177.5t36 -176.5t98 -144.5t145 -98t178 -36q94 0 177.5 36t145 98t97.5 144.5t36 176.5z" glyph-name="OE" horiz-adv-x="2306" unicode="Œ"/><glyph d="M1509 0h-286v1147h-244v-1147h-287v287h-41q-118 0 -222.5 45t-182.5 123t-123 182.5t-45 222.5q0 79 20.5 152t58.5 137t91 116.5t118 90t140.5 58t157.5 20.5v2l845 -2v-1434zM651 1147q-59 0 -111 -22.5t-91 -61.5t-61.5 -91.5t-22.5 -111.5t22.5 -111.5t61.5 -91.5 t91 -61.5t111 -22.5h41v574h-41z" glyph-name="paragraph" horiz-adv-x="1655" unicode="¶"/><glyph d="M547 0h-287v1147h-184v287h1147v-287h-187v-1147h-286v1147h-203v-1147z" glyph-name="product" horiz-adv-x="1296" unicode="∏"/><glyph d="M477 0h-274v797h-166v274h1065v-274h-168v-797h-275v797h-182v-797z" glyph-name="pi" horiz-adv-x="1137" unicode="π"/><glyph d="M666 0v272h645q28 0 47.5 20t19.5 48q0 29 -19.5 38t-47.5 9h-387q-71 0 -133 27t-108 73.5t-72.5 108.5t-26.5 133t26.5 133t72.5 108t108 72.5t133 26.5q14 0 36 4.5t42.5 18t35.5 39t15 67.5q0 37 -15 61.5t-35.5 39.5t-42.5 21.5t-36 6.5h-267q-44 0 -81.5 -15.5 t-65 -43t-43.5 -65t-16 -81.5v-1122h-273v799h-133v272h133v51q0 99 37.5 186t103 151.5t152.5 102t186 37.5h267q40 0 85 -10t89.5 -30.5t85.5 -53t72.5 -77t50 -102t18.5 -128.5q0 -75 -18.5 -134t-50 -103.5t-72.5 -75.5t-85.5 -50.5t-89.5 -28.5t-85 -9q-28 0 -48 -20 t-20 -48q0 -29 20 -49.5t48 -20.5h387q70 0 131.5 -23.5t108 -65.5t73.5 -101t27 -129q0 -71 -27 -132.5t-73.5 -108t-108 -73t-131.5 -26.5h-645z" glyph-name="germandbls" horiz-adv-x="1667" unicode="ß"/><glyph d="M666 377h-273v211h-284v272h284v234h273v-234h282v-272h-282v-211zM948 274v-272h-839v272h839z" glyph-name="plusminus" horiz-adv-x="1057" unicode="±"/><glyph d="M778 1559q109 -177 194 -357q36 -77 71 -161.5t62.5 -170.5t44.5 -170.5t17 -160.5h-2q-2 -119 -45 -221.5t-117 -177.5t-173 -117.5t-212 -42.5t-212.5 43.5t-173.5 119t-117 179t-43 223.5q0 122 43 224t117 176t173.5 115.5t212.5 41.5q12 0 27 -0.5t30.5 -3.5 t30 -8.5t25.5 -14.5q-24 49 -55.5 106.5t-69 119.5t-80 127.5t-88.5 130.5h340zM891 545q0 66 -21.5 119.5t-58.5 92t-87 59t-106 20.5t-105 -20.5t-86 -59t-58 -92t-21 -119.5q0 -62 21 -115t58 -92t86 -61.5t105 -22.5t106 21t87 59t58.5 92t21.5 119z" glyph-name="partialdiff" horiz-adv-x="1249" unicode="∂"/><glyph d="M496 1436q-20 31 -41.5 61.5t-42.5 61.5h340q8 -15 19 -33q9 -16 22 -39t30 -51h283v-232h-162q37 -77 72 -162t63 -171t45 -171t17 -161h-2q-2 -119 -45 -221.5t-117 -177.5t-173 -117.5t-212 -42.5t-212.5 43.5t-174 119t-117.5 179t-43 223.5q0 122 43 224t117.5 176 t174 115.5t212.5 41.5q12 0 27 -0.5t30.5 -3.5t30 -8.5t25.5 -14.5l-68 129h-371v232h230zM864 545q0 66 -21.5 119.5t-58.5 92t-86.5 59t-105.5 20.5t-105.5 -20.5t-86 -59t-57.5 -92t-21 -119.5q0 -62 21 -115t57.5 -92t86 -61.5t105.5 -22.5t105.5 21t86.5 59t58.5 92 t21.5 119z" glyph-name="eth" horiz-adv-x="1190" unicode="ð"/><glyph d="M68 141q0 89 33.5 167.5t92 137t137 92t167.5 33.5q31 0 54 11t39 30.5t24 46t8 56.5v76h286v-80q-1 -89 -31.5 -166.5t-85 -135t-129.5 -91t-165 -33.5q-30 0 -56.5 -11.5t-46 -31t-30.5 -45.5t-11 -56t11 -56t30.5 -45.5t46 -30.5t56.5 -11h657v-287h-657 q-89 0 -167.5 34t-137 92.5t-92 136.5t-33.5 167zM594 1042q0 36 13.5 67.5t36.5 55t54 36.5t66 13t66.5 -13t55 -36.5t37 -55t13.5 -67.5q0 -35 -13.5 -65.5t-37 -54t-55 -37t-66.5 -13.5t-66 13.5t-54 37t-36.5 54t-13.5 65.5z" glyph-name="questiondown" horiz-adv-x="1233" unicode="¿"/><glyph d="M170 791h223l62 -1080h-346zM111 1042q0 36 13 67.5t36 55t54 36.5t67 13q35 0 66.5 -13t55 -36.5t37 -55t13.5 -67.5q0 -35 -13.5 -65.5t-37 -54t-55 -37t-66.5 -13.5q-36 0 -67 13.5t-54 37t-36 54t-13 65.5z" glyph-name="exclamdown" horiz-adv-x="563" unicode="¡"/><glyph d="M788 373q-20 -37 -54 -65t-74.5 -46.5t-84 -27.5t-83.5 -9q-84 0 -158 34.5t-129 95.5t-87 145t-32 182q0 99 32 183t87 145.5t129 96t158 34.5q40 0 82 -12.5t81.5 -34t74.5 -50.5t63 -61q25 37 59.5 65t73.5 47.5t81 29.5t83 10q84 0 157.5 -34.5t128.5 -95.5t87 -145 t32 -182q0 -99 -32 -183t-87 -145.5t-128.5 -96t-157.5 -34.5q-41 0 -83 12.5t-81.5 33.5t-74.5 49t-63 59zM1090 500q34 0 60 16t43 41.5t25.5 56.5t8.5 62q0 40 -13.5 73t-36 55.5t-53.5 35t-65 12.5q-69 0 -107.5 -36.5t-38.5 -98.5q0 -34 14.5 -72t39 -70.5t56.5 -53.5 t67 -21zM471 860q-21 0 -42 -12t-37.5 -35t-27 -55.5t-10.5 -73.5t13.5 -73.5t36 -55.5t53 -35t65.5 -12q42 0 70.5 10t45 26t23.5 36.5t7 42.5q0 49 -18 92t-46 75.5t-63.5 51t-69.5 18.5z" glyph-name="infinity" horiz-adv-x="1581" unicode="∞"/><glyph d="M401 1008q43 98 112 180t157.5 141t192.5 92t218 33q133 0 257.5 -45.5t224.5 -132.5l-152 -250q-63 68 -149.5 104.5t-180.5 36.5q-105 0 -195 -43.5t-153 -115.5h303l-55 -252h-354q-2 -11 -2 -22.5v-22.5v-26.5t2 -25.5h334l-56 -251h-164q63 -72 150.5 -112 t189.5 -40q94 0 180.5 36.5t149.5 104.5l152 -250q-100 -86 -224.5 -132t-257.5 -46q-113 0 -216 32.5t-190.5 90.5t-156.5 138.5t-112 177.5h-338l55 251h219q-2 13 -2 25.5v26.5v45h-197l56 252h202z" glyph-name="Euro" horiz-adv-x="1651" unicode="€"/><glyph d="M467 1096q0 89 -25 131.5t-73 42.5q-47 0 -72 -42.5t-25 -131.5q0 -88 25 -131t72 -43q48 0 73 43t25 131zM657 1096q0 -100 -22.5 -169.5t-61.5 -112.5t-91.5 -62t-112.5 -19q-61 0 -113.5 20t-91.5 63.5t-61.5 112.5t-22.5 167q0 100 22.5 169t61.5 112t91.5 62 t113.5 19q60 0 112.5 -19.5t91.5 -62.5t61.5 -112t22.5 -168zM426 0h-217l788 1434h217zM1145 342q0 90 -25 132t-73 42q-47 0 -72 -42t-25 -132q0 -87 25 -129.5t72 -42.5q48 0 73 42.5t25 129.5zM1335 342q0 -100 -22.5 -169t-61.5 -112t-91.5 -62t-112.5 -19 q-61 0 -113.5 19.5t-91.5 63t-61.5 112.5t-22.5 167q0 100 22.5 169t61.5 112t91.5 62.5t113.5 19.5q60 0 112.5 -19.5t91.5 -63t61.5 -112.5t22.5 -168zM1784 342q0 90 -25 132t-73 42q-47 0 -72 -42t-25 -132q0 -87 25 -129.5t72 -42.5q48 0 73 42.5t25 129.5zM1974 342 q0 -100 -22.5 -169t-61.5 -112t-91.5 -62t-112.5 -19q-61 0 -113.5 19.5t-91.5 63t-61.5 112.5t-22.5 167q0 100 22.5 169t61.5 112t91.5 62.5t113.5 19.5q60 0 112.5 -19.5t91.5 -63t61.5 -112.5t22.5 -168z" glyph-name="perthousand" horiz-adv-x="2044" unicode="‰"/><glyph d="M397 479q0 -54 16 -96.5t44 -71.5t66 -44t81 -15q42 0 79.5 19.5t65.5 51.5t44 72.5t16 83.5v592h272v-1071h-65l-90 125q-33 -30 -70.5 -56.5t-78.5 -46t-84.5 -31t-88.5 -11.5q-65 0 -125 15t-112 44l-29 -490h-213v1522h272v-592z" glyph-name="mu" horiz-adv-x="1171" unicode="µ"/><glyph d="M383 532q-71 34 -125 85t-90 113t-54 132t-18 142v430h287v-430q0 -59 22.5 -111.5t61.5 -91.5t91.5 -61.5t111.5 -22.5t111 22.5t91 61.5t61.5 91.5t22.5 111.5v430h287v-430q0 -72 -19.5 -144.5t-56.5 -136t-90.5 -113.5t-122.5 -78h238v-272h-379v-260h-287v260h-379 v272h236z" glyph-name="yen" horiz-adv-x="1339" unicode="¥"/><glyph d="M1024 780h-129l-43 -153h131l-59 -207h-131l-50 -189h-235l51 189h-127l-51 -189h-236l54 189h-131l59 207h129l43 153h-131l57 207h131l54 195h233l-53 -195h127l55 195h234l-56 -195h131zM532 780l-43 -153h129l44 153h-130z" glyph-name="numbersign" horiz-adv-x="1149" unicode="#"/><glyph d="M39 872h151q43 0 66.5 19.5t34.5 43.5q12 28 14 64v353q0 61 23 113.5t62.5 91t92 60t111.5 21.5h287v-286h-287v-359q0 -37 -7 -68t-19 -56.5t-27 -46t-31 -35.5q-37 -37 -84 -58q47 -20 84 -59q16 -17 31 -39t27 -50.5t19 -64t7 -78.5v-356h287v-287h-287 q-56 0 -108.5 22t-92.5 60.5t-64 91t-24 113.5v356q1 55 -16.5 85t-39.5 44q-26 16 -59 19h-151v286z" glyph-name="braceleft" horiz-adv-x="956" unicode="{"/><glyph d="M918 586h-152q-33 -3 -59 -19q-11 -7 -21.5 -17.5t-18.5 -26t-12.5 -36.5t-3.5 -49v-356q0 -61 -24 -113.5t-64 -91t-92.5 -60.5t-108.5 -22h-286v287h286v356q0 43 7 78.5t19 64t27 50.5t31 39q37 39 84 59q-47 21 -84 58q-16 15 -31 35.5t-27 46t-19 56.5t-7 68v359 h-286v286h286q59 0 111.5 -21.5t92 -60t62.5 -91t23 -113.5v-353q2 -36 14 -64q11 -24 34 -43.5t67 -19.5h152v-286z" glyph-name="braceright" horiz-adv-x="956" unicode="}"/><glyph d="M393 354h-223l-61 1080h346zM453 102q0 -36 -13.5 -67.5t-36.5 -54.5t-54 -36.5t-66 -13.5q-36 0 -67 13.5t-54.5 36.5t-37 54.5t-13.5 67.5q0 35 13.5 66t37 54t54.5 36.5t67 13.5q35 0 66 -13.5t54 -36.5t36.5 -54t13.5 -66z" glyph-name="exclam" horiz-adv-x="563" unicode="!"/><glyph d="M1167 1004q0 -89 -33.5 -167.5t-92 -137t-137 -92.5t-167.5 -34q-31 0 -54.5 -11t-39 -30.5t-23.5 -45.5t-8 -56v-76h-286v80q1 88 31.5 166t85 135.5t129.5 91t165 33.5q30 0 56 11t45.5 30.5t31 46t11.5 56.5t-11.5 56t-31 45.5t-45.5 30.5t-56 11h-657v287h657 q89 0 167.5 -34t137 -92.5t92 -136.5t33.5 -167zM641 102q0 -36 -13.5 -67.5t-36.5 -54.5t-54 -36.5t-66 -13.5t-66.5 13.5t-55 36.5t-37 54.5t-13.5 67.5q0 35 13.5 66t37 54t55 36.5t66.5 13.5t66 -13.5t54 -36.5t36.5 -54t13.5 -66z" glyph-name="question" horiz-adv-x="1235" unicode="?"/><glyph d="M49 1004q0 89 34 167t92.5 136.5t136.5 92.5t167 34h658v-287h-658q-30 0 -56 -11t-45.5 -30.5t-30.5 -45.5t-11 -56t11 -56.5t30.5 -46t45.5 -30.5t56 -11h287q89 0 167.5 -33.5t137 -92t92 -137t33.5 -167.5t-33.5 -167t-92 -136.5t-137 -92.5t-167.5 -34h-637v287h637 q30 0 56 11t45.5 30.5t30.5 45.5t11 56t-11 56t-30.5 45.5t-45.5 30.5t-56 11h-287q-89 0 -167 34t-136.5 92.5t-92.5 137t-34 167.5zM629 1520l-281 254l113 143l161 -146l150 140l123 -135z" glyph-name="Scaron" horiz-adv-x="1251" unicode="Š"/><glyph d="M692 0h-624v272h624q28 0 48 20t20 48q0 29 -20 38t-48 9h-284q-71 0 -133 27t-108 73.5t-72.5 108.5t-26.5 133t26.5 133t72.5 108t108 72.5t133 26.5h553v-272h-553q-28 0 -48 -20t-20 -48q0 -29 20 -49.5t48 -20.5h284q70 0 132 -23.5t108 -65.5t73 -101t27 -129 q0 -71 -27 -132.5t-73 -108t-108 -73t-132 -26.5zM568 1151l-281 254l113 143l161 -146l150 140l123 -135z" glyph-name="scaron" horiz-adv-x="1073" unicode="š"/><glyph d="M778 0h-286v449q-95 24 -174.5 77t-136.5 126.5t-88.5 163t-31.5 188.5v430h287v-430q0 -59 22.5 -111.5t61.5 -91.5t91.5 -61.5t111.5 -22.5t111.5 22.5t91.5 61.5t61.5 91.5t22.5 111.5v430h286v-430q0 -99 -31.5 -188.5t-88.5 -163t-136 -126.5t-174 -77v-449z M641 1493l-113 149l297 277l164 -209z" glyph-name="Yacute" horiz-adv-x="1270" unicode="Ý"/><glyph d="M362 -408v275l152 -2q40 0 77 13t68.5 36t55.5 54.5t39 68.5q-45 -19 -91.5 -38t-93.5 -19q-99 0 -186 35t-152.5 99.5t-103 157t-37.5 207.5v592h272v-592q0 -57 16.5 -99.5t44.5 -71t65.5 -42.5t80.5 -14q42 0 79.5 19.5t65.5 51.5t44 72.5t16 83.5v592h275v-936 q-1 -113 -44 -212t-117.5 -173t-173.5 -117t-212 -43zM570 1131l-113 149l297 277l164 -209z" glyph-name="yacute" horiz-adv-x="1153" unicode="ý"/><glyph d="M1157 0h-1110l612 1147h-612v287h1110l-610 -1147h610v-287zM609 1514l-281 254l113 143l161 -146l150 140l123 -135z" glyph-name="Zcaron" horiz-adv-x="1202" unicode="Ž"/><glyph d="M940 0h-893l451 797h-451v272h893l-451 -797h451v-272zM500 1151l-281 254l113 143l161 -146l150 140l123 -135z" glyph-name="zcaron" horiz-adv-x="987" unicode="ž"/><glyph d="M977 573v287q0 59 -22.5 111.5t-61.5 91.5t-91.5 61.5t-111.5 22.5t-111.5 -22.5t-91.5 -61.5t-61.5 -91.5t-22.5 -111.5v-287h574zM1264 0h-287v287h-574v-287h-286v860q0 119 45 223.5t122.5 182.5t182 123t223.5 45t223.5 -45t182.5 -123t123 -182.5t45 -223.5v-860z M997 1618q0 -26 -9.5 -49t-26 -40.5t-39 -27.5t-47.5 -10q-26 0 -49.5 10t-40.5 27.5t-27 40.5t-10 49q0 25 10 48t27 40t40.5 27t49.5 10q25 0 47.5 -10t39 -27t26 -40t9.5 -48zM637 1620q0 -27 -10 -50.5t-27.5 -41t-40.5 -27.5t-49 -10t-49.5 10t-41 27.5t-28 41 t-10.5 50.5q0 26 10.5 49t28 40.5t41 27.5t49.5 10t49 -10t40.5 -27.5t27.5 -40.5t10 -49z" glyph-name="Adieresis" unicode="Ä"/><glyph d="M887 1565q0 -45 -17.5 -82.5t-48.5 -65.5q95 -22 176 -73.5t140.5 -125t93 -165t33.5 -193.5v-860h-287v287h-574v-287h-286v860q0 101 33 192.5t91.5 165t139.5 125.5t176 74q-31 28 -48 65.5t-17 82.5q0 40 15.5 76t42.5 63t62.5 43t75.5 16q42 0 78 -16t63 -43 t42.5 -63t15.5 -76zM977 573v287q0 59 -22.5 111.5t-61.5 91.5t-91.5 61.5t-111.5 22.5t-111.5 -22.5t-91.5 -61.5t-61.5 -91.5t-22.5 -111.5v-287h574zM754 1565q0 28 -19 47.5t-47 19.5t-45.5 -19.5t-17.5 -47.5q0 -26 17.5 -45t45.5 -19t47 19t19 45z" glyph-name="Aring" unicode="Å"/><glyph d="M637 -461q-36 2 -69 15t-59 28q-30 18 -56 39l55 150q23 -17 46 -29q20 -11 41 -20t38 -9q22 0 36.5 14t14.5 37q0 28 -21.5 40t-46.5 12q-32 0 -57 -17l68 191q-123 28 -228 95t-181.5 162.5t-119.5 213.5t-43 250q0 102 26.5 197t75 177.5t116.5 150.5t150.5 116.5 t177 75t196.5 26.5q133 0 257 -45.5t224 -132.5l-152 -250q-63 68 -149 104.5t-180 36.5q-95 0 -178 -36t-145 -97.5t-98 -145t-36 -177.5t36 -176.5t98 -144.5t145 -98t178 -36q94 0 180 36.5t149 104.5l152 -250q-100 -86 -224 -132t-257 -46q-14 0 -27 1t-27 1l-16 -49 q31 -4 59 -18t48.5 -36.5t32.5 -53t12 -66.5q0 -50 -17 -89t-47 -65.5t-71.5 -40.5t-90.5 -14h-16z" glyph-name="Ccedilla" horiz-adv-x="1311" unicode="Ç"/><glyph d="M1116 0h-983v1434h983v-287h-696v-287h471v-287h-471v-286h696v-287zM635 1518l-113 149l297 277l164 -209z" glyph-name="Eacute" horiz-adv-x="1184" unicode="É"/><glyph d="M1280 0h-307l-553 944v-944h-287v1434h307l553 -945v945h287v-1434zM1014 1870q6 -18 11 -39q4 -18 7.5 -41t3.5 -49q0 -50 -15 -89.5t-40.5 -67t-61 -42t-75.5 -14.5q-45 0 -77 19.5t-56.5 43t-46 43t-45.5 19.5q-19 0 -31 -17t-12 -34q0 -20 6.5 -38.5t17.5 -35.5 l-188 -8q-10 18 -18 42q-7 20 -12 48.5t-5 63.5q0 89 54 139.5t147 50.5q39 0 66.5 -9.5t48 -23.5t35.5 -30.5t27.5 -30.5t25 -23.5t28.5 -9.5q17 0 26 15t9 38q0 27 -16 54z" glyph-name="Ntilde" horiz-adv-x="1413" unicode="Ñ"/><glyph d="M1538 711q0 -102 -26.5 -196.5t-74.5 -177t-116 -150.5t-150 -116.5t-177 -75t-197 -26.5t-196.5 26.5t-177 75t-150.5 116.5t-116.5 150.5t-75 177t-26.5 196.5t26.5 197t75 177t116.5 150t150.5 116t177 74.5t196.5 26.5t197 -26.5t177 -74.5t150 -116t116 -150 t74.5 -177t26.5 -197zM1253 711q0 94 -36 177.5t-97.5 145t-145 97.5t-177.5 36q-95 0 -178 -36t-145 -97.5t-98 -145t-36 -177.5t36 -176.5t98 -144.5t145 -98t178 -36q94 0 177.5 36t145 98t97.5 144.5t36 176.5zM1103 1640q0 -26 -9.5 -49t-26 -40.5t-39 -27.5t-47.5 -10 q-26 0 -49.5 10t-40.5 27.5t-27 40.5t-10 49q0 25 10 48t27 40t40.5 27t49.5 10q25 0 47.5 -10t39 -27t26 -40t9.5 -48zM743 1642q0 -27 -10 -50.5t-27.5 -41t-40.5 -27.5t-49 -10t-49.5 10t-41 27.5t-28 41t-10.5 50.5q0 26 10.5 49t28 40.5t41 27.5t49.5 10t49 -10 t40.5 -27.5t27.5 -40.5t10 -49z" glyph-name="Odieresis" horiz-adv-x="1593" unicode="Ö"/><glyph d="M1264 573q0 -119 -45 -223.5t-123 -182t-182.5 -122.5t-223.5 -45t-223.5 45t-182 122.5t-122.5 182t-45 223.5v861h286v-861q0 -59 22.5 -111t61.5 -91t91.5 -61.5t111.5 -22.5t111.5 22.5t91.5 61.5t61.5 91t22.5 111v861h287v-861zM997 1624q0 -26 -9.5 -49t-26 -40.5 t-39 -27.5t-47.5 -10q-26 0 -49.5 10t-40.5 27.5t-27 40.5t-10 49q0 25 10 48t27 40t40.5 27t49.5 10q25 0 47.5 -10t39 -27t26 -40t9.5 -48zM637 1626q0 -27 -10 -50.5t-27.5 -41t-40.5 -27.5t-49 -10t-49.5 10t-41 27.5t-28 41t-10.5 50.5q0 26 10.5 49t28 40.5t41 27.5 t49.5 10t49 -10t40.5 -27.5t27.5 -40.5t10 -49z" glyph-name="Udieresis" unicode="Ü"/><glyph d="M1141 0h-66l-106 147q-39 -35 -82.5 -65.5t-91.5 -53t-98.5 -35.5t-102.5 -13q-113 0 -212.5 38t-174 110.5t-117.5 177.5t-43 239q0 125 43 229.5t117.5 179.5t174 116.5t212.5 41.5q52 0 103 -13t99 -36t91.5 -54t81.5 -67l106 127h66v-1069zM866 545q0 56 -21.5 108.5 t-58.5 93t-86.5 65t-105.5 24.5t-105.5 -19t-86 -56t-57.5 -91.5t-21 -124.5t21 -124.5t57.5 -91.5t86 -56t105.5 -19t105.5 24.5t86.5 65t58.5 93t21.5 108.5zM590 1192l-113 149l297 277l164 -209z" glyph-name="aacute" horiz-adv-x="1245" unicode="á"/><glyph d="M1141 0h-66l-106 147q-39 -35 -82.5 -65.5t-91.5 -53t-98.5 -35.5t-102.5 -13q-113 0 -212.5 38t-174 110.5t-117.5 177.5t-43 239q0 125 43 229.5t117.5 179.5t174 116.5t212.5 41.5q52 0 103 -13t99 -36t91.5 -54t81.5 -67l106 127h66v-1069zM866 545q0 56 -21.5 108.5 t-58.5 93t-86.5 65t-105.5 24.5t-105.5 -19t-86 -56t-57.5 -91.5t-21 -124.5t21 -124.5t57.5 -91.5t86 -56t105.5 -19t105.5 24.5t86.5 65t58.5 93t21.5 108.5zM592 1194l-350 217l166 209l295 -277z" glyph-name="agrave" horiz-adv-x="1245" unicode="à"/><glyph d="M1141 0h-66l-106 147q-39 -35 -82.5 -65.5t-91.5 -53t-98.5 -35.5t-102.5 -13q-113 0 -212.5 38t-174 110.5t-117.5 177.5t-43 239q0 125 43 229.5t117.5 179.5t174 116.5t212.5 41.5q52 0 103 -13t99 -36t91.5 -54t81.5 -67l106 127h66v-1069zM866 545q0 56 -21.5 108.5 t-58.5 93t-86.5 65t-105.5 24.5t-105.5 -19t-86 -56t-57.5 -91.5t-21 -124.5t21 -124.5t57.5 -91.5t86 -56t105.5 -19t105.5 24.5t86.5 65t58.5 93t21.5 108.5zM319 1312l270 254l277 -254l-113 -143l-160 146l-151 -142z" glyph-name="acircumflex" horiz-adv-x="1245" unicode="â"/><glyph d="M1141 0h-66l-106 147q-39 -35 -82.5 -65.5t-91.5 -53t-98.5 -35.5t-102.5 -13q-113 0 -212.5 38t-174 110.5t-117.5 177.5t-43 239q0 125 43 229.5t117.5 179.5t174 116.5t212.5 41.5q52 0 103 -13t99 -36t91.5 -54t81.5 -67l106 127h66v-1069zM866 545q0 56 -21.5 108.5 t-58.5 93t-86.5 65t-105.5 24.5t-105.5 -19t-86 -56t-57.5 -91.5t-21 -124.5t21 -124.5t57.5 -91.5t86 -56t105.5 -19t105.5 24.5t86.5 65t58.5 93t21.5 108.5zM901 1298q0 -26 -9.5 -49t-26 -40.5t-39 -27.5t-47.5 -10q-26 0 -49.5 10t-40.5 27.5t-27 40.5t-10 49 q0 25 10 48t27 40t40.5 27t49.5 10q25 0 47.5 -10t39 -27t26 -40t9.5 -48zM541 1300q0 -27 -10 -50.5t-27.5 -41t-40.5 -27.5t-49 -10t-49.5 10t-41 27.5t-28 41t-10.5 50.5q0 26 10.5 49t28 40.5t41 27.5t49.5 10t49 -10t40.5 -27.5t27.5 -40.5t10 -49z" glyph-name="adieresis" horiz-adv-x="1245" unicode="ä"/><glyph d="M1141 0h-66l-106 147q-39 -35 -82.5 -65.5t-91.5 -53t-98.5 -35.5t-102.5 -13q-113 0 -212.5 38t-174 110.5t-117.5 177.5t-43 239q0 125 43 229.5t117.5 179.5t174 116.5t212.5 41.5q52 0 103 -13t99 -36t91.5 -54t81.5 -67l106 127h66v-1069zM866 545q0 56 -21.5 108.5 t-58.5 93t-86.5 65t-105.5 24.5t-105.5 -19t-86 -56t-57.5 -91.5t-21 -124.5t21 -124.5t57.5 -91.5t86 -56t105.5 -19t105.5 24.5t86.5 65t58.5 93t21.5 108.5zM901 1523q6 -18 11 -39q4 -18 7.5 -41t3.5 -49q0 -50 -15 -89.5t-40.5 -67t-61 -42t-75.5 -14.5q-45 0 -77 19.5 t-56.5 43t-46 43t-45.5 19.5q-19 0 -31 -17t-12 -34q0 -20 6.5 -38.5t17.5 -35.5l-188 -8q-10 18 -18 42q-7 20 -12 48.5t-5 63.5q0 89 54 139.5t147 50.5q39 0 66.5 -9.5t48 -23.5t35.5 -30.5t27.5 -30.5t25 -23.5t28.5 -9.5q17 0 26 15t9 38q0 27 -16 54z" glyph-name="atilde" horiz-adv-x="1245" unicode="ã"/><glyph d="M1141 0h-66l-106 147q-39 -35 -82.5 -65.5t-91.5 -53t-98.5 -35.5t-102.5 -13q-113 0 -212.5 38t-174 110.5t-117.5 177.5t-43 239q0 125 43 229.5t117.5 179.5t174 116.5t212.5 41.5q52 0 103 -13t99 -36t91.5 -54t81.5 -67l106 127h66v-1069zM866 545q0 56 -21.5 108.5 t-58.5 93t-86.5 65t-105.5 24.5t-105.5 -19t-86 -56t-57.5 -91.5t-21 -124.5t21 -124.5t57.5 -91.5t86 -56t105.5 -19t105.5 24.5t86.5 65t58.5 93t21.5 108.5zM790 1386q0 -41 -15.5 -76.5t-42.5 -62t-63 -42t-77 -15.5q-40 0 -76 15.5t-63 42t-42.5 62t-15.5 76.5t15.5 77 t42.5 63t63 43t76 16q41 0 77 -16t63 -43t42.5 -63t15.5 -77zM657 1386q0 28 -19 48t-46 20q-28 0 -46 -20t-18 -48q0 -26 18 -44.5t46 -18.5q27 0 46 18.5t19 44.5z" glyph-name="aring" horiz-adv-x="1245" unicode="å"/><glyph d="M514 -461q-36 2 -69 15t-59 28q-30 18 -56 39l55 150q23 -17 46 -29q20 -11 41 -20t38 -9q22 0 36.5 14t14.5 37q0 28 -21.5 40t-45.5 12q-32 0 -58 -17l66 189q-97 15 -180.5 63t-145 119t-96.5 162t-35 192q0 123 43 230t117.5 186.5t174 125.5t212.5 46 q67 0 131.5 -17t123 -49.5t108 -79.5t85.5 -108l-200 -201q-15 42 -41 75.5t-58.5 56.5t-70.5 35t-78 12q-56 0 -105.5 -23t-86 -64.5t-57.5 -98.5t-21 -126q0 -56 21 -105t57.5 -86t86 -58t105.5 -21q40 0 77 11t69.5 31.5t58 50t41.5 65.5l200 -201q-36 -51 -81.5 -92 t-98.5 -70t-112 -46t-121 -21l-21 -60q31 -4 59 -18t48.5 -36.5t32.5 -53t12 -66.5q0 -50 -17 -89t-47 -65.5t-71.5 -40.5t-90.5 -14h-16z" glyph-name="ccedilla" horiz-adv-x="1069" unicode="ç"/><glyph d="M530 262q16 -5 32 -6.5t32 -1.5q40 0 77 11t69.5 31.5t58 50t41.5 65.5l200 -201q-38 -54 -87.5 -97t-107 -73t-121 -45.5t-130.5 -15.5q-113 0 -212.5 42t-174 117t-117.5 178.5t-43 227.5q0 127 43 232t117.5 179t174 115t212.5 41q67 0 131 -16t121.5 -46t107.5 -73.5 t88 -97.5zM670 825q-19 7 -37.5 9t-38.5 2q-56 0 -105.5 -20.5t-86 -58.5t-57.5 -91.5t-21 -120.5q0 -15 1.5 -34t5 -38.5t8.5 -37.5t13 -32zM586 1194l-113 149l297 277l164 -209z" glyph-name="eacute" horiz-adv-x="1075" unicode="é"/><glyph d="M530 262q16 -5 32 -6.5t32 -1.5q40 0 77 11t69.5 31.5t58 50t41.5 65.5l200 -201q-38 -54 -87.5 -97t-107 -73t-121 -45.5t-130.5 -15.5q-113 0 -212.5 42t-174 117t-117.5 178.5t-43 227.5q0 127 43 232t117.5 179t174 115t212.5 41q67 0 131 -16t121.5 -46t107.5 -73.5 t88 -97.5zM670 825q-19 7 -37.5 9t-38.5 2q-56 0 -105.5 -20.5t-86 -58.5t-57.5 -91.5t-21 -120.5q0 -15 1.5 -34t5 -38.5t8.5 -37.5t13 -32zM571 1192l-350 217l166 209l295 -277z" glyph-name="egrave" horiz-adv-x="1075" unicode="è"/><glyph d="M530 262q16 -5 32 -6.5t32 -1.5q40 0 77 11t69.5 31.5t58 50t41.5 65.5l200 -201q-38 -54 -87.5 -97t-107 -73t-121 -45.5t-130.5 -15.5q-113 0 -212.5 42t-174 117t-117.5 178.5t-43 227.5q0 127 43 232t117.5 179t174 115t212.5 41q67 0 131 -16t121.5 -46t107.5 -73.5 t88 -97.5zM670 825q-19 7 -37.5 9t-38.5 2q-56 0 -105.5 -20.5t-86 -58.5t-57.5 -91.5t-21 -120.5q0 -15 1.5 -34t5 -38.5t8.5 -37.5t13 -32zM270 1325l270 254l277 -254l-113 -143l-160 146l-151 -142z" glyph-name="ecircumflex" horiz-adv-x="1075" unicode="ê"/><glyph d="M530 262q16 -5 32 -6.5t32 -1.5q40 0 77 11t69.5 31.5t58 50t41.5 65.5l200 -201q-38 -54 -87.5 -97t-107 -73t-121 -45.5t-130.5 -15.5q-113 0 -212.5 42t-174 117t-117.5 178.5t-43 227.5q0 127 43 232t117.5 179t174 115t212.5 41q67 0 131 -16t121.5 -46t107.5 -73.5 t88 -97.5zM670 825q-19 7 -37.5 9t-38.5 2q-56 0 -105.5 -20.5t-86 -58.5t-57.5 -91.5t-21 -120.5q0 -15 1.5 -34t5 -38.5t8.5 -37.5t13 -32zM852 1312q0 -26 -9.5 -49t-26 -40.5t-39 -27.5t-47.5 -10q-26 0 -49.5 10t-40.5 27.5t-27 40.5t-10 49q0 25 10 48t27 40t40.5 27 t49.5 10q25 0 47.5 -10t39 -27t26 -40t9.5 -48zM492 1314q0 -27 -10 -50.5t-27.5 -41t-40.5 -27.5t-49 -10t-49.5 10t-41 27.5t-28 41t-10.5 50.5q0 26 10.5 49t28 40.5t41 27.5t49.5 10t49 -10t40.5 -27.5t27.5 -40.5t10 -49z" glyph-name="edieresis" horiz-adv-x="1075" unicode="ë"/><glyph d="M379 0h-275v1071h275v-1071zM242 1151l-113 149l297 277l164 -209z" glyph-name="iacute" horiz-adv-x="483" unicode="í"/><glyph d="M379 0h-275v1071h275v-1071zM242 1151l-350 217l166 209l295 -277z" glyph-name="igrave" horiz-adv-x="483" unicode="ì"/><glyph d="M379 0h-275v1071h275v-1071zM-30 1288l270 254l277 -254l-113 -143l-160 146l-151 -142z" glyph-name="icircumflex" horiz-adv-x="483" unicode="î"/><glyph d="M379 0h-275v1071h275v-1071zM551 1271q0 -26 -9.5 -49t-26 -40.5t-39 -27.5t-47.5 -10q-26 0 -49.5 10t-40.5 27.5t-27 40.5t-10 49q0 25 10 48t27 40t40.5 27t49.5 10q25 0 47.5 -10t39 -27t26 -40t9.5 -48zM191 1273q0 -27 -10 -50.5t-27.5 -41t-40.5 -27.5t-49 -10 t-49.5 10t-41 27.5t-28 41t-10.5 50.5q0 26 10.5 49t28 40.5t41 27.5t49.5 10t49 -10t40.5 -27.5t27.5 -40.5t10 -49z" glyph-name="idieresis" horiz-adv-x="483" unicode="ï"/><glyph d="M377 0h-273v1071h66l90 -104q66 60 149.5 92.5t174.5 32.5q98 0 185 -37.5t152 -103t102.5 -153t37.5 -186.5v-612h-273v612q0 42 -16 79.5t-44 65.5t-65 44t-79 16q-43 0 -81 -16t-66 -44t-44 -65.5t-16 -79.5v-612zM889 1505q6 -18 11 -39q4 -18 7.5 -41t3.5 -49 q0 -50 -15 -89.5t-40.5 -67t-61 -42t-75.5 -14.5q-45 0 -77 19.5t-56.5 43t-46 43t-45.5 19.5q-19 0 -31 -17t-12 -34q0 -20 6.5 -38.5t17.5 -35.5l-188 -8q-10 18 -18 42q-7 20 -12 48.5t-5 63.5q0 89 54 139.5t147 50.5q39 0 66.5 -9.5t48 -23.5t35.5 -30.5t27.5 -30.5 t25 -23.5t28.5 -9.5q17 0 26 15t9 38q0 27 -16 54z" glyph-name="ntilde" horiz-adv-x="1151" unicode="ñ"/><glyph d="M1139 545q0 -120 -43 -223.5t-117 -179t-173.5 -119t-213.5 -43.5q-113 0 -212.5 43.5t-174 119t-117.5 179t-43 223.5q0 122 43 226t117.5 179.5t174 118.5t212.5 43q114 0 213.5 -40.5t173.5 -115t117 -179t43 -232.5zM864 545q0 66 -21.5 119.5t-58.5 92t-86.5 59 t-105.5 20.5t-105.5 -20.5t-86 -59t-57.5 -92t-21 -119.5q0 -62 21 -115t57.5 -92t86 -61.5t105.5 -22.5t105.5 21t86.5 59t58.5 92t21.5 119zM588 1192l-113 149l297 277l164 -209z" glyph-name="oacute" horiz-adv-x="1186" unicode="ó"/><glyph d="M1139 545q0 -120 -43 -223.5t-117 -179t-173.5 -119t-213.5 -43.5q-113 0 -212.5 43.5t-174 119t-117.5 179t-43 223.5q0 122 43 226t117.5 179.5t174 118.5t212.5 43q114 0 213.5 -40.5t173.5 -115t117 -179t43 -232.5zM864 545q0 66 -21.5 119.5t-58.5 92t-86.5 59 t-105.5 20.5t-105.5 -20.5t-86 -59t-57.5 -92t-21 -119.5q0 -62 21 -115t57.5 -92t86 -61.5t105.5 -22.5t105.5 21t86.5 59t58.5 92t21.5 119zM588 1194l-350 217l166 209l295 -277z" glyph-name="ograve" horiz-adv-x="1186" unicode="ò"/><glyph d="M1139 545q0 -120 -43 -223.5t-117 -179t-173.5 -119t-213.5 -43.5q-113 0 -212.5 43.5t-174 119t-117.5 179t-43 223.5q0 122 43 226t117.5 179.5t174 118.5t212.5 43q114 0 213.5 -40.5t173.5 -115t117 -179t43 -232.5zM864 545q0 66 -21.5 119.5t-58.5 92t-86.5 59 t-105.5 20.5t-105.5 -20.5t-86 -59t-57.5 -92t-21 -119.5q0 -62 21 -115t57.5 -92t86 -61.5t105.5 -22.5t105.5 21t86.5 59t58.5 92t21.5 119zM317 1316l270 254l277 -254l-113 -143l-160 146l-151 -142z" glyph-name="ocircumflex" horiz-adv-x="1186" unicode="ô"/><glyph d="M1139 545q0 -120 -43 -223.5t-117 -179t-173.5 -119t-213.5 -43.5q-113 0 -212.5 43.5t-174 119t-117.5 179t-43 223.5q0 122 43 226t117.5 179.5t174 118.5t212.5 43q114 0 213.5 -40.5t173.5 -115t117 -179t43 -232.5zM864 545q0 66 -21.5 119.5t-58.5 92t-86.5 59 t-105.5 20.5t-105.5 -20.5t-86 -59t-57.5 -92t-21 -119.5q0 -62 21 -115t57.5 -92t86 -61.5t105.5 -22.5t105.5 21t86.5 59t58.5 92t21.5 119zM899 1298q0 -26 -9.5 -49t-26 -40.5t-39 -27.5t-47.5 -10q-26 0 -49.5 10t-40.5 27.5t-27 40.5t-10 49q0 25 10 48t27 40t40.5 27 t49.5 10q25 0 47.5 -10t39 -27t26 -40t9.5 -48zM539 1300q0 -27 -10 -50.5t-27.5 -41t-40.5 -27.5t-49 -10t-49.5 10t-41 27.5t-28 41t-10.5 50.5q0 26 10.5 49t28 40.5t41 27.5t49.5 10t49 -10t40.5 -27.5t27.5 -40.5t10 -49z" glyph-name="odieresis" horiz-adv-x="1186" unicode="ö"/><glyph d="M1139 545q0 -120 -43 -223.5t-117 -179t-173.5 -119t-213.5 -43.5q-113 0 -212.5 43.5t-174 119t-117.5 179t-43 223.5q0 122 43 226t117.5 179.5t174 118.5t212.5 43q114 0 213.5 -40.5t173.5 -115t117 -179t43 -232.5zM864 545q0 66 -21.5 119.5t-58.5 92t-86.5 59 t-105.5 20.5t-105.5 -20.5t-86 -59t-57.5 -92t-21 -119.5q0 -62 21 -115t57.5 -92t86 -61.5t105.5 -22.5t105.5 21t86.5 59t58.5 92t21.5 119zM899 1526q6 -18 11 -39q4 -18 7.5 -41t3.5 -49q0 -50 -15 -89.5t-40.5 -67t-61 -42t-75.5 -14.5q-45 0 -77 19.5t-56.5 43t-46 43 t-45.5 19.5q-19 0 -31 -17t-12 -34q0 -20 6.5 -38.5t17.5 -35.5l-188 -8q-10 18 -18 42q-7 20 -12 48.5t-5 63.5q0 89 54 139.5t147 50.5q39 0 66.5 -9.5t48 -23.5t35.5 -30.5t27.5 -30.5t25 -23.5t28.5 -9.5q17 0 26 15t9 38q0 27 -16 54z" glyph-name="otilde" horiz-adv-x="1186" unicode="õ"/><glyph d="M891 125q-33 -30 -70.5 -56.5t-78.5 -46t-84.5 -31t-88.5 -11.5q-99 0 -186 35t-152.5 99.5t-103 157t-37.5 207.5v592h272v-592q0 -54 16.5 -96.5t44.5 -71.5t65.5 -44t80.5 -15q42 0 79.5 19.5t65.5 51.5t44 72.5t16 83.5v592h273v-1071h-66zM574 1129l-113 149 l297 277l164 -209z" glyph-name="uacute" horiz-adv-x="1151" unicode="ú"/><glyph d="M891 125q-33 -30 -70.5 -56.5t-78.5 -46t-84.5 -31t-88.5 -11.5q-99 0 -186 35t-152.5 99.5t-103 157t-37.5 207.5v592h272v-592q0 -54 16.5 -96.5t44.5 -71.5t65.5 -44t80.5 -15q42 0 79.5 19.5t65.5 51.5t44 72.5t16 83.5v592h273v-1071h-66zM565 1129l-350 217 l166 209l295 -277z" glyph-name="ugrave" horiz-adv-x="1151" unicode="ù"/><glyph d="M891 125q-33 -30 -70.5 -56.5t-78.5 -46t-84.5 -31t-88.5 -11.5q-99 0 -186 35t-152.5 99.5t-103 157t-37.5 207.5v592h272v-592q0 -54 16.5 -96.5t44.5 -71.5t65.5 -44t80.5 -15q42 0 79.5 19.5t65.5 51.5t44 72.5t16 83.5v592h273v-1071h-66zM295 1273l270 254 l277 -254l-113 -143l-160 146l-151 -142z" glyph-name="ucircumflex" horiz-adv-x="1151" unicode="û"/><glyph d="M891 125q-33 -30 -70.5 -56.5t-78.5 -46t-84.5 -31t-88.5 -11.5q-99 0 -186 35t-152.5 99.5t-103 157t-37.5 207.5v592h272v-592q0 -54 16.5 -96.5t44.5 -71.5t65.5 -44t80.5 -15q42 0 79.5 19.5t65.5 51.5t44 72.5t16 83.5v592h273v-1071h-66zM876 1278q0 -26 -9.5 -49 t-26 -40.5t-39 -27.5t-47.5 -10q-26 0 -49.5 10t-40.5 27.5t-27 40.5t-10 49q0 25 10 48t27 40t40.5 27t49.5 10q25 0 47.5 -10t39 -27t26 -40t9.5 -48zM516 1280q0 -27 -10 -50.5t-27.5 -41t-40.5 -27.5t-49 -10t-49.5 10t-41 27.5t-28 41t-10.5 50.5q0 26 10.5 49t28 40.5 t41 27.5t49.5 10t49 -10t40.5 -27.5t27.5 -40.5t10 -49z" glyph-name="udieresis" horiz-adv-x="1151" unicode="ü"/><glyph d="M977 573v287q0 59 -22.5 111.5t-61.5 91.5t-91.5 61.5t-111.5 22.5t-111.5 -22.5t-91.5 -61.5t-61.5 -91.5t-22.5 -111.5v-287h574zM1264 0h-287v287h-574v-287h-286v860q0 119 45 223.5t122.5 182.5t182 123t223.5 45t223.5 -45t182.5 -123t123 -182.5t45 -223.5v-860z M678 1518l-350 217l166 209l295 -277z" glyph-name="Agrave" unicode="À"/><glyph d="M977 573v287q0 59 -22.5 111.5t-61.5 91.5t-91.5 61.5t-111.5 22.5t-111.5 -22.5t-91.5 -61.5t-61.5 -91.5t-22.5 -111.5v-287h574zM1264 0h-287v287h-574v-287h-286v860q0 119 45 223.5t122.5 182.5t182 123t223.5 45t223.5 -45t182.5 -123t123 -182.5t45 -223.5v-860z M997 1849q6 -18 11 -39q4 -18 7.5 -41t3.5 -49q0 -50 -15 -89.5t-40.5 -67t-61 -42t-75.5 -14.5q-45 0 -77 19.5t-56.5 43t-46 43t-45.5 19.5q-19 0 -31 -17t-12 -34q0 -20 6.5 -38.5t17.5 -35.5l-188 -8q-10 18 -18 42q-7 20 -12 48.5t-5 63.5q0 89 54 139.5t147 50.5 q39 0 66.5 -9.5t48 -23.5t35.5 -30.5t27.5 -30.5t25 -23.5t28.5 -9.5q17 0 26 15t9 38q0 27 -16 54z" glyph-name="Atilde" unicode="Ã"/><glyph d="M1538 711q0 -102 -26.5 -196.5t-74.5 -177t-116 -150.5t-150 -116.5t-177 -75t-197 -26.5t-196.5 26.5t-177 75t-150.5 116.5t-116.5 150.5t-75 177t-26.5 196.5t26.5 197t75 177t116.5 150t150.5 116t177 74.5t196.5 26.5t197 -26.5t177 -74.5t150 -116t116 -150 t74.5 -177t26.5 -197zM1253 711q0 94 -36 177.5t-97.5 145t-145 97.5t-177.5 36q-95 0 -178 -36t-145 -97.5t-98 -145t-36 -177.5t36 -176.5t98 -144.5t145 -98t178 -36q94 0 177.5 36t145 98t97.5 144.5t36 176.5zM1104 1872q6 -18 11 -39q4 -18 7.5 -41t3.5 -49 q0 -50 -15 -89.5t-40.5 -67t-61 -42t-75.5 -14.5q-45 0 -77 19.5t-56.5 43t-46 43t-45.5 19.5q-19 0 -31 -17t-12 -34q0 -20 6.5 -38.5t17.5 -35.5l-188 -8q-10 18 -18 42q-7 20 -12 48.5t-5 63.5q0 89 54 139.5t147 50.5q39 0 66.5 -9.5t48 -23.5t35.5 -30.5t27.5 -30.5 t25 -23.5t28.5 -9.5q17 0 26 15t9 38q0 27 -16 54z" glyph-name="Otilde" horiz-adv-x="1593" unicode="Õ"/><glyph d="M362 -408v275l152 -2q40 0 77 13t68.5 36t55.5 54.5t39 68.5q-45 -19 -91.5 -38t-93.5 -19q-99 0 -186 35t-152.5 99.5t-103 157t-37.5 207.5v592h272v-592q0 -57 16.5 -99.5t44.5 -71t65.5 -42.5t80.5 -14q42 0 79.5 19.5t65.5 51.5t44 72.5t16 83.5v592h275v-936 q-1 -113 -44 -212t-117.5 -173t-173.5 -117t-212 -43zM876 1292q0 -26 -9.5 -49t-26 -40.5t-39 -27.5t-47.5 -10q-26 0 -49.5 10t-40.5 27.5t-27 40.5t-10 49q0 25 10 48t27 40t40.5 27t49.5 10q25 0 47.5 -10t39 -27t26 -40t9.5 -48zM516 1294q0 -27 -10 -50.5t-27.5 -41 t-40.5 -27.5t-49 -10t-49.5 10t-41 27.5t-28 41t-10.5 50.5q0 26 10.5 49t28 40.5t41 27.5t49.5 10t49 -10t40.5 -27.5t27.5 -40.5t10 -49z" glyph-name="ydieresis" horiz-adv-x="1153" unicode="ÿ"/><glyph d="M778 0h-286v449q-95 24 -174.5 77t-136.5 126.5t-88.5 163t-31.5 188.5v430h287v-430q0 -59 22.5 -111.5t61.5 -91.5t91.5 -61.5t111.5 -22.5t111.5 22.5t91.5 61.5t61.5 91.5t22.5 111.5v430h286v-430q0 -99 -31.5 -188.5t-88.5 -163t-136 -126.5t-174 -77v-449z M942 1644q0 -26 -9.5 -49t-26 -40.5t-39 -27.5t-47.5 -10q-26 0 -49.5 10t-40.5 27.5t-27 40.5t-10 49q0 25 10 48t27 40t40.5 27t49.5 10q25 0 47.5 -10t39 -27t26 -40t9.5 -48zM582 1646q0 -27 -10 -50.5t-27.5 -41t-40.5 -27.5t-49 -10t-49.5 10t-41 27.5t-28 41 t-10.5 50.5q0 26 10.5 49t28 40.5t41 27.5t49.5 10t49 -10t40.5 -27.5t27.5 -40.5t10 -49z" glyph-name="Ydieresis" horiz-adv-x="1270" unicode="Ÿ"/><glyph d="M977 573v287q0 59 -22.5 111.5t-61.5 91.5t-91.5 61.5t-111.5 22.5t-111.5 -22.5t-91.5 -61.5t-61.5 -91.5t-22.5 -111.5v-287h574zM1264 0h-287v287h-574v-287h-286v860q0 119 45 223.5t122.5 182.5t182 123t223.5 45t223.5 -45t182.5 -123t123 -182.5t45 -223.5v-860z M416 1640l270 254l277 -254l-113 -143l-160 146l-151 -142z" glyph-name="Acircumflex" unicode="Â"/><glyph d="M1116 0h-983v1434h983v-287h-696v-287h471v-287h-471v-286h696v-287zM350 1660l270 254l277 -254l-113 -143l-160 146l-151 -142z" glyph-name="Ecircumflex" horiz-adv-x="1184" unicode="Ê"/><glyph d="M977 573v287q0 59 -22.5 111.5t-61.5 91.5t-91.5 61.5t-111.5 22.5t-111.5 -22.5t-91.5 -61.5t-61.5 -91.5t-22.5 -111.5v-287h574zM1264 0h-287v287h-574v-287h-286v860q0 119 45 223.5t122.5 182.5t182 123t223.5 45t223.5 -45t182.5 -123t123 -182.5t45 -223.5v-860z M693 1518l-113 149l297 277l164 -209z" glyph-name="Aacute" unicode="Á"/><glyph d="M1116 0h-983v1434h983v-287h-696v-287h471v-287h-471v-286h696v-287zM931 1642q0 -26 -9.5 -49t-26 -40.5t-39 -27.5t-47.5 -10q-26 0 -49.5 10t-40.5 27.5t-27 40.5t-10 49q0 25 10 48t27 40t40.5 27t49.5 10q25 0 47.5 -10t39 -27t26 -40t9.5 -48zM571 1644 q0 -27 -10 -50.5t-27.5 -41t-40.5 -27.5t-49 -10t-49.5 10t-41 27.5t-28 41t-10.5 50.5q0 26 10.5 49t28 40.5t41 27.5t49.5 10t49 -10t40.5 -27.5t27.5 -40.5t10 -49z" glyph-name="Edieresis" horiz-adv-x="1184" unicode="Ë"/><glyph d="M1116 0h-983v1434h983v-287h-696v-287h471v-287h-471v-286h696v-287zM643 1516l-350 217l166 209l295 -277z" glyph-name="Egrave" horiz-adv-x="1184" unicode="È"/><glyph d="M420 0h-287v1434h287v-1434zM277 1518l-113 149l297 277l164 -209z" glyph-name="Iacute" horiz-adv-x="553" unicode="Í"/><glyph d="M420 0h-287v1434h287v-1434zM4 1658l270 254l277 -254l-113 -143l-160 146l-151 -142z" glyph-name="Icircumflex" horiz-adv-x="553" unicode="Î"/><glyph d="M420 0h-287v1434h287v-1434zM586 1642q0 -26 -9.5 -49t-26 -40.5t-39 -27.5t-47.5 -10q-26 0 -49.5 10t-40.5 27.5t-27 40.5t-10 49q0 25 10 48t27 40t40.5 27t49.5 10q25 0 47.5 -10t39 -27t26 -40t9.5 -48zM226 1644q0 -27 -10 -50.5t-27.5 -41t-40.5 -27.5t-49 -10 t-49.5 10t-41 27.5t-28 41t-10.5 50.5q0 26 10.5 49t28 40.5t41 27.5t49.5 10t49 -10t40.5 -27.5t27.5 -40.5t10 -49z" glyph-name="Idieresis" horiz-adv-x="553" unicode="Ï"/><glyph d="M420 0h-287v1434h287v-1434zM275 1516l-350 217l166 209l295 -277z" glyph-name="Igrave" horiz-adv-x="553" unicode="Ì"/><glyph d="M1538 711q0 -102 -26.5 -196.5t-74.5 -177t-116 -150.5t-150 -116.5t-177 -75t-197 -26.5t-196.5 26.5t-177 75t-150.5 116.5t-116.5 150.5t-75 177t-26.5 196.5t26.5 197t75 177t116.5 150t150.5 116t177 74.5t196.5 26.5t197 -26.5t177 -74.5t150 -116t116 -150 t74.5 -177t26.5 -197zM1253 711q0 94 -36 177.5t-97.5 145t-145 97.5t-177.5 36q-95 0 -178 -36t-145 -97.5t-98 -145t-36 -177.5t36 -176.5t98 -144.5t145 -98t178 -36q94 0 177.5 36t145 98t97.5 144.5t36 176.5zM809 1534l-113 149l297 277l164 -209z" glyph-name="Oacute" horiz-adv-x="1593" unicode="Ó"/><glyph d="M1538 711q0 -102 -26.5 -196.5t-74.5 -177t-116 -150.5t-150 -116.5t-177 -75t-197 -26.5t-196.5 26.5t-177 75t-150.5 116.5t-116.5 150.5t-75 177t-26.5 196.5t26.5 197t75 177t116.5 150t150.5 116t177 74.5t196.5 26.5t197 -26.5t177 -74.5t150 -116t116 -150 t74.5 -177t26.5 -197zM1253 711q0 94 -36 177.5t-97.5 145t-145 97.5t-177.5 36q-95 0 -178 -36t-145 -97.5t-98 -145t-36 -177.5t36 -176.5t98 -144.5t145 -98t178 -36q94 0 177.5 36t145 98t97.5 144.5t36 176.5zM522 1660l270 254l277 -254l-113 -143l-160 146l-151 -142 z" glyph-name="Ocircumflex" horiz-adv-x="1593" unicode="Ô"/><glyph d="M1538 711q0 -102 -26.5 -196.5t-74.5 -177t-116 -150.5t-150 -116.5t-177 -75t-197 -26.5t-196.5 26.5t-177 75t-150.5 116.5t-116.5 150.5t-75 177t-26.5 196.5t26.5 197t75 177t116.5 150t150.5 116t177 74.5t196.5 26.5t197 -26.5t177 -74.5t150 -116t116 -150 t74.5 -177t26.5 -197zM1253 711q0 94 -36 177.5t-97.5 145t-145 97.5t-177.5 36q-95 0 -178 -36t-145 -97.5t-98 -145t-36 -177.5t36 -176.5t98 -144.5t145 -98t178 -36q94 0 177.5 36t145 98t97.5 144.5t36 176.5zM790 1534l-350 217l166 209l295 -277z" glyph-name="Ograve" horiz-adv-x="1593" unicode="Ò"/><glyph d="M1264 573q0 -119 -45 -223.5t-123 -182t-182.5 -122.5t-223.5 -45t-223.5 45t-182 122.5t-122.5 182t-45 223.5v861h286v-861q0 -59 22.5 -111t61.5 -91t91.5 -61.5t111.5 -22.5t111.5 22.5t91.5 61.5t61.5 91t22.5 111v861h287v-861zM705 1518l-113 149l297 277 l164 -209z" glyph-name="Uacute" unicode="Ú"/><glyph d="M1264 573q0 -119 -45 -223.5t-123 -182t-182.5 -122.5t-223.5 -45t-223.5 45t-182 122.5t-122.5 182t-45 223.5v861h286v-861q0 -59 22.5 -111t61.5 -91t91.5 -61.5t111.5 -22.5t111.5 22.5t91.5 61.5t61.5 91t22.5 111v861h287v-861zM416 1636l270 254l277 -254 l-113 -143l-160 146l-151 -142z" glyph-name="Ucircumflex" unicode="Û"/><glyph d="M1264 573q0 -119 -45 -223.5t-123 -182t-182.5 -122.5t-223.5 -45t-223.5 45t-182 122.5t-122.5 182t-45 223.5v861h286v-861q0 -59 22.5 -111t61.5 -91t91.5 -61.5t111.5 -22.5t111.5 22.5t91.5 61.5t61.5 91t22.5 111v861h287v-861zM698 1498l-350 217l166 209 l295 -277z" glyph-name="Ugrave" unicode="Ù"/><glyph d="M608 1186q82 -19 152 -68t117 -125l-162 -159q-12 34 -32.5 60t-46.5 44t-56.5 27.5t-61.5 9.5q-45 0 -85 -18.5t-69 -51.5t-46 -78.5t-17 -99.5q0 -45 17 -85t46 -69t69 -46t85 -17q63 0 117 34t80 93l159 -162q-49 -68 -117 -113.5t-149 -62.5v-299h-184v301 q-74 16 -137 55t-109 95.5t-72 127t-26 148.5q0 85 26 161t72 136.5t109 102.5t137 59v250h184v-250z" glyph-name="cent" horiz-adv-x="948" unicode="¢"/><glyph d="M571 1163h234v-219h-443q-23 0 -39 -15.5t-16 -37.5q0 -23 16 -39t39 -16h228q56 0 105.5 -19t86.5 -53t58.5 -81t21.5 -103q0 -57 -21.5 -107t-58.5 -86.5t-86.5 -58t-105.5 -21.5h-19v-307h-184v307h-297v217h500q21 0 37 16.5t16 39.5t-16 29.5t-37 6.5h-228 q-57 0 -106.5 21.5t-86 59t-58 87.5t-21.5 107q0 56 21.5 105.5t58 86.5t86 58.5t106.5 21.5h25v271h184v-271z" glyph-name="dollar" horiz-adv-x="938" unicode="$"/><glyph d="M625 1212q0 -48 -17.5 -89.5t-48 -71.5t-72.5 -47t-90 -17h-63q-11 0 -20 -9t-9 -20v-30h303v-197h-499v227q0 47 17.5 88t48 72t71.5 48.5t88 17.5h63q14 0 22.5 8t8.5 20q0 11 -8.5 19t-22.5 8h-260v197h260q48 0 90 -17.5t72.5 -47.5t48 -71t17.5 -88z" glyph-name="twosuperior" horiz-adv-x="729" unicode="²"/><glyph d="M651 1253h219v-217h-424q-22 0 -41.5 -8.5t-34.5 -23.5t-23.5 -34.5t-8.5 -41.5q0 -23 8.5 -43.5t23.5 -35.5t34.5 -23.5t41.5 -8.5h261v-217h-261q-22 0 -41.5 -8.5t-34.5 -23.5t-23.5 -34.5t-8.5 -41.5q0 -23 8.5 -43.5t23.5 -35.5t34.5 -23.5t41.5 -8.5h424v-217h-219 v-164h-184v164h-21q-68 0 -127 25.5t-103 70t-69.5 104t-25.5 128.5q0 60 21 116t63 101q-42 45 -63 101t-21 118q0 67 25.5 126.5t69.5 103.5t103 69.5t127 25.5h21v183h184v-183z" glyph-name="ampersand" horiz-adv-x="995" unicode="&amp;"/><glyph d="M993 1434v-273h-542q-28 0 -48 -13.5t-20 -41.5q0 -26 15 -36.5t38 -12.5h299q71 0 133 -27t108 -73.5t72.5 -109t26.5 -132.5q0 -56 -17 -105.5t-46 -91.5q63 -81 63 -190q0 -71 -27 -131.5t-73 -104.5t-108 -69t-132 -25h-624v272h624q28 0 48 13t20 41q0 29 -20 40 t-48 11h-284q-71 0 -133 27t-108 73.5t-72.5 108.5t-26.5 133q0 56 16 105t45 91q-29 39 -45 87t-16 104q0 70 27 130.5t73 105t108 69.5t132 25h542zM735 647q28 0 48 20t20 48q0 13 -4.5 25.5t-13 22t-19.5 15.5t-23 6h-301q-24 0 -41.5 -21t-17.5 -46q0 -29 20 -49.5 t48 -20.5h284z" glyph-name="section" horiz-adv-x="1167" unicode="§"/><glyph d="M958 717q0 239 -79.5 355t-221.5 116q-141 0 -219 -115t-78 -356q0 -239 78 -355t219 -116q71 0 127 28.5t94.5 86.5t59 146.5t20.5 209.5zM1231 717q0 -204 -45 -345t-123 -228t-182.5 -125.5t-223.5 -38.5t-223.5 39.5t-182 127t-122.5 228t-45 342.5q0 204 45 344.5 t122.5 227.5t182 126t223.5 39t223.5 -39.5t182.5 -127.5t123 -228t45 -342z" glyph-name="zero" horiz-adv-x="1315" unicode="0"/><glyph d="M508 0h-287v1147h-143v287h430v-1434z" glyph-name="one" horiz-adv-x="651" unicode="1"/><glyph d="M1092 1004q0 -89 -34 -167.5t-92.5 -137t-136.5 -92.5t-167 -34h-144q-30 0 -56 -11t-45.5 -30.5t-30.5 -45.5t-11 -56v-143h678v-287h-965v430q0 89 34 167.5t92.5 137t136.5 92t167 33.5h144q30 0 56 11t45.5 30.5t30.5 46t11 56.5t-11 56t-30.5 45.5t-45.5 30.5 t-56 11h-512v287h512q89 0 167 -34t136.5 -92.5t92.5 -136.5t34 -167z" glyph-name="two" horiz-adv-x="1169" unicode="2"/><glyph d="M1104 430q0 -89 -34 -167t-92.5 -136.5t-136.5 -92.5t-167 -34h-574v287h574q30 0 56 11t45.5 30.5t30.5 45.5t11 56t-11 56t-30.5 45.5t-45.5 30.5t-56 11h-391v287h391q30 0 56 11t45.5 30.5t30.5 46t11 56.5t-11 56t-30.5 45.5t-45.5 30.5t-56 11h-574v287h574 q89 0 167 -34t136.5 -92.5t92.5 -136.5t34 -167q0 -79 -29 -153.5t-82 -133.5q53 -59 82 -133.5t29 -153.5z" glyph-name="three" horiz-adv-x="1202" unicode="3"/><glyph d="M1206 287h-143v-287h-287v287h-717l160 1147h287l-125 -861h395v717h287v-717h143v-286z" glyph-name="four" horiz-adv-x="1292" unicode="4"/><glyph d="M1128 451q0 -105 -37 -189t-99 -142t-143.5 -89t-170.5 -31h-578v287h578q29 0 58.5 9t53 29t38 51t14.5 75q0 40 -14.5 70.5t-38 51t-53 31t-58.5 10.5h-578l84 820h885v-287h-627l-26 -246h262q89 0 170.5 -31t143.5 -89.5t99 -142t37 -187.5z" glyph-name="five" horiz-adv-x="1200" unicode="5"/><glyph d="M1190 526q0 -116 -41.5 -219t-114.5 -180.5t-173.5 -122.5t-217.5 -45t-220.5 45t-180.5 122.5t-121.5 180.5t-44.5 219q0 138 27 269.5t79 249t127 216.5t170 173h387q-60 -39 -117 -87t-108.5 -103t-95.5 -116t-78 -127q43 29 93.5 49.5t103.5 20.5q121 0 218.5 -40.5 t165.5 -113t105 -172.5t37 -219zM903 526q0 57 -18.5 107.5t-52.5 89t-82 60.5t-107 22t-107 -22t-81.5 -60.5t-51.5 -89t-18 -107.5q0 -55 18.5 -105.5t52.5 -89.5t81.5 -62t105.5 -23q59 0 107 22t82 60.5t52.5 89.5t18.5 108z" glyph-name="six" horiz-adv-x="1260" unicode="6"/><glyph d="M1053 1434l-490 -1434h-307l403 1147h-610v287h1004z" glyph-name="seven" horiz-adv-x="1057" unicode="7"/><glyph d="M1194 410q0 -97 -44 -179t-120.5 -141.5t-178.5 -93t-218 -33.5t-218 33.5t-178.5 93t-120.5 141.5t-44 179q0 56 15 109.5t43.5 100.5t68.5 86.5t90 67.5q-31 27 -55.5 62t-42 74t-26.5 80.5t-9 82.5q0 84 37.5 157.5t102.5 129t152 87.5t185 32q99 0 186 -32 t152.5 -87.5t103 -129t37.5 -157.5q0 -41 -9.5 -82.5t-26.5 -81t-41.5 -74.5t-55.5 -63q49 -28 89 -67t68 -86t43 -100t15 -109zM831 1042q0 35 -15.5 65.5t-42 53.5t-62.5 36t-76 13q-41 0 -77 -13t-62.5 -36t-42 -53.5t-15.5 -65.5t15.5 -65t42 -52t62.5 -35t77 -13 q40 0 76 13t62.5 35t42 52t15.5 65zM909 418q0 48 -21.5 89.5t-59 72.5t-88 49t-107.5 18t-107 -18t-87.5 -49t-59 -72.5t-21.5 -89.5t21.5 -88t59 -69t87.5 -45.5t107 -16.5t107.5 16.5t88 45.5t59 69t21.5 88z" glyph-name="eight" horiz-adv-x="1266" unicode="8"/><glyph d="M1184 907q0 -138 -27.5 -269.5t-79.5 -248.5t-127 -216t-170 -173h-387q61 39 118 87t108.5 103t95.5 116t78 126q-44 -29 -94 -49.5t-103 -20.5q-122 0 -219 40.5t-165.5 113t-105 172.5t-36.5 219q0 116 41.5 219.5t114.5 181t173 122.5t217 45q118 0 221.5 -45 t180.5 -122.5t121.5 -181t44.5 -219.5zM877 907q0 55 -19 106t-53.5 90t-82.5 62t-106 23q-59 0 -106.5 -22.5t-81.5 -60.5t-52 -89t-18 -109q0 -57 18 -107.5t52 -88.5t81.5 -60t106.5 -22t107.5 22t82.5 60t52.5 88.5t18.5 107.5z" glyph-name="nine" horiz-adv-x="1262" unicode="9"/><glyph d="M461 1096q0 89 -25.5 131.5t-73.5 42.5q-46 0 -71 -42.5t-25 -131.5q0 -88 25 -131t71 -43q48 0 73.5 43t25.5 131zM651 1096q0 -100 -22.5 -169.5t-61.5 -112.5t-91.5 -62t-113.5 -19q-60 0 -112.5 20t-91.5 63.5t-61.5 112.5t-22.5 167q0 100 22.5 169t61.5 112 t91.5 62t112.5 19q61 0 113.5 -19.5t91.5 -62.5t61.5 -112t22.5 -168zM420 0h-217l788 1434h217zM1139 342q0 90 -25.5 132t-73.5 42q-46 0 -71 -42t-25 -132q0 -87 25 -129.5t71 -42.5q48 0 73.5 42.5t25.5 129.5zM1329 342q0 -100 -22.5 -169t-61.5 -112t-91.5 -62 t-113.5 -19q-60 0 -112.5 19.5t-91.5 63t-61.5 112.5t-22.5 167q0 100 22.5 169t61.5 112t91.5 62.5t112.5 19.5q61 0 113.5 -19.5t91.5 -63t61.5 -112.5t22.5 -168z" glyph-name="percent" horiz-adv-x="1403" unicode="%"/><glyph d="M406 731h-197v508h-62v197h259v-705zM291 0h-217l788 1434h217zM1229 481q0 -48 -17.5 -89.5t-48 -71.5t-72.5 -47t-90 -17h-63q-11 0 -20 -9t-9 -20v-30h303v-197h-499v227q0 47 17.5 88t48 72t71.5 48.5t88 17.5h63q14 0 22.5 8t8.5 20q0 11 -8.5 19t-22.5 8h-260v197 h260q48 0 90 -17.5t72.5 -47.5t48 -71t17.5 -88z" glyph-name="onehalf" horiz-adv-x="1305" unicode="½"/><glyph d="M406 731h-197v508h-62v197h259v-705zM291 0h-217l788 1434h217zM1253 127h-63v-127h-197v127h-323l80 578h200l-59 -379h102v315h197v-315h63v-199z" glyph-name="onequarter" horiz-adv-x="1329" unicode="¼"/><glyph d="M350 731h-196v508h-62v197h258v-705z" glyph-name="onesuperior" horiz-adv-x="475" unicode="¹"/><glyph d="M416 0h-217l788 1434h217zM1378 127h-63v-127h-197v127h-323l79 578h201l-59 -379h102v315h197v-315h63v-199zM606 956q0 -48 -17.5 -89.5t-48 -72t-72 -48t-89.5 -17.5h-289v197h289q14 0 22.5 8t8.5 22q0 11 -8.5 20t-22.5 9h-209v197h209q14 0 22.5 8t8.5 20 q0 11 -8.5 19t-22.5 8h-289v197h289q48 0 89.5 -17.5t72 -47.5t48 -71t17.5 -88q0 -35 -8.5 -68t-30.5 -61q20 -29 29.5 -60t9.5 -65z" glyph-name="threequarters" horiz-adv-x="1452" unicode="¾"/><glyph d="M1327 430q0 -89 -33.5 -167t-92 -136.5t-137 -92.5t-167.5 -34h-637v547h-166v272h166v185q0 89 34 167t92.5 136.5t136.5 92.5t167 34h121v-287h-121q-30 0 -56 -11t-45.5 -30.5t-30.5 -45.5t-11 -56v-185h201v-272h-201v-260h350q30 0 56 11t45.5 30.5t30.5 45.5t11 56 h287z" glyph-name="sterling" horiz-adv-x="1395" unicode="£"/><glyph d="M633 956q0 -48 -17.5 -89.5t-48 -72t-72 -48t-89.5 -17.5h-289v197h289q14 0 22 8t8 22q0 11 -8 20t-22 9h-209v197h209q14 0 22 8t8 20q0 11 -8 19t-22 8h-289v197h289q48 0 89.5 -17.5t72 -47.5t48 -71t17.5 -88q0 -35 -8.5 -68t-30.5 -61q20 -29 29.5 -60t9.5 -65z" glyph-name="threesuperior" horiz-adv-x="727" unicode="³"/><glyph glyph-name="nonbreakingspace" horiz-adv-x="573"/><glyph d="M440 102q0 -36 -13 -67.5t-36 -54.5t-54 -36.5t-67 -13.5q-35 0 -66.5 13.5t-55 36.5t-37 54.5t-13.5 67.5q0 35 13.5 66t37 54t55 36.5t66.5 13.5q36 0 67 -13.5t54 -36.5t36 -54t13 -66zM979 102q0 -36 -13.5 -67.5t-36.5 -54.5t-54 -36.5t-66 -13.5t-66.5 13.5 t-55 36.5t-37 54.5t-13.5 67.5q0 35 13.5 66t37 54t55 36.5t66.5 13.5t66 -13.5t54 -36.5t36.5 -54t13.5 -66zM1518 102q0 -36 -13.5 -67.5t-36.5 -54.5t-54 -36.5t-66 -13.5q-36 0 -67 13.5t-54.5 36.5t-37 54.5t-13.5 67.5q0 35 13.5 66t37 54t54.5 36.5t67 13.5 q35 0 66 -13.5t54 -36.5t36.5 -54t13.5 -66z" glyph-name="ellipsis" horiz-adv-x="1616" unicode="…"/><glyph d="M451 0h-273v799h-133v272h133v51q0 99 37.5 186t103 151.5t152.5 102t186 37.5h205v-272h-205q-44 0 -81.5 -15.5t-65 -43t-43.5 -65t-16 -81.5v-51h778v-1071h-275v799h-503v-799zM1276 1362q0 -38 -14.5 -71t-39.5 -57.5t-58.5 -39t-71.5 -14.5t-71.5 14.5t-58 39 t-39 57.5t-14.5 71q0 37 14.5 70.5t39 58t58 39t71.5 14.5t71.5 -14.5t58.5 -39t39.5 -58t14.5 -70.5z" glyph-name="fi" horiz-adv-x="1333" unicode="ﬁ"/><glyph d="M451 0h-273v799h-133v272h133v51q0 99 37.5 186t103 151.5t152.5 102t186 37.5h535l-2 -1599h-275v1327h-258q-44 0 -81.5 -15.5t-65 -43t-43.5 -65t-16 -81.5v-51h335v-272h-335v-799z" glyph-name="fl" horiz-adv-x="1294" unicode="ﬂ"/><glyph d="M-303 -408v275l151 -2q55 0 102 22.5t81.5 60t54.5 86.5t20 103v934h279v-934h-2q-1 -75 -20.5 -145t-55.5 -130.5t-86 -110t-110.5 -85t-130 -55t-144.5 -19.5h-139z" glyph-name="dotlessj" horiz-adv-x="487" unicode="ȷ"/><glyph d="M627 690q0 39 -13 71.5t-35.5 55t-52 35t-63.5 12.5t-63.5 -12.5t-51.5 -35t-34.5 -55t-12.5 -71.5q0 -37 12.5 -69t34.5 -56t51.5 -37.5t63.5 -13.5t63.5 13t52 36t35.5 55.5t13 71.5zM791 690q0 -86 -37 -160l118 -116l-131 -131l-112 112q-37 -21 -79 -33t-87 -12 q-47 0 -89 12t-79 33l-109 -108l-129 131l113 114q-35 73 -35 158q0 44 9 84.5t28 75.5l-121 123l131 131l117 -119q35 22 77 33.5t87 11.5q90 0 164 -41l121 121l131 -133l-125 -123q37 -72 37 -164z" glyph-name="currency" horiz-adv-x="930" unicode="¤"/><glyph d="M737 860v-272h-614v272h614z" glyph-name="uni00AD" horiz-adv-x="858" unicode="­"/><glyph d="M61 1225q0 35 6.5 75.5t21 80.5t38 75.5t57.5 61.5l88 -62q-23 -26 -34 -48.5t-17 -45.5q24 -5 44.5 -17t36 -30t24 -41t8.5 -49q0 -28 -11 -52.5t-29.5 -43t-43 -29t-51.5 -10.5q-29 0 -54.5 10.5t-44 29t-29 43t-10.5 52.5z" glyph-name="uni0312" horiz-adv-x="395" unicode="̒"/><glyph d="M272 1298q0 -35 -6.5 -75t-21.5 -79.5t-39 -75t-58 -60.5l-86 61q22 25 33.5 48t18.5 46q-24 5 -44.5 17t-36 30t-24 40.5t-8.5 47.5q0 28 10.5 53t29 44t43 30t52.5 11q29 0 54 -11t43.5 -30t29 -44t10.5 -53z" glyph-name="uni0315" horiz-adv-x="272" unicode="̕"/><glyph d="M336 -233q0 -36 -7 -76.5t-22 -80.5t-38.5 -75.5t-57.5 -60.5l-86 61q22 26 33.5 48.5t17.5 45.5q-49 10 -82 47.5t-33 90.5q0 27 11 51.5t30 43t44 29.5t53 11t53 -11t43.5 -29.5t29.5 -43t11 -51.5z" glyph-name="uni0326" horiz-adv-x="397" unicode="̦"/><glyph d="M977 573v287q0 59 -22.5 111.5t-61.5 91.5t-91.5 61.5t-111.5 22.5t-111.5 -22.5t-91.5 -61.5t-61.5 -91.5t-22.5 -111.5v-287h574zM1264 0h-287v287h-574v-287h-286v860q0 119 45 223.5t122.5 182.5t182 123t223.5 45t223.5 -45t182.5 -123t123 -182.5t45 -223.5v-860z M436 1514v211h506v-211h-506z" glyph-name="Amacron" unicode="Ā"/><glyph d="M977 573v287q0 59 -22.5 111.5t-61.5 91.5t-91.5 61.5t-111.5 22.5t-111.5 -22.5t-91.5 -61.5t-61.5 -91.5t-22.5 -111.5v-287h574zM1264 0h-287v287h-574v-287h-286v860q0 119 45 223.5t122.5 182.5t182 123t223.5 45t223.5 -45t182.5 -123t123 -182.5t45 -223.5v-860z M881 1805q11 -25 16 -44t5 -45q0 -51 -17.5 -88t-47.5 -61.5t-70 -36.5t-85 -12q-47 0 -89 14.5t-73.5 42.5t-50 67.5t-18.5 90.5q0 20 3.5 36.5t14.5 35.5h172q-5 -14 -7.5 -29t-2.5 -29q0 -23 12.5 -39t36.5 -16q23 0 36.5 18t13.5 39q0 16 -4 28t-9 28h164z" glyph-name="Abreve" unicode="Ă"/><glyph d="M1108 -365q-29 0 -64 12t-65 35t-50 58t-20 80q0 53 31.5 98t75.5 82h-39v287h-574v-287h-286v860q0 119 45 223.5t122.5 182.5t182 123t223.5 45t223.5 -45t182.5 -123t123 -182.5t45 -223.5v-860h-93q-14 -17 -26.5 -35.5t-22.5 -36.5t-16 -34.5t-6 -28.5 q0 -16 10 -28.5t27 -12.5q21 0 40 14.5t27 34.5l142 -131q-48 -48 -108.5 -77.5t-129.5 -29.5zM977 573v287q0 59 -22.5 111.5t-61.5 91.5t-91.5 61.5t-111.5 22.5t-111.5 -22.5t-91.5 -61.5t-61.5 -91.5t-22.5 -111.5v-287h574z" glyph-name="Aogonek" unicode="Ą"/><glyph d="M1278 147q-100 -86 -224 -132t-257 -46q-102 0 -196.5 26.5t-177 75t-150.5 116.5t-116.5 150.5t-75 177t-26.5 196.5t26.5 197t75 177.5t116.5 150.5t150.5 116.5t177 75t196.5 26.5q133 0 257 -45.5t224 -132.5l-152 -250q-63 68 -149 104.5t-180 36.5q-95 0 -178 -36 t-145 -97.5t-98 -145t-36 -177.5t36 -176.5t98 -144.5t145 -98t178 -36q94 0 180 36.5t149 104.5zM758 1526l-113 149l297 277l164 -209z" glyph-name="Cacute" horiz-adv-x="1311" unicode="Ć"/><glyph d="M1278 147q-100 -86 -224 -132t-257 -46q-102 0 -196.5 26.5t-177 75t-150.5 116.5t-116.5 150.5t-75 177t-26.5 196.5t26.5 197t75 177.5t116.5 150.5t150.5 116.5t177 75t196.5 26.5q133 0 257 -45.5t224 -132.5l-152 -250q-63 68 -149 104.5t-180 36.5q-95 0 -178 -36 t-145 -97.5t-98 -145t-36 -177.5t36 -176.5t98 -144.5t145 -98t178 -36q94 0 180 36.5t149 104.5zM481 1671l270 254l277 -254l-113 -143l-160 146l-151 -142z" glyph-name="Ccircumflex" horiz-adv-x="1311" unicode="Ĉ"/><glyph d="M1278 147q-100 -86 -224 -132t-257 -46q-102 0 -196.5 26.5t-177 75t-150.5 116.5t-116.5 150.5t-75 177t-26.5 196.5t26.5 197t75 177.5t116.5 150.5t150.5 116.5t177 75t196.5 26.5q133 0 257 -45.5t224 -132.5l-152 -250q-63 68 -149 104.5t-180 36.5q-95 0 -178 -36 t-145 -97.5t-98 -145t-36 -177.5t36 -176.5t98 -144.5t145 -98t178 -36q94 0 180 36.5t149 104.5zM911 1665q0 -27 -10 -50.5t-27.5 -41t-40.5 -27.5t-49 -10t-49.5 10t-41 27.5t-28 41t-10.5 50.5q0 26 10.5 49.5t28 41t41 28t49.5 10.5t49 -10.5t40.5 -28t27.5 -41 t10 -49.5z" glyph-name="Cdotaccent" horiz-adv-x="1311" unicode="Ċ"/><glyph d="M1278 147q-100 -86 -224 -132t-257 -46q-102 0 -196.5 26.5t-177 75t-150.5 116.5t-116.5 150.5t-75 177t-26.5 196.5t26.5 197t75 177.5t116.5 150.5t150.5 116.5t177 75t196.5 26.5q133 0 257 -45.5t224 -132.5l-152 -250q-63 68 -149 104.5t-180 36.5q-95 0 -178 -36 t-145 -97.5t-98 -145t-36 -177.5t36 -176.5t98 -144.5t145 -98t178 -36q94 0 180 36.5t149 104.5zM791 1528l-281 254l113 143l161 -146l150 140l123 -135z" glyph-name="Ccaron" horiz-adv-x="1311" unicode="Č"/><glyph d="M1282 717q0 -99 -25.5 -190.5t-72.5 -171t-112 -145t-145 -112.5t-171.5 -72.5t-190.5 -25.5h-432v1434h432q99 0 190.5 -25.5t171.5 -72.5t145 -112.5t112 -145t72.5 -171t25.5 -190.5zM995 717q0 89 -33.5 167t-92 136.5t-137 92.5t-167.5 34h-143v-860h143 q89 0 167.5 33.5t137 92t92 137t33.5 167.5zM676 1508l-281 254l113 143l161 -146l150 140l123 -135z" glyph-name="Dcaron" horiz-adv-x="1339" unicode="Ď"/><glyph d="M1321 717q0 -99 -25.5 -190.5t-72.5 -171t-112.5 -145t-145 -112.5t-171 -72.5t-190.5 -25.5h-432v588h-164v272h164v574h432q99 0 190.5 -25.5t171 -72.5t145 -112.5t112.5 -145t72.5 -171t25.5 -190.5zM627 860v-272h-166v-301h143q89 0 167.5 33.5t137 92t92 137 t33.5 167.5t-33.5 167t-92 136.5t-137 92.5t-167.5 34h-143v-287h166z" glyph-name="Dcroat" horiz-adv-x="1378" unicode="Đ"/><glyph d="M1116 0h-983v1434h983v-287h-696v-287h471v-287h-471v-286h696v-287zM399 1514v211h506v-211h-506z" glyph-name="Emacron" horiz-adv-x="1184" unicode="Ē"/><glyph d="M1116 0h-983v1434h983v-287h-696v-287h471v-287h-471v-286h696v-287zM825 1805q11 -25 16 -44t5 -45q0 -51 -17.5 -88t-47.5 -61.5t-70 -36.5t-85 -12q-47 0 -89 14.5t-73.5 42.5t-50 67.5t-18.5 90.5q0 20 3.5 36.5t14.5 35.5h172q-5 -14 -7.5 -29t-2.5 -29 q0 -23 12.5 -39t36.5 -16q23 0 36.5 18t13.5 39q0 16 -4 28t-9 28h164z" glyph-name="Ebreve" horiz-adv-x="1184" unicode="Ĕ"/><glyph d="M1116 0h-983v1434h983v-287h-696v-287h471v-287h-471v-286h696v-287zM760 1645q0 -27 -10 -50.5t-27.5 -41t-40.5 -27.5t-49 -10t-49.5 10t-41 27.5t-28 41t-10.5 50.5q0 26 10.5 49.5t28 41t41 28t49.5 10.5t49 -10.5t40.5 -28t27.5 -41t10 -49.5z" glyph-name="Edotaccent" horiz-adv-x="1184" unicode="Ė"/><glyph d="M879 -365q-29 0 -64 12t-65 35t-50 58t-20 80q0 53 31.5 98t74.5 82h-653v1434h983v-287h-696v-287h471v-287h-471v-286h696v-287h-174q-14 -17 -27 -35.5t-23 -36.5t-16 -34.5t-6 -28.5q0 -16 10 -28.5t27 -12.5q22 0 41 14.5t27 34.5l141 -131q-48 -48 -108 -77.5 t-129 -29.5z" glyph-name="Eogonek" horiz-adv-x="1184" unicode="Ę"/><glyph d="M1116 0h-983v1434h983v-287h-696v-287h471v-287h-471v-286h696v-287zM639 1508l-281 254l113 143l161 -146l150 140l123 -135z" glyph-name="Ecaron" horiz-adv-x="1184" unicode="Ě"/><glyph d="M1274 145q-100 -85 -223 -130.5t-256 -45.5q-102 0 -196.5 26.5t-176.5 75t-150 116t-116 150t-74.5 177.5t-26.5 197t26.5 196t74.5 176.5t116 150t150 115.5t176.5 74.5t196.5 26.5q133 0 256 -45.5t223 -130.5l-150 -250q-65 66 -150 103.5t-179 37.5t-176.5 -36 t-144.5 -97.5t-98 -144t-36 -176.5q0 -95 36 -178t98 -145t144.5 -98t176.5 -36q54 0 105 13t97 36v408h277v-566zM489 1650l270 254l277 -254l-113 -143l-160 146l-151 -142z" glyph-name="Gcircumflex" horiz-adv-x="1362" unicode="Ĝ"/><glyph d="M1274 145q-100 -85 -223 -130.5t-256 -45.5q-102 0 -196.5 26.5t-176.5 75t-150 116t-116 150t-74.5 177.5t-26.5 197t26.5 196t74.5 176.5t116 150t150 115.5t176.5 74.5t196.5 26.5q133 0 256 -45.5t223 -130.5l-150 -250q-65 66 -150 103.5t-179 37.5t-176.5 -36 t-144.5 -97.5t-98 -144t-36 -176.5q0 -95 36 -178t98 -145t144.5 -98t176.5 -36q54 0 105 13t97 36v408h277v-566zM975 1819q11 -25 16 -44t5 -45q0 -51 -17.5 -88t-47.5 -61.5t-70 -36.5t-85 -12q-47 0 -89 14.5t-73.5 42.5t-50 67.5t-18.5 90.5q0 20 3.5 36.5t14.5 35.5 h172q-5 -14 -7.5 -29t-2.5 -29q0 -23 12.5 -39t36.5 -16q23 0 36.5 18t13.5 39q0 16 -4 28t-9 28h164z" glyph-name="Gbreve" horiz-adv-x="1362" unicode="Ğ"/><glyph d="M1274 145q-100 -85 -223 -130.5t-256 -45.5q-102 0 -196.5 26.5t-176.5 75t-150 116t-116 150t-74.5 177.5t-26.5 197t26.5 196t74.5 176.5t116 150t150 115.5t176.5 74.5t196.5 26.5q133 0 256 -45.5t223 -130.5l-150 -250q-65 66 -150 103.5t-179 37.5t-176.5 -36 t-144.5 -97.5t-98 -144t-36 -176.5q0 -95 36 -178t98 -145t144.5 -98t176.5 -36q54 0 105 13t97 36v408h277v-566zM891 1665q0 -27 -10 -50.5t-27.5 -41t-40.5 -27.5t-49 -10t-49.5 10t-41 27.5t-28 41t-10.5 50.5q0 26 10.5 49.5t28 41t41 28t49.5 10.5t49 -10.5t40.5 -28 t27.5 -41t10 -49.5z" glyph-name="Gdotaccent" horiz-adv-x="1362" unicode="Ġ"/><glyph d="M1274 145q-100 -85 -223 -130.5t-256 -45.5q-102 0 -196.5 26.5t-176.5 75t-150 116t-116 150t-74.5 177.5t-26.5 197t26.5 196t74.5 176.5t116 150t150 115.5t176.5 74.5t196.5 26.5q133 0 256 -45.5t223 -130.5l-150 -250q-65 66 -150 103.5t-179 37.5t-176.5 -36 t-144.5 -97.5t-98 -144t-36 -176.5q0 -95 36 -178t98 -145t144.5 -98t176.5 -36q54 0 105 13t97 36v408h277v-566zM899 -233q0 -36 -7 -76.5t-22 -80.5t-38.5 -75.5t-57.5 -60.5l-86 61q22 26 33.5 48.5t17.5 45.5q-49 10 -82 47.5t-33 90.5q0 27 11 51.5t30 43t44 29.5 t53 11t53 -11t43.5 -29.5t29.5 -43t11 -51.5z" glyph-name="Gcommaaccent" horiz-adv-x="1362" unicode="Ģ"/><glyph d="M420 0h-287v1434h287v-574h573v574h287v-1434h-287v573h-573v-573zM432 1609l270 254l277 -254l-113 -143l-160 146l-151 -142z" glyph-name="Hcircumflex" horiz-adv-x="1413" unicode="Ĥ"/><glyph d="M420 0h-287v985h-102v272h102v177h287v-177h573v177h287v-177h102v-272h-102v-985h-287v573h-573v-573zM993 860v125h-573v-125h573z" glyph-name="Hbar" horiz-adv-x="1413" unicode="Ħ"/><glyph d="M420 0h-287v1434h287v-1434zM585 1855q6 -18 11 -39q4 -18 7.5 -41t3.5 -49q0 -50 -15 -89.5t-40.5 -67t-61 -42t-75.5 -14.5q-45 0 -77 19.5t-56.5 43t-46 43t-45.5 19.5q-19 0 -31 -17t-12 -34q0 -20 6.5 -38.5t17.5 -35.5l-188 -8q-10 18 -18 42q-7 20 -12 48.5 t-5 63.5q0 89 54 139.5t147 50.5q39 0 66.5 -9.5t48 -23.5t35.5 -30.5t27.5 -30.5t25 -23.5t28.5 -9.5q17 0 26 15t9 38q0 27 -16 54z" glyph-name="Itilde" horiz-adv-x="553" unicode="Ĩ"/><glyph d="M420 0h-287v1434h287v-1434zM23 1514v211h506v-211h-506z" glyph-name="Imacron" horiz-adv-x="553" unicode="Ī"/><glyph d="M420 0h-287v1434h287v-1434zM485 1805q11 -25 16 -44t5 -45q0 -51 -17.5 -88t-47.5 -61.5t-70 -36.5t-85 -12q-47 0 -89 14.5t-73.5 42.5t-50 67.5t-18.5 90.5q0 20 3.5 36.5t14.5 35.5h172q-5 -14 -7.5 -29t-2.5 -29q0 -23 12.5 -39t36.5 -16q23 0 36.5 18t13.5 39 q0 16 -4 28t-9 28h164z" glyph-name="Ibreve" horiz-adv-x="553" unicode="Ĭ"/><glyph d="M264 -365q-29 0 -63.5 12t-64.5 35t-50 58t-20 80q0 53 31.5 98t74.5 82h-39v1434h287v-1434h-92q-14 -17 -27 -35.5t-23 -36.5t-16 -34.5t-6 -28.5q0 -16 10 -28.5t27 -12.5q22 0 40.5 14.5t26.5 34.5l142 -131q-48 -48 -108.5 -77.5t-129.5 -29.5z" glyph-name="Iogonek" horiz-adv-x="553" unicode="Į"/><glyph d="M420 0h-287v1434h287v-1434zM403 1645q0 -27 -10 -50.5t-27.5 -41t-40.5 -27.5t-49 -10t-49.5 10t-41 27.5t-28 41t-10.5 50.5q0 26 10.5 49.5t28 41t41 28t49.5 10.5t49 -10.5t40.5 -28t27.5 -41t10 -49.5z" glyph-name="Idotaccent" horiz-adv-x="553" unicode="İ"/><glyph d="M420 0h-287v1434h287v-1434zM1290 573q0 -119 -45 -223.5t-122.5 -182t-182 -122.5t-223.5 -45q-72 0 -144 18v308q32 -19 69 -29t75 -10q59 0 111.5 22.5t91.5 61.5t61.5 91t22.5 111v861h286v-861z" glyph-name="IJ" horiz-adv-x="1407" unicode="Ĳ"/><glyph d="M737 573q0 -119 -45 -223.5t-122.5 -182t-182 -122.5t-223.5 -45q-72 0 -144 18v308q32 -19 69 -29t75 -10q59 0 111.5 22.5t91.5 61.5t61.5 91t22.5 111v861h286v-861zM315 1650l270 254l277 -254l-113 -143l-160 146l-151 -142z" glyph-name="Jcircumflex" horiz-adv-x="854" unicode="Ĵ"/><glyph d="M420 0h-287v1434h287v-717l534 717h326l-453 -605l453 -829h-326l-315 580l-219 -293v-287zM776 -233q0 -36 -7 -76.5t-22 -80.5t-38.5 -75.5t-57.5 -60.5l-86 61q22 26 33.5 48.5t17.5 45.5q-49 10 -82 47.5t-33 90.5q0 27 11 51.5t30 43t44 29.5t53 11t53 -11 t43.5 -29.5t29.5 -43t11 -51.5z" glyph-name="Kcommaaccent" horiz-adv-x="1280" unicode="Ķ"/><glyph d="M1137 0h-1004v1434h287v-1147h717v-287zM541 1403l-113 149l297 277l164 -209z" glyph-name="Lacute" horiz-adv-x="1153" unicode="Ĺ"/><glyph d="M1137 0h-1004v1434h287v-1147h717v-287zM713 -233q0 -36 -7 -76.5t-22 -80.5t-38.5 -75.5t-57.5 -60.5l-86 61q22 26 33.5 48.5t17.5 45.5q-49 10 -82 47.5t-33 90.5q0 27 11 51.5t30 43t44 29.5t53 11t53 -11t43.5 -29.5t29.5 -43t11 -51.5z" glyph-name="Lcommaaccent" horiz-adv-x="1153" unicode="Ļ"/><glyph d="M1137 0h-1004v1434h287v-1147h717v-287zM1429 717q0 -36 -13.5 -67.5t-36.5 -54.5t-54 -36.5t-66 -13.5t-66.5 13.5t-55 36.5t-37 54.5t-13.5 67.5q0 34 13.5 65t37 54.5t55 37t66.5 13.5t66 -13.5t54 -37t36.5 -54.5t13.5 -65z" glyph-name="Ldot" horiz-adv-x="1526" unicode="Ŀ"/><glyph d="M1137 0h-1004v1434h287v-1147h717v-287zM815 1298q0 -35 -6.5 -75t-21.5 -79.5t-39 -75t-58 -60.5l-86 61q22 25 33.5 48t18.5 46q-24 5 -44.5 17t-36 30t-24 40.5t-8.5 47.5q0 28 10.5 53t29 44t43 30t52.5 11q29 0 54 -11t43.5 -30t29 -44t10.5 -53z" glyph-name="Lcaron" horiz-adv-x="1153" unicode="Ľ"/><glyph d="M1280 0h-307l-553 944v-944h-287v1434h307l553 -945v945h287v-1434zM701 1465l-113 149l297 277l164 -209z" glyph-name="Nacute" horiz-adv-x="1413" unicode="Ń"/><glyph d="M1280 0h-307l-553 944v-944h-287v1434h307l553 -945v945h287v-1434zM844 -233q0 -36 -7 -76.5t-22 -80.5t-38.5 -75.5t-57.5 -60.5l-86 61q22 26 33.5 48.5t17.5 45.5q-49 10 -82 47.5t-33 90.5q0 27 11 51.5t30 43t44 29.5t53 11t53 -11t43.5 -29.5t29.5 -43t11 -51.5z" glyph-name="Ncommaaccent" horiz-adv-x="1413" unicode="Ņ"/><glyph d="M1280 0h-307l-553 944v-944h-287v1434h307l553 -945v945h287v-1434zM713 1487l-281 254l113 143l161 -146l150 140l123 -135z" glyph-name="Ncaron" horiz-adv-x="1413" unicode="Ň"/><glyph d="M1280 164q0 -119 -45 -223.5t-122.5 -182.5t-182 -123t-223.5 -45q-38 0 -73.5 5t-70.5 14v307q32 -19 68.5 -29t75.5 -10q40 0 77 11t69 30.5t58.5 47t44.5 59.5l-536 919v-944h-287v1434h307l553 -945v945h287v-1270z" glyph-name="Eng" horiz-adv-x="1413" unicode="Ŋ"/><glyph d="M1538 711q0 -102 -26.5 -196.5t-74.5 -177t-116 -150.5t-150 -116.5t-177 -75t-197 -26.5t-196.5 26.5t-177 75t-150.5 116.5t-116.5 150.5t-75 177t-26.5 196.5t26.5 197t75 177t116.5 150t150.5 116t177 74.5t196.5 26.5t197 -26.5t177 -74.5t150 -116t116 -150 t74.5 -177t26.5 -197zM1253 711q0 94 -36 177.5t-97.5 145t-145 97.5t-177.5 36q-95 0 -178 -36t-145 -97.5t-98 -145t-36 -177.5t36 -176.5t98 -144.5t145 -98t178 -36q94 0 177.5 36t145 98t97.5 144.5t36 176.5zM543 1534v211h506v-211h-506z" glyph-name="Omacron" horiz-adv-x="1593" unicode="Ō"/><glyph d="M1538 711q0 -102 -26.5 -196.5t-74.5 -177t-116 -150.5t-150 -116.5t-177 -75t-197 -26.5t-196.5 26.5t-177 75t-150.5 116.5t-116.5 150.5t-75 177t-26.5 196.5t26.5 197t75 177t116.5 150t150.5 116t177 74.5t196.5 26.5t197 -26.5t177 -74.5t150 -116t116 -150 t74.5 -177t26.5 -197zM1253 711q0 94 -36 177.5t-97.5 145t-145 97.5t-177.5 36q-95 0 -178 -36t-145 -97.5t-98 -145t-36 -177.5t36 -176.5t98 -144.5t145 -98t178 -36q94 0 177.5 36t145 98t97.5 144.5t36 176.5zM1005 1827q11 -25 16 -44t5 -45q0 -51 -17.5 -88 t-47.5 -61.5t-70 -36.5t-85 -12q-47 0 -89 14.5t-73.5 42.5t-50 67.5t-18.5 90.5q0 20 3.5 36.5t14.5 35.5h172q-5 -14 -7.5 -29t-2.5 -29q0 -23 12.5 -39t36.5 -16q23 0 36.5 18t13.5 39q0 16 -4 28t-9 28h164z" glyph-name="Obreve" horiz-adv-x="1593" unicode="Ŏ"/><glyph d="M1538 711q0 -102 -26.5 -196.5t-74.5 -177t-116 -150.5t-150 -116.5t-177 -75t-197 -26.5t-196.5 26.5t-177 75t-150.5 116.5t-116.5 150.5t-75 177t-26.5 196.5t26.5 197t75 177t116.5 150t150.5 116t177 74.5t196.5 26.5t197 -26.5t177 -74.5t150 -116t116 -150 t74.5 -177t26.5 -197zM1253 711q0 94 -36 177.5t-97.5 145t-145 97.5t-177.5 36q-95 0 -178 -36t-145 -97.5t-98 -145t-36 -177.5t36 -176.5t98 -144.5t145 -98t178 -36q94 0 177.5 36t145 98t97.5 144.5t36 176.5zM629 1562l-131 127l248 328l196 -182zM975 1517l-133 127 l248 324l196 -182z" glyph-name="Ohungarumlaut" horiz-adv-x="1593" unicode="Ő"/><glyph d="M420 1147v-574h287q59 0 111 22.5t91 61.5t61.5 91.5t22.5 111.5t-22.5 111.5t-61.5 91.5t-91 61.5t-111 22.5h-287zM420 0h-287v1434h574q79 0 152 -20.5t136.5 -58t116 -90t90 -116.5t58 -137t20.5 -152q0 -74 -18.5 -144t-53 -133t-84.5 -116t-112 -92l159 -375h-305 l-125 289l-321 -2v-287zM652 1506l-113 149l297 277l164 -209z" glyph-name="Racute" horiz-adv-x="1335" unicode="Ŕ"/><glyph d="M420 1147v-574h287q59 0 111 22.5t91 61.5t61.5 91.5t22.5 111.5t-22.5 111.5t-61.5 91.5t-91 61.5t-111 22.5h-287zM420 0h-287v1434h574q79 0 152 -20.5t136.5 -58t116 -90t90 -116.5t58 -137t20.5 -152q0 -74 -18.5 -144t-53 -133t-84.5 -116t-112 -92l159 -375h-305 l-125 289l-321 -2v-287zM805 -233q0 -36 -7 -76.5t-22 -80.5t-38.5 -75.5t-57.5 -60.5l-86 61q22 26 33.5 48.5t17.5 45.5q-49 10 -82 47.5t-33 90.5q0 27 11 51.5t30 43t44 29.5t53 11t53 -11t43.5 -29.5t29.5 -43t11 -51.5z" glyph-name="Rcommaaccent" horiz-adv-x="1335" unicode="Ŗ"/><glyph d="M420 1147v-574h287q59 0 111 22.5t91 61.5t61.5 91.5t22.5 111.5t-22.5 111.5t-61.5 91.5t-91 61.5t-111 22.5h-287zM420 0h-287v1434h574q79 0 152 -20.5t136.5 -58t116 -90t90 -116.5t58 -137t20.5 -152q0 -74 -18.5 -144t-53 -133t-84.5 -116t-112 -92l159 -375h-305 l-125 289l-321 -2v-287zM674 1508l-281 254l113 143l161 -146l150 140l123 -135z" glyph-name="Rcaron" horiz-adv-x="1335" unicode="Ř"/><glyph d="M49 1004q0 89 34 167t92.5 136.5t136.5 92.5t167 34h658v-287h-658q-30 0 -56 -11t-45.5 -30.5t-30.5 -45.5t-11 -56t11 -56.5t30.5 -46t45.5 -30.5t56 -11h287q89 0 167.5 -33.5t137 -92t92 -137t33.5 -167.5t-33.5 -167t-92 -136.5t-137 -92.5t-167.5 -34h-637v287h637 q30 0 56 11t45.5 30.5t30.5 45.5t11 56t-11 56t-30.5 45.5t-45.5 30.5t-56 11h-287q-89 0 -167 34t-136.5 92.5t-92.5 137t-34 167.5zM652 1526l-113 149l297 277l164 -209z" glyph-name="Sacute" horiz-adv-x="1251" unicode="Ś"/><glyph d="M49 1004q0 89 34 167t92.5 136.5t136.5 92.5t167 34h658v-287h-658q-30 0 -56 -11t-45.5 -30.5t-30.5 -45.5t-11 -56t11 -56.5t30.5 -46t45.5 -30.5t56 -11h287q89 0 167.5 -33.5t137 -92t92 -137t33.5 -167.5t-33.5 -167t-92 -136.5t-137 -92.5t-167.5 -34h-637v287h637 q30 0 56 11t45.5 30.5t30.5 45.5t11 56t-11 56t-30.5 45.5t-45.5 30.5t-56 11h-287q-89 0 -167 34t-136.5 92.5t-92.5 137t-34 167.5zM352 1650l270 254l277 -254l-113 -143l-160 146l-151 -142z" glyph-name="Scircumflex" horiz-adv-x="1251" unicode="Ŝ"/><glyph d="M596 -461q-36 2 -69 15t-59 28q-30 18 -56 39l55 150q23 -17 46 -29q20 -11 41 -20t38 -9q22 0 36.5 14t14.5 37q0 28 -21.5 40t-46.5 12q-31 0 -57 -17l72 201h-461v287h637q30 0 56 11t45.5 30.5t30.5 45.5t11 56t-11 56t-30.5 45.5t-45.5 30.5t-56 11h-287 q-89 0 -167 34t-136.5 92.5t-92.5 137t-34 167.5t34 167t92.5 136.5t136.5 92.5t167 34h658v-287h-658q-30 0 -56 -11t-45.5 -30.5t-30.5 -45.5t-11 -56t11 -56.5t30.5 -46t45.5 -30.5t56 -11h287q89 0 167.5 -33.5t137 -92t92 -137t33.5 -167.5t-33.5 -167t-92 -136.5 t-137 -92.5t-167.5 -34h-53l-27 -78q31 -4 59 -18t48.5 -36.5t32.5 -53t12 -66.5q0 -50 -17 -89t-47 -65.5t-71.5 -40.5t-90.5 -14h-16z" glyph-name="Scedilla" horiz-adv-x="1251" unicode="Ş"/><glyph d="M735 0h-286v1147h-431v287h1147v-287h-430v-1147zM729 -233q0 -36 -7 -76.5t-22 -80.5t-38.5 -75.5t-57.5 -60.5l-86 61q22 26 33.5 48.5t17.5 45.5q-49 10 -82 47.5t-33 90.5q0 27 11 51.5t30 43t44 29.5t53 11t53 -11t43.5 -29.5t29.5 -43t11 -51.5z" glyph-name="Tcommaaccent" horiz-adv-x="1184" unicode="Ţ"/><glyph d="M735 0h-286v1147h-431v287h1147v-287h-430v-1147zM598 1508l-281 254l113 143l161 -146l150 140l123 -135z" glyph-name="Tcaron" horiz-adv-x="1184" unicode="Ť"/><glyph d="M449 745v402h-431v287h1147v-287h-430v-402h164v-272h-164v-473h-286v473h-164v272h164z" glyph-name="Tbar" horiz-adv-x="1184" unicode="Ŧ"/><glyph d="M1264 573q0 -119 -45 -223.5t-123 -182t-182.5 -122.5t-223.5 -45t-223.5 45t-182 122.5t-122.5 182t-45 223.5v861h286v-861q0 -59 22.5 -111t61.5 -91t91.5 -61.5t111.5 -22.5t111.5 22.5t91.5 61.5t61.5 91t22.5 111v861h287v-861zM997 1855q6 -18 11 -39 q4 -18 7.5 -41t3.5 -49q0 -50 -15 -89.5t-40.5 -67t-61 -42t-75.5 -14.5q-45 0 -77 19.5t-56.5 43t-46 43t-45.5 19.5q-19 0 -31 -17t-12 -34q0 -20 6.5 -38.5t17.5 -35.5l-188 -8q-10 18 -18 42q-7 20 -12 48.5t-5 63.5q0 89 54 139.5t147 50.5q39 0 66.5 -9.5t48 -23.5 t35.5 -30.5t27.5 -30.5t25 -23.5t28.5 -9.5q17 0 26 15t9 38q0 27 -16 54z" glyph-name="Utilde" unicode="Ũ"/><glyph d="M1264 573q0 -119 -45 -223.5t-123 -182t-182.5 -122.5t-223.5 -45t-223.5 45t-182 122.5t-122.5 182t-45 223.5v861h286v-861q0 -59 22.5 -111t61.5 -91t91.5 -61.5t111.5 -22.5t111.5 22.5t91.5 61.5t61.5 91t22.5 111v861h287v-861zM436 1514v211h506v-211h-506z" glyph-name="Umacron" unicode="Ū"/><glyph d="M1264 573q0 -119 -45 -223.5t-123 -182t-182.5 -122.5t-223.5 -45t-223.5 45t-182 122.5t-122.5 182t-45 223.5v861h286v-861q0 -59 22.5 -111t61.5 -91t91.5 -61.5t111.5 -22.5t111.5 22.5t91.5 61.5t61.5 91t22.5 111v861h287v-861zM899 1786q11 -25 16 -44t5 -45 q0 -51 -17.5 -88t-47.5 -61.5t-70 -36.5t-85 -12q-47 0 -89 14.5t-73.5 42.5t-50 67.5t-18.5 90.5q0 20 3.5 36.5t14.5 35.5h172q-5 -14 -7.5 -29t-2.5 -29q0 -23 12.5 -39t36.5 -16q23 0 36.5 18t13.5 39q0 16 -4 28t-9 28h164z" glyph-name="Ubreve" unicode="Ŭ"/><glyph d="M1264 573q0 -119 -45 -223.5t-123 -182t-182.5 -122.5t-223.5 -45t-223.5 45t-182 122.5t-122.5 182t-45 223.5v861h286v-861q0 -59 22.5 -111t61.5 -91t91.5 -61.5t111.5 -22.5t111.5 22.5t91.5 61.5t61.5 91t22.5 111v861h287v-861zM887 1687q0 -41 -15.5 -76.5 t-42.5 -62t-63 -42t-77 -15.5q-40 0 -76 15.5t-63 42t-42.5 62t-15.5 76.5t15.5 77t42.5 63t63 43t76 16q41 0 77 -16t63 -43t42.5 -63t15.5 -77zM754 1687q0 28 -19 48t-46 20q-28 0 -46 -20t-18 -48q0 -26 18 -44.5t46 -18.5q27 0 46 18.5t19 44.5z" glyph-name="Uring" unicode="Ů"/><glyph d="M1264 573q0 -119 -45 -223.5t-123 -182t-182.5 -122.5t-223.5 -45t-223.5 45t-182 122.5t-122.5 182t-45 223.5v861h286v-861q0 -59 22.5 -111t61.5 -91t91.5 -61.5t111.5 -22.5t111.5 22.5t91.5 61.5t61.5 91t22.5 111v861h287v-861zM528 1521l-131 127l248 328 l196 -182zM874 1476l-133 127l248 324l196 -182z" glyph-name="Uhungarumlaut" unicode="Ű"/><glyph d="M662 -365q-29 0 -64 12t-65 35t-50 58t-20 80q0 29 9.5 55.5t25.5 50t37.5 44.5t44.5 40q-99 19 -184 70t-147 125.5t-97 168.5t-35 199v861h286v-861q0 -59 22.5 -111t61.5 -91t91.5 -61.5t111.5 -22.5t111.5 22.5t91.5 61.5t61.5 91t22.5 111v861h287v-861 q0 -76 -19 -147t-54 -133t-84 -114t-108.5 -90t-129 -61.5t-144.5 -27.5q-13 -17 -26 -35.5t-23 -36.5t-16.5 -34.5t-6.5 -28.5q0 -16 10 -28.5t27 -12.5q22 0 41 14.5t27 34.5l141 -131q-48 -48 -108 -77.5t-129 -29.5z" glyph-name="Uogonek" unicode="Ų"/><glyph d="M1556 410q0 -89 -33.5 -167.5t-92 -137t-137 -92t-167.5 -33.5q-80 0 -153.5 28t-132.5 82q-59 -54 -133 -82t-154 -28q-89 0 -167.5 33.5t-137 92t-92 137t-33.5 167.5v1024h287v-1024q0 -30 11 -56.5t30.5 -46t45.5 -30.5t56 -11t56 11t45.5 30.5t30.5 46t11 56.5v1024 h287v-1024q0 -30 11 -56.5t30.5 -46t45.5 -30.5t56 -11t56 11t45.5 30.5t31 46t11.5 56.5v1024h286v-1024zM565 1650l270 254l277 -254l-113 -143l-160 146l-151 -142z" glyph-name="Wcircumflex" horiz-adv-x="1679" unicode="Ŵ"/><glyph d="M1556 410q0 -89 -33.5 -167.5t-92 -137t-137 -92t-167.5 -33.5q-80 0 -153.5 28t-132.5 82q-59 -54 -133 -82t-154 -28q-89 0 -167.5 33.5t-137 92t-92 137t-33.5 167.5v1024h287v-1024q0 -30 11 -56.5t30.5 -46t45.5 -30.5t56 -11t56 11t45.5 30.5t30.5 46t11 56.5v1024 h287v-1024q0 -30 11 -56.5t30.5 -46t45.5 -30.5t56 -11t56 11t45.5 30.5t31 46t11.5 56.5v1024h286v-1024zM803 1506l-350 217l166 209l295 -277z" glyph-name="Wgrave" horiz-adv-x="1679" unicode="Ẁ"/><glyph d="M1556 410q0 -89 -33.5 -167.5t-92 -137t-137 -92t-167.5 -33.5q-80 0 -153.5 28t-132.5 82q-59 -54 -133 -82t-154 -28q-89 0 -167.5 33.5t-137 92t-92 137t-33.5 167.5v1024h287v-1024q0 -30 11 -56.5t30.5 -46t45.5 -30.5t56 -11t56 11t45.5 30.5t30.5 46t11 56.5v1024 h287v-1024q0 -30 11 -56.5t30.5 -46t45.5 -30.5t56 -11t56 11t45.5 30.5t31 46t11.5 56.5v1024h286v-1024zM865 1506l-113 149l297 277l164 -209z" glyph-name="Wacute" horiz-adv-x="1679" unicode="Ẃ"/><glyph d="M1556 410q0 -89 -33.5 -167.5t-92 -137t-137 -92t-167.5 -33.5q-80 0 -153.5 28t-132.5 82q-59 -54 -133 -82t-154 -28q-89 0 -167.5 33.5t-137 92t-92 137t-33.5 167.5v1024h287v-1024q0 -30 11 -56.5t30.5 -46t45.5 -30.5t56 -11t56 11t45.5 30.5t30.5 46t11 56.5v1024 h287v-1024q0 -30 11 -56.5t30.5 -46t45.5 -30.5t56 -11t56 11t45.5 30.5t31 46t11.5 56.5v1024h286v-1024zM1146 1648q0 -26 -9.5 -49t-26 -40.5t-39 -27.5t-47.5 -10q-26 0 -49.5 10t-40.5 27.5t-27 40.5t-10 49q0 25 10 48t27 40t40.5 27t49.5 10q25 0 47.5 -10t39 -27 t26 -40t9.5 -48zM786 1650q0 -27 -10 -50.5t-27.5 -41t-40.5 -27.5t-49 -10t-49.5 10t-41 27.5t-28 41t-10.5 50.5q0 26 10.5 49t28 40.5t41 27.5t49.5 10t49 -10t40.5 -27.5t27.5 -40.5t10 -49z" glyph-name="Wdieresis" horiz-adv-x="1679" unicode="Ẅ"/><glyph d="M778 0h-286v449q-95 24 -174.5 77t-136.5 126.5t-88.5 163t-31.5 188.5v430h287v-430q0 -59 22.5 -111.5t61.5 -91.5t91.5 -61.5t111.5 -22.5t111.5 22.5t91.5 61.5t61.5 91.5t22.5 111.5v430h286v-430q0 -99 -31.5 -188.5t-88.5 -163t-136 -126.5t-174 -77v-449z M360 1609l270 254l277 -254l-113 -143l-160 146l-151 -142z" glyph-name="Ycircumflex" horiz-adv-x="1270" unicode="Ŷ"/><glyph d="M778 0h-286v449q-95 24 -174.5 77t-136.5 126.5t-88.5 163t-31.5 188.5v430h287v-430q0 -59 22.5 -111.5t61.5 -91.5t91.5 -61.5t111.5 -22.5t111.5 22.5t91.5 61.5t61.5 91.5t22.5 111.5v430h286v-430q0 -99 -31.5 -188.5t-88.5 -163t-136 -126.5t-174 -77v-449z M559 1506l-350 217l166 209l295 -277z" glyph-name="Ygrave" horiz-adv-x="1270" unicode="Ỳ"/><glyph d="M1157 0h-1110l612 1147h-612v287h1110l-610 -1147h610v-287zM629 1506l-113 149l297 277l164 -209z" glyph-name="Zacute" horiz-adv-x="1202" unicode="Ź"/><glyph d="M1157 0h-1110l612 1147h-612v287h1110l-610 -1147h610v-287zM729 1645q0 -27 -10 -50.5t-27.5 -41t-40.5 -27.5t-49 -10t-49.5 10t-41 27.5t-28 41t-10.5 50.5q0 26 10.5 49.5t28 41t41 28t49.5 10.5t49 -10.5t40.5 -28t27.5 -41t10 -49.5z" glyph-name="Zdotaccent" horiz-adv-x="1202" unicode="Ż"/><glyph d="M1958 0h-983v287h-572v-287h-286v860q0 119 45 223.5t122.5 182.5t182 123t223.5 45h1268v-287h-696l2 -287h469v-287h-469v-286h694v-287zM975 573v574h-285q-59 0 -111.5 -22.5t-91.5 -61.5t-61.5 -91.5t-22.5 -111.5v-287h572zM1123 1516l-113 149l297 277l164 -209z" glyph-name="AEacute" horiz-adv-x="2025" unicode="Ǽ"/><glyph d="M1315 1239q51 -50 92.5 -109.5t70.5 -126.5t44.5 -140.5t15.5 -151.5q0 -102 -26.5 -196.5t-74.5 -177t-116 -150.5t-150 -116.5t-177 -75t-197 -26.5q-94 0 -181 22t-165 64l-39 -55h-275l135 186q-100 103 -158.5 236.5t-58.5 288.5q0 102 26.5 197t75 177t116.5 150 t150.5 116t177 74.5t196.5 26.5q91 0 176.5 -22t161.5 -60l47 64h274zM1253 711q0 85 -28.5 160t-79.5 135l-522 -715q81 -35 174 -35q94 0 177.5 36t145 98t97.5 144.5t36 176.5zM340 711q0 -84 27.5 -157t76.5 -132l521 713q-41 15 -82 23.5t-86 8.5q-95 0 -178 -36 t-145 -97.5t-98 -145t-36 -177.5zM803 1526l-113 149l297 277l164 -209z" glyph-name="Oslashacute" horiz-adv-x="1593" unicode="Ǿ"/><glyph d="M1141 0h-66l-106 147q-39 -35 -82.5 -65.5t-91.5 -53t-98.5 -35.5t-102.5 -13q-113 0 -212.5 38t-174 110.5t-117.5 177.5t-43 239q0 125 43 229.5t117.5 179.5t174 116.5t212.5 41.5q52 0 103 -13t99 -36t91.5 -54t81.5 -67l106 127h66v-1069zM866 545q0 56 -21.5 108.5 t-58.5 93t-86.5 65t-105.5 24.5t-105.5 -19t-86 -56t-57.5 -91.5t-21 -124.5t21 -124.5t57.5 -91.5t86 -56t105.5 -19t105.5 24.5t86.5 65t58.5 93t21.5 108.5zM328 1198v211h506v-211h-506z" glyph-name="amacron" horiz-adv-x="1245" unicode="ā"/><glyph d="M1141 0h-66l-106 147q-39 -35 -82.5 -65.5t-91.5 -53t-98.5 -35.5t-102.5 -13q-113 0 -212.5 38t-174 110.5t-117.5 177.5t-43 239q0 125 43 229.5t117.5 179.5t174 116.5t212.5 41.5q52 0 103 -13t99 -36t91.5 -54t81.5 -67l106 127h66v-1069zM866 545q0 56 -21.5 108.5 t-58.5 93t-86.5 65t-105.5 24.5t-105.5 -19t-86 -56t-57.5 -91.5t-21 -124.5t21 -124.5t57.5 -91.5t86 -56t105.5 -19t105.5 24.5t86.5 65t58.5 93t21.5 108.5zM774 1479q11 -25 16 -44t5 -45q0 -51 -17.5 -88t-47.5 -61.5t-70 -36.5t-85 -12q-47 0 -89 14.5t-73.5 42.5 t-50 67.5t-18.5 90.5q0 20 3.5 36.5t14.5 35.5h172q-5 -14 -7.5 -29t-2.5 -29q0 -23 12.5 -39t36.5 -16q23 0 36.5 18t13.5 39q0 16 -4 28t-9 28h164z" glyph-name="abreve" horiz-adv-x="1245" unicode="ă"/><glyph d="M1141 0q-15 -17 -29 -35.5t-25 -36.5t-17.5 -34.5t-6.5 -28.5q0 -16 10 -28.5t27 -12.5q21 0 40 14.5t27 34.5l142 -131q-48 -48 -108.5 -77.5t-129.5 -29.5q-29 0 -64 12t-65 35t-50 58t-20 80q0 37 15.5 69t39.5 60.5t53.5 53.5t57.5 46l-69 98q-39 -35 -82.5 -65.5 t-91.5 -53t-98.5 -35.5t-102.5 -13q-113 0 -212.5 38t-174 110.5t-117.5 177.5t-43 239q0 125 43 229.5t117.5 179.5t174 116.5t212.5 41.5q52 0 103 -13t99 -36t91.5 -54t81.5 -67l106 127h66v-1069zM866 545q0 56 -21.5 108.5t-58.5 93t-86.5 65t-105.5 24.5t-105.5 -19 t-86 -56t-57.5 -91.5t-21 -124.5t21 -124.5t57.5 -91.5t86 -56t105.5 -19t105.5 24.5t86.5 65t58.5 93t21.5 108.5z" glyph-name="aogonek" horiz-adv-x="1245" unicode="ą"/><glyph d="M1040 858l-200 -201q-15 42 -41 75.5t-58.5 56.5t-70.5 35t-78 12q-56 0 -105.5 -23t-86 -64.5t-57.5 -98.5t-21 -126q0 -56 21 -105t57.5 -86t86 -58t105.5 -21q40 0 77 11t69.5 31.5t58 50t41.5 65.5l200 -201q-38 -54 -87.5 -97t-107 -73t-121 -45.5t-130.5 -15.5 q-113 0 -212.5 42.5t-174 116.5t-117.5 173t-43 212q0 123 43 230t117.5 186.5t174 125.5t212.5 46q67 0 131.5 -17t123 -49.5t108 -79.5t85.5 -108zM568 1190l-113 149l297 277l164 -209z" glyph-name="cacute" horiz-adv-x="1069" unicode="ć"/><glyph d="M1040 858l-200 -201q-15 42 -41 75.5t-58.5 56.5t-70.5 35t-78 12q-56 0 -105.5 -23t-86 -64.5t-57.5 -98.5t-21 -126q0 -56 21 -105t57.5 -86t86 -58t105.5 -21q40 0 77 11t69.5 31.5t58 50t41.5 65.5l200 -201q-38 -54 -87.5 -97t-107 -73t-121 -45.5t-130.5 -15.5 q-113 0 -212.5 42.5t-174 116.5t-117.5 173t-43 212q0 123 43 230t117.5 186.5t174 125.5t212.5 46q67 0 131.5 -17t123 -49.5t108 -79.5t85.5 -108zM311 1314l270 254l277 -254l-113 -143l-160 146l-151 -142z" glyph-name="ccircumflex" horiz-adv-x="1069" unicode="ĉ"/><glyph d="M1040 858l-200 -201q-15 42 -41 75.5t-58.5 56.5t-70.5 35t-78 12q-56 0 -105.5 -23t-86 -64.5t-57.5 -98.5t-21 -126q0 -56 21 -105t57.5 -86t86 -58t105.5 -21q40 0 77 11t69.5 31.5t58 50t41.5 65.5l200 -201q-38 -54 -87.5 -97t-107 -73t-121 -45.5t-130.5 -15.5 q-113 0 -212.5 42.5t-174 116.5t-117.5 173t-43 212q0 123 43 230t117.5 186.5t174 125.5t212.5 46q67 0 131.5 -17t123 -49.5t108 -79.5t85.5 -108zM721 1329q0 -27 -10 -50.5t-27.5 -41t-40.5 -27.5t-49 -10t-49.5 10t-41 27.5t-28 41t-10.5 50.5q0 26 10.5 49.5t28 41 t41 28t49.5 10.5t49 -10.5t40.5 -28t27.5 -41t10 -49.5z" glyph-name="cdotaccent" horiz-adv-x="1069" unicode="ċ"/><glyph d="M1040 858l-200 -201q-15 42 -41 75.5t-58.5 56.5t-70.5 35t-78 12q-56 0 -105.5 -23t-86 -64.5t-57.5 -98.5t-21 -126q0 -56 21 -105t57.5 -86t86 -58t105.5 -21q40 0 77 11t69.5 31.5t58 50t41.5 65.5l200 -201q-38 -54 -87.5 -97t-107 -73t-121 -45.5t-130.5 -15.5 q-113 0 -212.5 42.5t-174 116.5t-117.5 173t-43 212q0 123 43 230t117.5 186.5t174 125.5t212.5 46q67 0 131.5 -17t123 -49.5t108 -79.5t85.5 -108zM600 1192l-281 254l113 143l161 -146l150 140l123 -135z" glyph-name="ccaron" horiz-adv-x="1069" unicode="č"/><glyph d="M1139 0h-66l-106 147q-39 -35 -82.5 -65.5t-91.5 -53t-98.5 -35.5t-102.5 -13q-113 0 -212.5 42.5t-174 118t-117.5 179t-43 225.5q0 121 43 225t117.5 180t174 119t212.5 43q36 0 74.5 -6t75 -19.5t68.5 -35.5t54 -54v500h275v-1497zM864 545q0 56 -21.5 108.5t-58.5 93 t-86.5 65t-105.5 24.5t-105.5 -20t-86 -57.5t-57.5 -91.5t-21 -122q0 -59 21 -112t57.5 -93t86 -63t105.5 -23t105.5 24.5t86.5 65t58.5 93t21.5 108.5zM1515 1298q0 -35 -6.5 -75t-21.5 -79.5t-39 -75t-58 -60.5l-86 61q22 25 33.5 48t18.5 46q-24 5 -44.5 17t-36 30 t-24 40.5t-8.5 47.5q0 28 10.5 53t29 44t43 30t52.5 11q29 0 54 -11t43.5 -30t29 -44t10.5 -53z" glyph-name="dcaron" horiz-adv-x="1516" unicode="ď"/><glyph d="M1139 1438h104v-273h-104v-1165h-66l-106 147q-39 -35 -82.5 -65.5t-91.5 -53t-98.5 -35.5t-102.5 -13q-113 0 -212.5 42.5t-174 118t-117.5 179t-43 225.5q0 121 43 225t117.5 180t174 119t212.5 43q36 0 74.5 -6t75 -19.5t68.5 -35.5t54 -54v168h-110v273h110v59h275 v-59zM864 545q0 56 -21.5 108.5t-58.5 93t-86.5 65t-105.5 24.5t-105.5 -20t-86 -57.5t-57.5 -91.5t-21 -122q0 -59 21 -112t57.5 -93t86 -63t105.5 -23t105.5 24.5t86.5 65t58.5 93t21.5 108.5z" glyph-name="dcroat" horiz-adv-x="1243" unicode="đ"/><glyph d="M530 262q16 -5 32 -6.5t32 -1.5q40 0 77 11t69.5 31.5t58 50t41.5 65.5l200 -201q-38 -54 -87.5 -97t-107 -73t-121 -45.5t-130.5 -15.5q-113 0 -212.5 42t-174 117t-117.5 178.5t-43 227.5q0 127 43 232t117.5 179t174 115t212.5 41q67 0 131 -16t121.5 -46t107.5 -73.5 t88 -97.5zM670 825q-19 7 -37.5 9t-38.5 2q-56 0 -105.5 -20.5t-86 -58.5t-57.5 -91.5t-21 -120.5q0 -15 1.5 -34t5 -38.5t8.5 -37.5t13 -32zM326 1198v211h506v-211h-506z" glyph-name="emacron" horiz-adv-x="1075" unicode="ē"/><glyph d="M530 262q16 -5 32 -6.5t32 -1.5q40 0 77 11t69.5 31.5t58 50t41.5 65.5l200 -201q-38 -54 -87.5 -97t-107 -73t-121 -45.5t-130.5 -15.5q-113 0 -212.5 42t-174 117t-117.5 178.5t-43 227.5q0 127 43 232t117.5 179t174 115t212.5 41q67 0 131 -16t121.5 -46t107.5 -73.5 t88 -97.5zM670 825q-19 7 -37.5 9t-38.5 2q-56 0 -105.5 -20.5t-86 -58.5t-57.5 -91.5t-21 -120.5q0 -15 1.5 -34t5 -38.5t8.5 -37.5t13 -32zM766 1479q11 -25 16 -44t5 -45q0 -51 -17.5 -88t-47.5 -61.5t-70 -36.5t-85 -12q-47 0 -89 14.5t-73.5 42.5t-50 67.5t-18.5 90.5 q0 20 3.5 36.5t14.5 35.5h172q-5 -14 -7.5 -29t-2.5 -29q0 -23 12.5 -39t36.5 -16q23 0 36.5 18t13.5 39q0 16 -4 28t-9 28h164z" glyph-name="ebreve" horiz-adv-x="1075" unicode="ĕ"/><glyph d="M530 262q16 -5 32 -6.5t32 -1.5q40 0 77 11t69.5 31.5t58 50t41.5 65.5l200 -201q-38 -54 -87.5 -97t-107 -73t-121 -45.5t-130.5 -15.5q-113 0 -212.5 42t-174 117t-117.5 178.5t-43 227.5q0 127 43 232t117.5 179t174 115t212.5 41q67 0 131 -16t121.5 -46t107.5 -73.5 t88 -97.5zM670 825q-19 7 -37.5 9t-38.5 2q-56 0 -105.5 -20.5t-86 -58.5t-57.5 -91.5t-21 -120.5q0 -15 1.5 -34t5 -38.5t8.5 -37.5t13 -32zM707 1329q0 -27 -10 -50.5t-27.5 -41t-40.5 -27.5t-49 -10t-49.5 10t-41 27.5t-28 41t-10.5 50.5q0 26 10.5 49.5t28 41t41 28 t49.5 10.5t49 -10.5t40.5 -28t27.5 -41t10 -49.5z" glyph-name="edotaccent" horiz-adv-x="1075" unicode="ė"/><glyph d="M743 -365q-29 0 -63.5 12t-64.5 35t-50 58t-20 80q0 48 24.5 88t59.5 74q-10 -2 -18.5 -2h-16.5q-113 0 -212.5 42t-174 117t-117.5 178.5t-43 227.5q0 127 43 232t117.5 179t174 115t212.5 41q67 0 131 -16t121.5 -46t107.5 -73.5t88 -97.5l-512 -617q16 -5 32 -6.5 t32 -1.5q40 0 77 11t69.5 31.5t58 50t41.5 65.5l200 -201q-80 -114 -202 -174q-16 -18 -34 -41t-33.5 -47t-25.5 -46.5t-10 -37.5q0 -16 10 -28.5t27 -12.5q22 0 41 14.5t27 34.5l141 -131q-48 -48 -108 -77.5t-130 -29.5zM670 825q-19 7 -37.5 9t-38.5 2 q-56 0 -105.5 -20.5t-86 -58.5t-57.5 -91.5t-21 -120.5q0 -15 1.5 -34t5 -38.5t8.5 -37.5t13 -32z" glyph-name="eogonek" horiz-adv-x="1075" unicode="ę"/><glyph d="M530 262q16 -5 32 -6.5t32 -1.5q40 0 77 11t69.5 31.5t58 50t41.5 65.5l200 -201q-38 -54 -87.5 -97t-107 -73t-121 -45.5t-130.5 -15.5q-113 0 -212.5 42t-174 117t-117.5 178.5t-43 227.5q0 127 43 232t117.5 179t174 115t212.5 41q67 0 131 -16t121.5 -46t107.5 -73.5 t88 -97.5zM670 825q-19 7 -37.5 9t-38.5 2q-56 0 -105.5 -20.5t-86 -58.5t-57.5 -91.5t-21 -120.5q0 -15 1.5 -34t5 -38.5t8.5 -37.5t13 -32zM586 1192l-281 254l113 143l161 -146l150 140l123 -135z" glyph-name="ecaron" horiz-adv-x="1075" unicode="ě"/><glyph d="M866 545q0 56 -21.5 108.5t-58.5 93t-86.5 65t-105.5 24.5t-105.5 -19t-86 -56t-57.5 -91.5t-21 -124.5q0 -67 21 -120.5t57.5 -91.5t86 -58.5t105.5 -20.5t105.5 24.5t86.5 65t58.5 93t21.5 108.5zM1141 135q0 -113 -43 -212t-117.5 -173t-174 -117t-212.5 -43l-137 2 v273l135 -2q64 0 109 16.5t76 45t49.5 65.5t29.5 78q-16 -26 -46 -42.5t-66.5 -27t-76 -14.5t-73.5 -4q-113 0 -212.5 39t-174 111.5t-117.5 177.5t-43 237q0 121 43 225t117.5 180t174 119t212.5 43q52 0 103 -13t99 -36t91.5 -54t81.5 -67l106 127h66v-934zM313 1314 l270 254l277 -254l-113 -143l-160 146l-151 -142z" glyph-name="gcircumflex" horiz-adv-x="1245" unicode="ĝ"/><glyph d="M866 545q0 56 -21.5 108.5t-58.5 93t-86.5 65t-105.5 24.5t-105.5 -19t-86 -56t-57.5 -91.5t-21 -124.5q0 -67 21 -120.5t57.5 -91.5t86 -58.5t105.5 -20.5t105.5 24.5t86.5 65t58.5 93t21.5 108.5zM1141 135q0 -113 -43 -212t-117.5 -173t-174 -117t-212.5 -43l-137 2 v273l135 -2q64 0 109 16.5t76 45t49.5 65.5t29.5 78q-16 -26 -46 -42.5t-66.5 -27t-76 -14.5t-73.5 -4q-113 0 -212.5 39t-174 111.5t-117.5 177.5t-43 237q0 121 43 225t117.5 180t174 119t212.5 43q52 0 103 -13t99 -36t91.5 -54t81.5 -67l106 127h66v-934zM788 1481 q11 -25 16 -44t5 -45q0 -51 -17.5 -88t-47.5 -61.5t-70 -36.5t-85 -12q-47 0 -89 14.5t-73.5 42.5t-50 67.5t-18.5 90.5q0 20 3.5 36.5t14.5 35.5h172q-5 -14 -7.5 -29t-2.5 -29q0 -23 12.5 -39t36.5 -16q23 0 36.5 18t13.5 39q0 16 -4 28t-9 28h164z" glyph-name="gbreve" horiz-adv-x="1245" unicode="ğ"/><glyph d="M866 545q0 56 -21.5 108.5t-58.5 93t-86.5 65t-105.5 24.5t-105.5 -19t-86 -56t-57.5 -91.5t-21 -124.5q0 -67 21 -120.5t57.5 -91.5t86 -58.5t105.5 -20.5t105.5 24.5t86.5 65t58.5 93t21.5 108.5zM1141 135q0 -113 -43 -212t-117.5 -173t-174 -117t-212.5 -43l-137 2 v273l135 -2q64 0 109 16.5t76 45t49.5 65.5t29.5 78q-16 -26 -46 -42.5t-66.5 -27t-76 -14.5t-73.5 -4q-113 0 -212.5 39t-174 111.5t-117.5 177.5t-43 237q0 121 43 225t117.5 180t174 119t212.5 43q52 0 103 -13t99 -36t91.5 -54t81.5 -67l106 127h66v-934zM709 1319 q0 -27 -10 -50.5t-27.5 -41t-40.5 -27.5t-49 -10t-49.5 10t-41 27.5t-28 41t-10.5 50.5q0 26 10.5 49.5t28 41t41 28t49.5 10.5t49 -10.5t40.5 -28t27.5 -41t10 -49.5z" glyph-name="gdotaccent" horiz-adv-x="1245" unicode="ġ"/><glyph d="M866 545q0 56 -21.5 108.5t-58.5 93t-86.5 65t-105.5 24.5t-105.5 -19t-86 -56t-57.5 -91.5t-21 -124.5q0 -67 21 -120.5t57.5 -91.5t86 -58.5t105.5 -20.5t105.5 24.5t86.5 65t58.5 93t21.5 108.5zM1141 135q0 -113 -43 -212t-117.5 -173t-174 -117t-212.5 -43l-137 2 v273l135 -2q64 0 109 16.5t76 45t49.5 65.5t29.5 78q-16 -26 -46 -42.5t-66.5 -27t-76 -14.5t-73.5 -4q-113 0 -212.5 39t-174 111.5t-117.5 177.5t-43 237q0 121 43 225t117.5 180t174 119t212.5 43q52 0 103 -13t99 -36t91.5 -54t81.5 -67l106 127h66v-934zM444 1327 q0 35 6.5 75.5t21 80.5t38 75.5t57.5 61.5l88 -62q-23 -26 -34 -48.5t-17 -45.5q24 -5 44.5 -17t36 -30t24 -41t8.5 -49q0 -28 -11 -52.5t-29.5 -43t-43 -29t-51.5 -10.5q-29 0 -54.5 10.5t-44 29t-29 43t-10.5 52.5z" glyph-name="gcommaaccent" horiz-adv-x="1245" unicode="ģ"/><glyph d="M377 0h-273v1497h273v-473q49 37 101 52.5t106 15.5q99 0 186 -37.5t151.5 -103t102 -153t37.5 -186.5v-612h-275v612h2q0 42 -16 79.5t-44 65.5t-65 44t-79 16q-43 0 -81 -16t-66 -44t-44 -65.5t-16 -79.5v-612zM424 1294l270 254l277 -254l-113 -143l-160 146 l-151 -142z" glyph-name="hcircumflex" horiz-adv-x="1151" unicode="ĥ"/><glyph d="M377 0h-273v1182h-102v252h102v63h273v-63h96v-252h-96v-158q49 37 101 52.5t106 15.5q99 0 186 -37.5t151.5 -103t102 -153t37.5 -186.5v-612h-275v612h2q0 42 -16 79.5t-44 65.5t-65 44t-79 16q-43 0 -81 -16t-66 -44t-44 -65.5t-16 -79.5v-612z" glyph-name="hbar" horiz-adv-x="1151" unicode="ħ"/><glyph d="M379 0h-275v1071h275v-1071zM550 1499q6 -18 11 -39q4 -18 7.5 -41t3.5 -49q0 -50 -15 -89.5t-40.5 -67t-61 -42t-75.5 -14.5q-45 0 -77 19.5t-56.5 43t-46 43t-45.5 19.5q-19 0 -31 -17t-12 -34q0 -20 6.5 -38.5t17.5 -35.5l-188 -8q-10 18 -18 42q-7 20 -12 48.5 t-5 63.5q0 89 54 139.5t147 50.5q39 0 66.5 -9.5t48 -23.5t35.5 -30.5t27.5 -30.5t25 -23.5t28.5 -9.5q17 0 26 15t9 38q0 27 -16 54z" glyph-name="itilde" horiz-adv-x="483" unicode="ĩ"/><glyph d="M379 0h-275v1071h275v-1071zM-9 1157v211h506v-211h-506z" glyph-name="imacron" horiz-adv-x="483" unicode="ī"/><glyph d="M379 0h-275v1071h275v-1071zM446 1438q11 -25 16 -44t5 -45q0 -51 -17.5 -88t-47.5 -61.5t-70 -36.5t-85 -12q-47 0 -89 14.5t-73.5 42.5t-50 67.5t-18.5 90.5q0 20 3.5 36.5t14.5 35.5h172q-5 -14 -7.5 -29t-2.5 -29q0 -23 12.5 -39t36.5 -16q23 0 36.5 18t13.5 39 q0 16 -4 28t-9 28h164z" glyph-name="ibreve" horiz-adv-x="483" unicode="ĭ"/><glyph d="M242 -365q-29 0 -64 12t-65 35t-50 58t-20 80q0 53 31.5 98t75.5 82h-46v1071h275v-1071h-74q-14 -17 -27 -35.5t-23 -36.5t-16 -34.5t-6 -28.5q0 -16 10 -28.5t27 -12.5q22 0 41 14.5t27 34.5l141 -131q-48 -48 -108 -77.5t-129 -29.5zM426 1362q0 -38 -14.5 -71 t-39.5 -57.5t-58.5 -39t-71.5 -14.5t-71.5 14.5t-58 39t-39 57.5t-14.5 71q0 37 14.5 70.5t39 58t58 39t71.5 14.5t71.5 -14.5t58.5 -39t39.5 -58t14.5 -70.5z" glyph-name="iogonek" horiz-adv-x="483" unicode="į"/><glyph d="M426 1362q0 -38 -14.5 -71t-39.5 -57.5t-58.5 -39t-71.5 -14.5t-71.5 14.5t-58 39t-39 57.5t-14.5 71q0 37 14.5 70.5t39 58t58 39t71.5 14.5t71.5 -14.5t58.5 -39t39.5 -58t14.5 -70.5zM379 0h-275v1071h275v-1071zM913 1362q0 -38 -14.5 -71t-39 -57.5t-58 -39 t-70.5 -14.5q-39 0 -72.5 14.5t-58.5 39t-39.5 57.5t-14.5 71q0 37 14.5 70.5t39.5 58t58.5 39t72.5 14.5q37 0 70.5 -14.5t58 -39t39 -58t14.5 -70.5zM180 -408v275l151 -2q55 0 102 22.5t81.5 60t54.5 86.5t20 103v934h279v-934h-2q-1 -75 -20.5 -145t-55.5 -130.5 t-86 -110t-110.5 -85t-130 -55t-144.5 -19.5h-139z" glyph-name="ij" horiz-adv-x="971" unicode="ĳ"/><glyph d="M-303 -408v275l151 -2q55 0 102 22.5t81.5 60t54.5 86.5t20 103v934h279v-934h-2q-1 -75 -20.5 -145t-55.5 -130.5t-86 -110t-110.5 -85t-130 -55t-144.5 -19.5h-139zM-28 1273l270 254l277 -254l-113 -143l-160 146l-151 -142z" glyph-name="jcircumflex" horiz-adv-x="487" unicode="ĵ"/><glyph d="M379 0h-275v1497h275v-944l407 516h314l-355 -446l355 -623h-314l-217 389l-190 -252v-137zM688 -233q0 -36 -7 -76.5t-22 -80.5t-38.5 -75.5t-57.5 -60.5l-86 61q22 26 33.5 48.5t17.5 45.5q-49 10 -82 47.5t-33 90.5q0 27 11 51.5t30 43t44 29.5t53 11t53 -11 t43.5 -29.5t29.5 -43t11 -51.5z" glyph-name="kcommaaccent" horiz-adv-x="1104" unicode="ķ"/><glyph d="M379 0h-275v1077h275v-524l407 516h314l-355 -446l355 -623h-314l-217 389l-190 -252v-137z" glyph-name="kgreenlandic" horiz-adv-x="1104" unicode="ĸ"/><glyph d="M379 0h-275v1497h275v-1497zM308 1575l-113 149l297 277l164 -209z" glyph-name="lacute" horiz-adv-x="483" unicode="ĺ"/><glyph d="M379 0h-275v1497h275v-1497zM379 -233q0 -36 -7 -76.5t-22 -80.5t-38.5 -75.5t-57.5 -60.5l-86 61q22 26 33.5 48.5t17.5 45.5q-49 10 -82 47.5t-33 90.5q0 27 11 51.5t30 43t44 29.5t53 11t53 -11t43.5 -29.5t29.5 -43t11 -51.5z" glyph-name="lcommaaccent" horiz-adv-x="483" unicode="ļ"/><glyph d="M379 0h-275v1497h275v-1497zM854 717q0 -36 -13.5 -67.5t-36.5 -54.5t-54 -36.5t-66 -13.5t-66.5 13.5t-55 36.5t-37 54.5t-13.5 67.5q0 34 13.5 65t37 54.5t55 37t66.5 13.5t66 -13.5t54 -37t36.5 -54.5t13.5 -65z" glyph-name="ldotaccent" horiz-adv-x="950" unicode="ŀ"/><glyph d="M379 0h-275v1497h275v-1497zM755 1298q0 -35 -6.5 -75t-21.5 -79.5t-39 -75t-58 -60.5l-86 61q22 25 33.5 48t18.5 46q-24 5 -44.5 17t-36 30t-24 40.5t-8.5 47.5q0 28 10.5 53t29 44t43 30t52.5 11q29 0 54 -11t43.5 -30t29 -44t10.5 -53z" glyph-name="lcaron" horiz-adv-x="756" unicode="ľ"/><glyph d="M377 0h-273v1071h66l90 -104q66 60 149.5 92.5t174.5 32.5q98 0 185 -37.5t152 -103t102.5 -153t37.5 -186.5v-612h-273v612q0 42 -16 79.5t-44 65.5t-65 44t-79 16q-43 0 -81 -16t-66 -44t-44 -65.5t-16 -79.5v-612zM621 1190l-113 149l297 277l164 -209z" glyph-name="nacute" horiz-adv-x="1151" unicode="ń"/><glyph d="M377 0h-273v1071h66l90 -104q66 60 149.5 92.5t174.5 32.5q98 0 185 -37.5t152 -103t102.5 -153t37.5 -186.5v-612h-273v612q0 42 -16 79.5t-44 65.5t-65 44t-79 16q-43 0 -81 -16t-66 -44t-44 -65.5t-16 -79.5v-612zM713 -233q0 -36 -7 -76.5t-22 -80.5t-38.5 -75.5 t-57.5 -60.5l-86 61q22 26 33.5 48.5t17.5 45.5q-49 10 -82 47.5t-33 90.5q0 27 11 51.5t30 43t44 29.5t53 11t53 -11t43.5 -29.5t29.5 -43t11 -51.5z" glyph-name="ncommaaccent" horiz-adv-x="1151" unicode="ņ"/><glyph d="M377 0h-273v1071h66l90 -104q66 60 149.5 92.5t174.5 32.5q98 0 185 -37.5t152 -103t102.5 -153t37.5 -186.5v-612h-273v612q0 42 -16 79.5t-44 65.5t-65 44t-79 16q-43 0 -81 -16t-66 -44t-44 -65.5t-16 -79.5v-612zM582 1172l-281 254l113 143l161 -146l150 140 l123 -135z" glyph-name="ncaron" horiz-adv-x="1151" unicode="ň"/><glyph d="M272 1298q0 -35 -6.5 -75t-21.5 -79.5t-39 -75t-58 -60.5l-86 61q22 25 33.5 48t18.5 46q-24 5 -44.5 17t-36 30t-24 40.5t-8.5 47.5q0 28 10.5 53t29 44t43 30t52.5 11q29 0 54 -11t43.5 -30t29 -44t10.5 -53zM649 0h-273v1071h66l90 -104q66 60 149.5 92.5t174.5 32.5 q98 0 185 -37.5t152 -103t102.5 -153t37.5 -186.5v-612h-273v612q0 42 -16 79.5t-44 65.5t-65 44t-79 16q-43 0 -81 -16t-66 -44t-44 -65.5t-16 -79.5v-612z" glyph-name="napostrophe" horiz-adv-x="1423" unicode="ŉ"/><glyph d="M377 0h-273v1071h66l90 -104q66 60 149.5 92.5t174.5 32.5q98 0 185 -37.5t152 -103t102.5 -153t37.5 -186.5v-475q0 -113 -43.5 -212t-118 -173t-174 -117t-211.5 -43h-139v275l151 -2q55 0 102.5 22.5t82.5 60t55 86.5t20 103l2 475q0 42 -16 79.5t-44 65.5t-65 44 t-79 16q-43 0 -81 -16t-66 -44t-44 -65.5t-16 -79.5v-612z" glyph-name="eng" horiz-adv-x="1151" unicode="ŋ"/><glyph d="M1139 545q0 -120 -43 -223.5t-117 -179t-173.5 -119t-213.5 -43.5q-113 0 -212.5 43.5t-174 119t-117.5 179t-43 223.5q0 122 43 226t117.5 179.5t174 118.5t212.5 43q114 0 213.5 -40.5t173.5 -115t117 -179t43 -232.5zM864 545q0 66 -21.5 119.5t-58.5 92t-86.5 59 t-105.5 20.5t-105.5 -20.5t-86 -59t-57.5 -92t-21 -119.5q0 -62 21 -115t57.5 -92t86 -61.5t105.5 -22.5t105.5 21t86.5 59t58.5 92t21.5 119zM340 1198v211h506v-211h-506z" glyph-name="omacron" horiz-adv-x="1186" unicode="ō"/><glyph d="M1139 545q0 -120 -43 -223.5t-117 -179t-173.5 -119t-213.5 -43.5q-113 0 -212.5 43.5t-174 119t-117.5 179t-43 223.5q0 122 43 226t117.5 179.5t174 118.5t212.5 43q114 0 213.5 -40.5t173.5 -115t117 -179t43 -232.5zM864 545q0 66 -21.5 119.5t-58.5 92t-86.5 59 t-105.5 20.5t-105.5 -20.5t-86 -59t-57.5 -92t-21 -119.5q0 -62 21 -115t57.5 -92t86 -61.5t105.5 -22.5t105.5 21t86.5 59t58.5 92t21.5 119zM801 1481q11 -25 16 -44t5 -45q0 -51 -17.5 -88t-47.5 -61.5t-70 -36.5t-85 -12q-47 0 -89 14.5t-73.5 42.5t-50 67.5t-18.5 90.5 q0 20 3.5 36.5t14.5 35.5h172q-5 -14 -7.5 -29t-2.5 -29q0 -23 12.5 -39t36.5 -16q23 0 36.5 18t13.5 39q0 16 -4 28t-9 28h164z" glyph-name="obreve" horiz-adv-x="1186" unicode="ŏ"/><glyph d="M1139 545q0 -120 -43 -223.5t-117 -179t-173.5 -119t-213.5 -43.5q-113 0 -212.5 43.5t-174 119t-117.5 179t-43 223.5q0 122 43 226t117.5 179.5t174 118.5t212.5 43q114 0 213.5 -40.5t173.5 -115t117 -179t43 -232.5zM864 545q0 66 -21.5 119.5t-58.5 92t-86.5 59 t-105.5 20.5t-105.5 -20.5t-86 -59t-57.5 -92t-21 -119.5q0 -62 21 -115t57.5 -92t86 -61.5t105.5 -22.5t105.5 21t86.5 59t58.5 92t21.5 119zM432 1165l-131 127l248 328l196 -182zM778 1120l-133 127l248 324l196 -182z" glyph-name="ohungarumlaut" horiz-adv-x="1186" unicode="ő"/><glyph d="M377 0h-273v1071h66l90 -127q66 60 150 92.5t174 32.5h241v-272h-241q-43 0 -81 -16t-66 -44t-44 -66t-16 -81v-590zM449 1149l-113 149l297 277l164 -209z" glyph-name="racute" horiz-adv-x="848" unicode="ŕ"/><glyph d="M377 0h-273v1071h66l90 -127q66 60 150 92.5t174 32.5h241v-272h-241q-43 0 -81 -16t-66 -44t-44 -66t-16 -81v-590zM373 -233q0 -36 -7 -76.5t-22 -80.5t-38.5 -75.5t-57.5 -60.5l-86 61q22 26 33.5 48.5t17.5 45.5q-49 10 -82 47.5t-33 90.5q0 27 11 51.5t30 43 t44 29.5t53 11t53 -11t43.5 -29.5t29.5 -43t11 -51.5z" glyph-name="rcommaaccent" horiz-adv-x="848" unicode="ŗ"/><glyph d="M377 0h-273v1071h66l90 -127q66 60 150 92.5t174 32.5h241v-272h-241q-43 0 -81 -16t-66 -44t-44 -66t-16 -81v-590zM431 1151l-281 254l113 143l161 -146l150 140l123 -135z" glyph-name="rcaron" horiz-adv-x="848" unicode="ř"/><glyph d="M692 0h-624v272h624q28 0 48 20t20 48q0 29 -20 38t-48 9h-284q-71 0 -133 27t-108 73.5t-72.5 108.5t-26.5 133t26.5 133t72.5 108t108 72.5t133 26.5h553v-272h-553q-28 0 -48 -20t-20 -48q0 -29 20 -49.5t48 -20.5h284q70 0 132 -23.5t108 -65.5t73 -101t27 -129 q0 -71 -27 -132.5t-73 -108t-108 -73t-132 -26.5zM574 1149l-113 149l297 277l164 -209z" glyph-name="sacute" horiz-adv-x="1073" unicode="ś"/><glyph d="M692 0h-624v272h624q28 0 48 20t20 48q0 29 -20 38t-48 9h-284q-71 0 -133 27t-108 73.5t-72.5 108.5t-26.5 133t26.5 133t72.5 108t108 72.5t133 26.5h553v-272h-553q-28 0 -48 -20t-20 -48q0 -29 20 -49.5t48 -20.5h284q70 0 132 -23.5t108 -65.5t73 -101t27 -129 q0 -71 -27 -132.5t-73 -108t-108 -73t-132 -26.5zM262 1294l270 254l277 -254l-113 -143l-160 146l-151 -142z" glyph-name="scircumflex" horiz-adv-x="1073" unicode="ŝ"/><glyph d="M508 -461q-36 2 -69 15t-59 28q-30 18 -56 39l55 150q23 -17 46 -29q20 -11 41 -20t38 -9q21 0 36 14t15 37q0 28 -21.5 40t-46.5 12q-32 0 -57 -17l72 201h-434v272h624q28 0 48 20t20 48q0 29 -20 38t-48 9h-284q-71 0 -133 27t-108 73.5t-72.5 108.5t-26.5 133 t26.5 133t72.5 108t108 72.5t133 26.5h553v-272h-553q-28 0 -48 -20t-20 -48q0 -29 20 -49.5t48 -20.5h284q70 0 132 -23.5t108 -65.5t73 -101t27 -129q0 -71 -27 -132.5t-73 -108t-108 -73t-132 -26.5h-67l-27 -78q31 -4 59 -18t48.5 -36.5t32.5 -53t12 -66.5 q0 -50 -17 -89t-47 -65.5t-71.5 -40.5t-90.5 -14h-16z" glyph-name="scedilla" horiz-adv-x="1073" unicode="ş"/><glyph d="M641 0q-99 0 -186 37.5t-152.5 103t-103 152.5t-37.5 186v318h-133v272h133v428h272v-428h414v-272h-414v-318q0 -43 16 -80.5t44 -65.5t66 -44.5t81 -16.5h207v-272h-207zM586 -233q0 -36 -7 -76.5t-22 -80.5t-38.5 -75.5t-57.5 -60.5l-86 61q22 26 33.5 48.5t17.5 45.5 q-49 10 -82 47.5t-33 90.5q0 27 11 51.5t30 43t44 29.5t53 11t53 -11t43.5 -29.5t29.5 -43t11 -51.5z" glyph-name="tcommaaccent" horiz-adv-x="897" unicode="ţ"/><glyph d="M641 0q-99 0 -186 37.5t-152.5 103t-103 152.5t-37.5 186v318h-133v272h133v428h272v-428h414v-272h-414v-318q0 -43 16 -80.5t44 -65.5t66 -44.5t81 -16.5h207v-272h-207zM1169 1298q0 -35 -6.5 -75t-21.5 -79.5t-39 -75t-58 -60.5l-86 61q22 25 33.5 48t18.5 46 q-24 5 -44.5 17t-36 30t-24 40.5t-8.5 47.5q0 28 10.5 53t29 44t43 30t52.5 11q29 0 54 -11t43.5 -30t29 -44t10.5 -53z" glyph-name="tcaron" horiz-adv-x="1169" unicode="ť"/><glyph d="M641 0q-93 0 -176 33.5t-147 92t-105 137t-49 169.5h-133v252h131v113h-133v272h133v428h272v-428h414v-272h-414v-113h215v-252h-211q9 -35 28 -64t45.5 -50.5t59.5 -33.5t70 -12h207v-272h-207z" glyph-name="tbar" horiz-adv-x="897" unicode="ŧ"/><glyph d="M891 125q-33 -30 -70.5 -56.5t-78.5 -46t-84.5 -31t-88.5 -11.5q-99 0 -186 35t-152.5 99.5t-103 157t-37.5 207.5v592h272v-592q0 -54 16.5 -96.5t44.5 -71.5t65.5 -44t80.5 -15q42 0 79.5 19.5t65.5 51.5t44 72.5t16 83.5v592h273v-1071h-66zM883 1499q6 -18 11 -39 q4 -18 7.5 -41t3.5 -49q0 -50 -15 -89.5t-40.5 -67t-61 -42t-75.5 -14.5q-45 0 -77 19.5t-56.5 43t-46 43t-45.5 19.5q-19 0 -31 -17t-12 -34q0 -20 6.5 -38.5t17.5 -35.5l-188 -8q-10 18 -18 42q-7 20 -12 48.5t-5 63.5q0 89 54 139.5t147 50.5q39 0 66.5 -9.5t48 -23.5 t35.5 -30.5t27.5 -30.5t25 -23.5t28.5 -9.5q17 0 26 15t9 38q0 27 -16 54z" glyph-name="utilde" horiz-adv-x="1151" unicode="ũ"/><glyph d="M891 125q-33 -30 -70.5 -56.5t-78.5 -46t-84.5 -31t-88.5 -11.5q-99 0 -186 35t-152.5 99.5t-103 157t-37.5 207.5v592h272v-592q0 -54 16.5 -96.5t44.5 -71.5t65.5 -44t80.5 -15q42 0 79.5 19.5t65.5 51.5t44 72.5t16 83.5v592h273v-1071h-66zM322 1157v211h506v-211 h-506z" glyph-name="umacron" horiz-adv-x="1151" unicode="ū"/><glyph d="M891 125q-33 -30 -70.5 -56.5t-78.5 -46t-84.5 -31t-88.5 -11.5q-99 0 -186 35t-152.5 99.5t-103 157t-37.5 207.5v592h272v-592q0 -54 16.5 -96.5t44.5 -71.5t65.5 -44t80.5 -15q42 0 79.5 19.5t65.5 51.5t44 72.5t16 83.5v592h273v-1071h-66zM774 1430q11 -25 16 -44 t5 -45q0 -51 -17.5 -88t-47.5 -61.5t-70 -36.5t-85 -12q-47 0 -89 14.5t-73.5 42.5t-50 67.5t-18.5 90.5q0 20 3.5 36.5t14.5 35.5h172q-5 -14 -7.5 -29t-2.5 -29q0 -23 12.5 -39t36.5 -16q23 0 36.5 18t13.5 39q0 16 -4 28t-9 28h164z" glyph-name="ubreve" horiz-adv-x="1151" unicode="ŭ"/><glyph d="M891 125q-33 -30 -70.5 -56.5t-78.5 -46t-84.5 -31t-88.5 -11.5q-99 0 -186 35t-152.5 99.5t-103 157t-37.5 207.5v592h272v-592q0 -54 16.5 -96.5t44.5 -71.5t65.5 -44t80.5 -15q42 0 79.5 19.5t65.5 51.5t44 72.5t16 83.5v592h273v-1071h-66zM772 1331 q0 -41 -15.5 -76.5t-42.5 -62t-63 -42t-77 -15.5q-40 0 -76 15.5t-63 42t-42.5 62t-15.5 76.5t15.5 77t42.5 63t63 43t76 16q41 0 77 -16t63 -43t42.5 -63t15.5 -77zM639 1331q0 28 -19 48t-46 20q-28 0 -46 -20t-18 -48q0 -26 18 -44.5t46 -18.5q27 0 46 18.5t19 44.5z" glyph-name="uring" horiz-adv-x="1151" unicode="ů"/><glyph d="M891 125q-33 -30 -70.5 -56.5t-78.5 -46t-84.5 -31t-88.5 -11.5q-99 0 -186 35t-152.5 99.5t-103 157t-37.5 207.5v592h272v-592q0 -54 16.5 -96.5t44.5 -71.5t65.5 -44t80.5 -15q42 0 79.5 19.5t65.5 51.5t44 72.5t16 83.5v592h273v-1071h-66zM414 1165l-131 127 l248 328l196 -182zM760 1120l-133 127l248 324l196 -182z" glyph-name="uhungarumlaut" horiz-adv-x="1151" unicode="ű"/><glyph d="M981 -365q-29 0 -64 12t-65 35t-50 58t-20 80q0 36 15 68t38.5 60t52.5 53t58 46l-55 78q-33 -30 -70.5 -56.5t-78.5 -46t-84.5 -31t-88.5 -11.5q-99 0 -186 35t-152.5 99.5t-103 157t-37.5 207.5v592h272v-592q0 -54 16.5 -96.5t44.5 -71.5t65.5 -44t80.5 -15 q42 0 79.5 19.5t65.5 51.5t44 72.5t16 83.5v592h273v-1071q-14 -18 -27 -37t-23.5 -37t-17 -33.5t-6.5 -27.5q0 -16 10 -28.5t27 -12.5q21 0 40 14.5t27 34.5l142 -131q-48 -48 -108.5 -77.5t-129.5 -29.5z" glyph-name="uogonek" horiz-adv-x="1151" unicode="ų"/><glyph d="M1456 387q0 -84 -32 -158.5t-87.5 -129.5t-130 -87t-159.5 -32q-76 0 -146 26.5t-127 77.5q-56 -51 -125.5 -77.5t-146.5 -26.5q-85 0 -159 32t-129.5 87t-87.5 129.5t-32 158.5v682h273v-682q0 -28 10.5 -52.5t29 -43t43 -29t52.5 -10.5t53 10.5t44 29t29.5 43 t10.5 52.5v682h272v-682q0 -28 11 -52.5t29.5 -43t43 -29t52.5 -10.5t53 10.5t43.5 29t29.5 43t11 52.5v682h272v-682zM502 1273l270 254l277 -254l-113 -143l-160 146l-151 -142z" glyph-name="wcircumflex" horiz-adv-x="1550" unicode="ŵ"/><glyph d="M1456 387q0 -84 -32 -158.5t-87.5 -129.5t-130 -87t-159.5 -32q-76 0 -146 26.5t-127 77.5q-56 -51 -125.5 -77.5t-146.5 -26.5q-85 0 -159 32t-129.5 87t-87.5 129.5t-32 158.5v682h273v-682q0 -28 10.5 -52.5t29 -43t43 -29t52.5 -10.5t53 10.5t44 29t29.5 43 t10.5 52.5v682h272v-682q0 -28 11 -52.5t29.5 -43t43 -29t52.5 -10.5t53 10.5t43.5 29t29.5 43t11 52.5v682h272v-682zM719 1149l-350 217l166 209l295 -277z" glyph-name="wgrave" horiz-adv-x="1550" unicode="ẁ"/><glyph d="M1456 387q0 -84 -32 -158.5t-87.5 -129.5t-130 -87t-159.5 -32q-76 0 -146 26.5t-127 77.5q-56 -51 -125.5 -77.5t-146.5 -26.5q-85 0 -159 32t-129.5 87t-87.5 129.5t-32 158.5v682h273v-682q0 -28 10.5 -52.5t29 -43t43 -29t52.5 -10.5t53 10.5t44 29t29.5 43 t10.5 52.5v682h272v-682q0 -28 11 -52.5t29.5 -43t43 -29t52.5 -10.5t53 10.5t43.5 29t29.5 43t11 52.5v682h272v-682zM824 1149l-113 149l297 277l164 -209z" glyph-name="wacute" horiz-adv-x="1550" unicode="ẃ"/><glyph d="M1456 387q0 -84 -32 -158.5t-87.5 -129.5t-130 -87t-159.5 -32q-76 0 -146 26.5t-127 77.5q-56 -51 -125.5 -77.5t-146.5 -26.5q-85 0 -159 32t-129.5 87t-87.5 129.5t-32 158.5v682h273v-682q0 -28 10.5 -52.5t29 -43t43 -29t52.5 -10.5t53 10.5t44 29t29.5 43 t10.5 52.5v682h272v-682q0 -28 11 -52.5t29.5 -43t43 -29t52.5 -10.5t53 10.5t43.5 29t29.5 43t11 52.5v682h272v-682zM1083 1271q0 -26 -9.5 -49t-26 -40.5t-39 -27.5t-47.5 -10q-26 0 -49.5 10t-40.5 27.5t-27 40.5t-10 49q0 25 10 48t27 40t40.5 27t49.5 10 q25 0 47.5 -10t39 -27t26 -40t9.5 -48zM723 1273q0 -27 -10 -50.5t-27.5 -41t-40.5 -27.5t-49 -10t-49.5 10t-41 27.5t-28 41t-10.5 50.5q0 26 10.5 49t28 40.5t41 27.5t49.5 10t49 -10t40.5 -27.5t27.5 -40.5t10 -49z" glyph-name="wdieresis" horiz-adv-x="1550" unicode="ẅ"/><glyph d="M362 -408v275l152 -2q40 0 77 13t68.5 36t55.5 54.5t39 68.5q-45 -19 -91.5 -38t-93.5 -19q-99 0 -186 35t-152.5 99.5t-103 157t-37.5 207.5v592h272v-592q0 -57 16.5 -99.5t44.5 -71t65.5 -42.5t80.5 -14q42 0 79.5 19.5t65.5 51.5t44 72.5t16 83.5v592h275v-936 q-1 -113 -44 -212t-117.5 -173t-173.5 -117t-212 -43zM303 1273l270 254l277 -254l-113 -143l-160 146l-151 -142z" glyph-name="ycircumflex" horiz-adv-x="1153" unicode="ŷ"/><glyph d="M362 -408v275l152 -2q40 0 77 13t68.5 36t55.5 54.5t39 68.5q-45 -19 -91.5 -38t-93.5 -19q-99 0 -186 35t-152.5 99.5t-103 157t-37.5 207.5v592h272v-592q0 -57 16.5 -99.5t44.5 -71t65.5 -42.5t80.5 -14q42 0 79.5 19.5t65.5 51.5t44 72.5t16 83.5v592h275v-936 q-1 -113 -44 -212t-117.5 -173t-173.5 -117t-212 -43zM493 1149l-350 217l166 209l295 -277z" glyph-name="ygrave" horiz-adv-x="1153" unicode="ỳ"/><glyph d="M940 0h-893l451 797h-451v272h893l-451 -797h451v-272zM523 1149l-113 149l297 277l164 -209z" glyph-name="zacute" horiz-adv-x="987" unicode="ź"/><glyph d="M940 0h-893l451 797h-451v272h893l-451 -797h451v-272zM621 1288q0 -27 -10 -50.5t-27.5 -41t-40.5 -27.5t-49 -10t-49.5 10t-41 27.5t-28 41t-10.5 50.5q0 26 10.5 49.5t28 41t41 28t49.5 10.5t49 -10.5t40.5 -28t27.5 -41t10 -49.5z" glyph-name="zdotaccent" horiz-adv-x="987" unicode="ż"/><glyph d="M1454 262q16 -5 32 -6.5t32 -1.5q40 0 77 11t69 31.5t57.5 50t41.5 65.5l201 -201q-38 -54 -87.5 -97t-107 -73t-121 -45.5t-130.5 -15.5q-112 0 -207.5 39t-169.5 110v-129h-66l-106 147q-39 -35 -82.5 -65.5t-91.5 -53t-98.5 -35.5t-102.5 -13q-113 0 -212.5 38 t-174 110.5t-117.5 177.5t-43 239q0 125 43 229.5t117.5 179.5t174 116.5t212.5 41.5q52 0 103 -13t99 -36t91.5 -54t81.5 -67l106 127h66v-104q74 71 169.5 109t207.5 38q67 0 131 -16t121.5 -46t107.5 -73.5t88 -97.5zM866 545q0 56 -21.5 108.5t-58.5 93t-86.5 65 t-105.5 24.5t-105.5 -19t-86 -56t-57.5 -91.5t-21 -124.5t21 -124.5t57.5 -91.5t86 -56t105.5 -19t105.5 24.5t86.5 65t58.5 93t21.5 108.5zM1593 825q-18 7 -36.5 9t-38.5 2q-56 0 -105.5 -20.5t-86.5 -58.5t-58 -91.5t-21 -120.5q0 -15 1.5 -34t5 -38.5t9 -37.5t13.5 -32z M1086 1149l-113 149l297 277l164 -209z" glyph-name="aeacute" horiz-adv-x="1999" unicode="ǽ"/><glyph d="M1014 915q59 -72 92 -165t33 -205q0 -120 -43 -223.5t-117 -179t-173.5 -119t-213.5 -43.5q-65 0 -124.5 14t-113.5 39l-24 -33h-275l125 168q-63 75 -99 170t-36 207q0 122 43 226t117.5 179.5t174 118.5t212.5 43q68 0 131 -15.5t119 -43.5l24 32h275zM322 545 q0 -40 8.5 -76.5t23.5 -67.5l316 422q-19 6 -38.5 9.5t-39.5 3.5q-56 0 -105.5 -20.5t-86 -59t-57.5 -92t-21 -119.5zM864 545q0 72 -28 133l-310 -416q16 -5 32.5 -6.5t33.5 -1.5q56 0 105.5 21t86.5 59t58.5 92t21.5 119zM619 1190l-113 149l297 277l164 -209z" glyph-name="oslashacute" horiz-adv-x="1186" unicode="ǿ"/><glyph d="M420 -205h-289v819h289v-819zM420 819h-289v819h289v-819z" glyph-name="brokenbar" horiz-adv-x="551" unicode="¦"/><glyph d="M420 1004v-574h287q59 0 111 22.5t91 61.5t61.5 91.5t22.5 111.5t-22.5 111t-61.5 91t-91 62t-111 23h-287zM133 1495h287v-205h287q118 0 222.5 -45t182.5 -123t123 -182.5t45 -222.5q0 -119 -45 -223.5t-123 -182.5t-182.5 -123t-222.5 -45h-287v-204h-287v1556z" glyph-name="Thorn" horiz-adv-x="1305" unicode="Þ"/><glyph d="M926 545q0 61 -19 114t-54.5 92.5t-86 62t-113.5 22.5t-113.5 -22.5t-85.5 -62t-54 -92.5t-19 -114q0 -59 19.5 -112t55 -93t85.5 -63t112 -23q61 0 111.5 23t86.5 63t55.5 93t19.5 112zM104 1516h289v-486q59 35 125 57.5t135 22.5q121 0 222 -43.5t173 -120t112 -179.5 t40 -222q0 -122 -39 -225.5t-110.5 -180t-172.5 -119.5t-225 -43q-36 0 -72 8t-70.5 21.5t-67.5 30.5t-64 35v-480h-275v1924z" glyph-name="thorn" horiz-adv-x="1247" unicode="þ"/></font>
</defs>
</svg>
